<svg width="581" height="512" viewBox="0 0 581 512" fill="none" xmlns="http://www.w3.org/2000/svg">
<g filter="url(#filter0_b_1252_2597)">
<rect width="286.51" height="317.46" rx="6.88279" fill="url(#paint0_linear_1252_2597)" fill-opacity="0.9"/>
<rect x="0.5" y="0.5" width="285.51" height="316.46" rx="6.38279" stroke="white" stroke-opacity="0.15"/>
</g>
<path opacity="0.6" d="M33.568 40.9148H34.792V38.9868H36.04C37.272 38.9868 38.16 38.3068 38.16 37.1548C38.16 35.9308 37.288 35.3148 36.088 35.3148H33.568V40.9148ZM34.792 38.1228V36.2748H35.824C36.456 36.2748 36.92 36.5628 36.92 37.2028C36.92 37.8268 36.456 38.1228 35.824 38.1228H34.792ZM38.9489 40.9148H43.2049V39.9548H40.1729V38.4988H42.9009V37.5628H40.1729V36.2748H43.2129V35.3148H38.9489V40.9148ZM44.0174 40.9148H45.2414V38.9068H46.3774C47.0734 38.9068 47.2654 39.0348 47.3534 39.6348L47.5534 40.9148H48.8094L48.5294 39.2748C48.4014 38.5228 48.0894 38.2268 47.3694 38.1788V38.1228C48.0894 38.0748 48.6654 37.5148 48.6654 36.7148C48.6654 35.8348 48.0174 35.3148 46.8974 35.3148H44.0174V40.9148ZM45.2414 38.0348V36.2748H46.5134C47.1054 36.2748 47.4654 36.5948 47.4654 37.1148C47.4654 37.6748 47.0894 38.0348 46.5134 38.0348H45.2414ZM51.8102 41.0348C53.3462 41.0348 54.2582 40.4028 54.2582 39.2908C54.2582 38.1548 53.2822 37.8908 52.3542 37.6988L51.7782 37.5788C51.1622 37.4508 50.6582 37.2988 50.6582 36.8348C50.6582 36.4108 51.0742 36.1628 51.7702 36.1628C52.4742 36.1628 52.9302 36.5228 52.9542 37.1548H54.1382C54.1142 35.9148 53.2262 35.1948 51.7862 35.1948C50.2982 35.1948 49.4182 35.8428 49.4182 36.8108C49.4182 38.0508 50.4582 38.3388 51.4102 38.5308L51.9222 38.6348C52.5382 38.7628 53.0182 38.9148 53.0182 39.3468C53.0182 39.8268 52.5942 40.0748 51.8422 40.0668C51.0262 40.0668 50.5382 39.7228 50.4902 39.0988H49.2902C49.2662 40.3148 50.2022 41.0348 51.8102 41.0348ZM57.6529 41.0348C59.3889 41.0348 60.5009 39.9228 60.5009 38.1068C60.5009 36.2908 59.3729 35.1868 57.6529 35.1868C55.9249 35.1868 54.8049 36.2908 54.8049 38.1068C54.8049 39.9228 55.9249 41.0348 57.6529 41.0348ZM56.0769 38.1068C56.0769 36.8268 56.6929 36.1548 57.6529 36.1548C58.6049 36.1548 59.2289 36.8268 59.2289 38.1068C59.2289 39.4108 58.6129 40.0668 57.6529 40.0668C56.6929 40.0668 56.0769 39.4108 56.0769 38.1068ZM62.5004 36.9148L62.5484 36.8988C62.9084 37.5388 63.2524 38.0988 63.6044 38.6588L65.0044 40.9148H66.3244V35.3148H65.1244V37.4988C65.1244 38.0348 65.1244 38.5708 65.1404 39.1948L65.0844 39.2028C64.7724 38.6508 64.4844 38.1868 64.1884 37.7148L62.6684 35.3148H61.3164V40.9148H62.5004V38.7148C62.5004 38.1148 62.5084 37.5148 62.5004 36.9148ZM68.1231 40.9148L68.5791 39.5948H70.8911L71.3551 40.9148H72.6511L70.4831 35.3148H68.9711L66.8671 40.9148H68.1231ZM68.9071 38.6508L69.2191 37.7468C69.3871 37.2668 69.5471 36.7868 69.6991 36.3068H69.7551C69.9071 36.7788 70.0591 37.2508 70.2271 37.7148L70.5551 38.6508H68.9071ZM73.1955 40.9148H77.1795V39.9548H74.4195V35.3148H73.1955V40.9148ZM77.8968 35.3148V40.9148H79.1208V35.3148H77.8968ZM79.9281 40.9148H84.5681V39.8748H83.0881C82.5521 39.8748 81.9681 39.8988 81.4321 39.9308L81.4081 39.8748L84.5281 36.2988V35.3148H80.0721V36.3548H80.9681C81.6801 36.3548 82.4161 36.3468 83.0161 36.2988L83.0401 36.3548L79.9281 39.9308V40.9148ZM86.1547 40.9148L86.6107 39.5948H88.9227L89.3867 40.9148H90.6827L88.5147 35.3148H87.0027L84.8987 40.9148H86.1547ZM86.9387 38.6508L87.2507 37.7468C87.4187 37.2668 87.5787 36.7868 87.7307 36.3068H87.7867C87.9387 36.7788 88.0907 37.2508 88.2587 37.7148L88.5867 38.6508H86.9387ZM93.2822 42.6348C93.8422 42.6348 94.3462 42.3948 94.3462 41.8988C94.3462 41.5548 94.0102 41.3068 93.5542 41.3068H93.4422V41.2668C93.5702 41.2268 93.6902 41.1468 93.7382 41.0348C95.1462 40.9388 96.0182 40.0588 96.1302 38.7548H94.8822C94.7862 39.5388 94.2902 40.0748 93.5142 40.0748C92.5542 40.0748 91.9622 39.3388 91.9622 38.1068C91.9622 36.8748 92.5462 36.1548 93.4742 36.1548C94.1942 36.1548 94.6662 36.5788 94.8342 37.2268H96.0982C95.8982 35.9788 94.9462 35.1868 93.4742 35.1868C91.7622 35.1868 90.6902 36.2748 90.6902 38.1068C90.6902 39.8268 91.6422 40.9068 93.1782 41.0348C93.1382 41.1708 93.0182 41.2668 92.8662 41.3148V41.6348C93.1782 41.5948 93.5302 41.6348 93.5302 41.8748C93.5302 42.0748 93.3542 42.1548 93.1062 42.1548C92.9542 42.1548 92.7782 42.1228 92.5862 42.0668V42.5148C92.8102 42.5948 93.0502 42.6348 93.2822 42.6348ZM97.4869 40.9148L97.9429 39.5948H100.255L100.719 40.9148H102.015L99.8469 35.3148H98.3349L96.2309 40.9148H97.4869ZM97.6149 34.9148H98.3349C98.2949 34.7308 98.3509 34.6028 98.5509 34.6028C98.6549 34.6028 98.7509 34.6268 99.0869 34.7628C99.3669 34.8668 99.5349 34.9148 99.7349 34.9148C100.319 34.9148 100.679 34.4908 100.567 33.8508H99.8389C99.8869 34.0348 99.8149 34.1628 99.6229 34.1628C99.5189 34.1628 99.4229 34.1468 99.0869 34.0028C98.8069 33.8908 98.6789 33.8508 98.4469 33.8508C97.8629 33.8508 97.5029 34.2828 97.6149 34.9148ZM98.2709 38.6508L98.5829 37.7468C98.7509 37.2668 98.9109 36.7868 99.0629 36.3068H99.1189C99.2709 36.7788 99.4229 37.2508 99.5909 37.7148L99.9189 38.6508H98.2709ZM104.87 41.0348C106.606 41.0348 107.718 39.9228 107.718 38.1068C107.718 36.2908 106.59 35.1868 104.87 35.1868C103.142 35.1868 102.022 36.2908 102.022 38.1068C102.022 39.9228 103.142 41.0348 104.87 41.0348ZM103.294 38.1068C103.294 36.8268 103.91 36.1548 104.87 36.1548C105.822 36.1548 106.446 36.8268 106.446 38.1068C106.446 39.4108 105.83 40.0668 104.87 40.0668C103.91 40.0668 103.294 39.4108 103.294 38.1068Z" fill="#ABABAB"/>
<line opacity="0.1" x1="33" y1="98.4846" x2="253.188" y2="98.4846" stroke="white" stroke-width="0.860349"/>
<line opacity="0.1" x1="33" y1="146.485" x2="253.188" y2="146.485" stroke="white" stroke-width="0.860349"/>
<line opacity="0.1" x1="33" y1="194.485" x2="253.188" y2="194.485" stroke="white" stroke-width="0.860349"/>
<line opacity="0.1" x1="33" y1="242.485" x2="253.188" y2="242.485" stroke="white" stroke-width="0.860349"/>
<path d="M66.79 78.9148H69.96C71.3 78.9148 72.2 78.1148 72.2 76.9248C72.2 75.9448 71.45 75.2448 70.53 75.1848V75.1248C71.34 75.0648 72.01 74.3448 72.01 73.4848C72.01 72.4848 71.19 71.9148 69.96 71.9148H66.79V78.9148ZM67.63 78.1548V75.7348H69.83C70.85 75.7348 71.35 76.1148 71.35 76.9248C71.35 77.7348 70.85 78.1548 69.83 78.1548H67.63ZM67.63 74.9748V72.6748H69.92C70.66 72.6748 71.15 73.0948 71.15 73.7348C71.15 74.4348 70.62 74.9748 69.73 74.9748H67.63ZM74.7509 79.0748C75.8509 79.0748 76.6709 78.4648 76.8709 77.4948H76.9109L76.9509 78.9148H77.7109V75.3748C77.7109 74.2548 76.8609 73.5948 75.4209 73.5948C74.0409 73.5948 73.1009 74.3448 72.9909 75.5348H73.8109C73.9309 74.7448 74.5509 74.2948 75.4109 74.2948C76.5609 74.2948 76.9109 74.9048 76.9109 75.3548C76.9109 76.0548 76.3809 76.1548 75.4509 76.1548H74.8409C73.6409 76.1548 72.9709 76.6848 72.9709 77.6448C72.9709 78.5248 73.6909 79.0748 74.7509 79.0748ZM73.8209 77.5348C73.8209 76.9948 74.1809 76.6948 74.8209 76.6948H75.4509C76.3709 76.6948 76.8009 76.4948 76.8709 76.0448H76.9109V76.6248C76.9109 77.4548 76.1509 78.3948 74.9309 78.3948C74.1509 78.3948 73.8209 78.0648 73.8209 77.5348ZM81.31 79.0748C82.64 79.0748 83.59 78.2648 83.71 77.0348H82.88C82.78 77.8048 82.19 78.3548 81.31 78.3548C80.28 78.3548 79.61 77.4848 79.61 76.2748C79.61 75.0948 80.28 74.3148 81.31 74.3148C82.17 74.3148 82.75 74.7948 82.87 75.5348H83.7C83.53 74.3648 82.6 73.5948 81.31 73.5948C79.8 73.5948 78.79 74.6748 78.79 76.2948C78.79 77.9648 79.8 79.0748 81.31 79.0748ZM84.7408 78.9148H85.5408V77.2848L86.3508 76.5348H86.6408C87.1508 76.5348 87.4408 76.7448 87.6908 77.2648L88.4808 78.9148H89.3408L88.3408 76.9148C88.0808 76.4048 87.7408 75.9748 87.0208 75.9148L87.0108 75.8748C87.2608 75.6648 87.7408 75.2348 88.2808 74.7348L89.3408 73.7548H88.3308L86.9108 75.0648C86.4808 75.4648 85.9308 76.0148 85.5608 76.3848L85.5208 76.3748C85.5308 75.8148 85.5408 75.2348 85.5408 74.5748V71.9148H84.7408V78.9148ZM92.3181 77.0148C93.5981 77.0148 94.3581 76.2948 94.3581 75.2848C94.3581 74.5148 93.8981 73.9348 93.1581 73.7048L93.1681 73.6548L94.9181 73.8748V73.1048L91.9581 73.5948C90.8581 73.7748 90.2781 74.3848 90.2781 75.2848C90.2781 75.8748 90.5381 76.3648 91.0081 76.6748V76.7248C90.4281 76.9248 90.0981 77.2848 90.0981 77.7348C90.0981 78.1448 90.3281 78.4548 90.7681 78.6148V78.6548C90.2881 78.8148 89.8681 79.1248 89.8681 79.6248C89.8681 80.3648 90.5781 80.8248 92.2481 80.8248C93.9581 80.8248 94.8481 80.2748 94.8481 79.2648C94.8481 78.4948 94.2981 78.0248 93.3681 78.0248H91.5681C91.0881 78.0248 90.8381 77.7348 90.8381 77.4348C90.8381 77.2048 90.9781 76.9548 91.2681 76.8148C91.5681 76.9448 91.9181 77.0148 92.3181 77.0148ZM90.6281 79.3548C90.6281 79.1048 90.8181 78.8448 91.1581 78.7048C91.2681 78.7148 91.3881 78.7248 91.5181 78.7248H93.2081C93.7281 78.7248 94.0381 78.9448 94.0381 79.3148C94.0381 79.8148 93.4281 80.1248 92.3281 80.1248C91.0881 80.1248 90.6281 79.8748 90.6281 79.3548ZM91.0781 75.2748C91.0781 74.6448 91.5481 74.2448 92.3181 74.2448C93.0881 74.2448 93.5581 74.6448 93.5581 75.2748C93.5581 75.9148 93.0881 76.3148 92.3181 76.3148C91.5481 76.3148 91.0781 75.9148 91.0781 75.2748ZM95.8982 78.9148H96.6982V77.0748C96.6982 76.1048 96.8682 75.3948 97.3082 74.9548C97.6582 74.6048 98.1682 74.4248 98.8882 74.3948V73.6748C97.6082 73.6748 96.9682 74.2448 96.7382 75.3448H96.6982L96.6682 73.7548H95.8982V78.9148ZM101.861 79.0748C103.271 79.0748 104.551 78.0148 104.551 76.3148C104.551 74.6548 103.271 73.5948 101.861 73.5948C100.451 73.5948 99.1713 74.6548 99.1713 76.3148C99.1713 78.0148 100.451 79.0748 101.861 79.0748ZM99.9913 76.3148C99.9913 75.0748 100.761 74.3148 101.861 74.3148C102.961 74.3148 103.731 75.0748 103.731 76.3148C103.731 77.5848 102.961 78.3548 101.861 78.3548C100.761 78.3548 99.9913 77.5848 99.9913 76.3148ZM107.441 79.0748C108.341 79.0748 108.991 78.5648 109.271 77.6448H109.331L109.381 78.9148H110.141V73.7548H109.331V76.4148C109.331 77.5648 108.701 78.3348 107.761 78.3348C106.931 78.3348 106.381 77.7748 106.381 76.9248V73.7548H105.581V77.1848C105.581 78.3148 106.321 79.0748 107.441 79.0748ZM111.516 78.9148H112.326V76.2548C112.326 75.1048 112.976 74.3348 113.916 74.3348C114.836 74.3348 115.276 74.8048 115.276 75.6748V78.9148H116.076V75.4848C116.076 74.3548 115.336 73.5948 114.216 73.5948C113.316 73.5948 112.666 74.1048 112.386 75.0248H112.326L112.276 73.7548H111.516V78.9148ZM117.201 76.3448C117.201 77.9948 118.131 79.0948 119.531 79.0948C120.421 79.0948 121.101 78.5748 121.431 77.6348H121.471L121.511 78.9148H122.271V71.9148H121.471V75.0548H121.431C121.101 74.1148 120.421 73.5948 119.531 73.5948C118.131 73.5948 117.201 74.6948 117.201 76.3448ZM118.011 76.3448C118.011 75.1248 118.701 74.3148 119.741 74.3148C120.781 74.3148 121.471 75.1248 121.471 76.0848V76.6048C121.471 77.5648 120.781 78.3748 119.741 78.3748C118.701 78.3748 118.011 77.5648 118.011 76.3448Z" fill="white"/>
<path d="M37.2497 78.4149C37.1117 78.4155 37.0003 78.5275 37.0003 78.6655C37.0003 78.8035 37.1123 78.9149 37.2503 78.9149C37.3883 78.9149 37.5003 78.8029 37.5003 78.6649C37.5003 78.5269 37.3883 78.4149 37.2497 78.4149" stroke="white" stroke-linecap="round" stroke-linejoin="round"/>
<path fill-rule="evenodd" clip-rule="evenodd" d="M37.3328 80.9148V80.9148C36.0442 80.9148 34.9995 79.8701 34.9995 78.5815V70.2481C34.9995 69.5115 35.5962 68.9148 36.3328 68.9148H38.3328C39.0695 68.9148 39.6662 69.5115 39.6662 70.2481V78.5815C39.6662 79.8701 38.6215 80.9148 37.3328 80.9148Z" stroke="white" stroke-linecap="round" stroke-linejoin="round"/>
<path d="M38.9829 80.2315L45.4569 73.7575C45.9776 73.2368 45.9776 72.3928 45.4569 71.8721L44.0429 70.4581C43.5222 69.9375 42.6782 69.9375 42.1576 70.4581L39.6662 72.9481" stroke="white" stroke-linecap="round" stroke-linejoin="round"/>
<path d="M42.9668 76.2482H45.6668C46.4035 76.2482 47.0002 76.8448 47.0002 77.5815V79.5815C47.0002 80.3182 46.4035 80.9148 45.6668 80.9148H37.3335" stroke="white" stroke-linecap="round" stroke-linejoin="round"/>
<path d="M249.745 71.9148L252.745 74.9148L249.745 77.9148" stroke="white"/>
<path d="M66.79 126.601H69.96C71.3 126.601 72.2 125.801 72.2 124.611C72.2 123.631 71.45 122.931 70.53 122.871V122.811C71.34 122.751 72.01 122.031 72.01 121.171C72.01 120.171 71.19 119.601 69.96 119.601H66.79V126.601ZM67.63 125.841V123.421H69.83C70.85 123.421 71.35 123.801 71.35 124.611C71.35 125.421 70.85 125.841 69.83 125.841H67.63ZM67.63 122.661V120.361H69.92C70.66 120.361 71.15 120.781 71.15 121.421C71.15 122.121 70.62 122.661 69.73 122.661H67.63ZM74.7509 126.761C75.8509 126.761 76.6709 126.151 76.8709 125.181H76.9109L76.9509 126.601H77.7109V123.061C77.7109 121.941 76.8609 121.281 75.4209 121.281C74.0409 121.281 73.1009 122.031 72.9909 123.221H73.8109C73.9309 122.431 74.5509 121.981 75.4109 121.981C76.5609 121.981 76.9109 122.591 76.9109 123.041C76.9109 123.741 76.3809 123.841 75.4509 123.841H74.8409C73.6409 123.841 72.9709 124.371 72.9709 125.331C72.9709 126.211 73.6909 126.761 74.7509 126.761ZM73.8209 125.221C73.8209 124.681 74.1809 124.381 74.8209 124.381H75.4509C76.3709 124.381 76.8009 124.181 76.8709 123.731H76.9109V124.311C76.9109 125.141 76.1509 126.081 74.9309 126.081C74.1509 126.081 73.8209 125.751 73.8209 125.221ZM79.0888 126.601H79.8988V123.941C79.8988 122.791 80.5488 122.021 81.4888 122.021C82.4088 122.021 82.8488 122.491 82.8488 123.361V126.601H83.6488V123.171C83.6488 122.041 82.9088 121.281 81.7888 121.281C80.8888 121.281 80.2388 121.791 79.9588 122.711H79.8988L79.8488 121.441H79.0888V126.601ZM85.024 126.601H85.834V123.941C85.834 122.791 86.484 122.021 87.424 122.021C88.344 122.021 88.784 122.491 88.784 123.361V126.601H89.584V123.171C89.584 122.041 88.844 121.281 87.724 121.281C86.824 121.281 86.174 121.791 85.894 122.711H85.834L85.784 121.441H85.024V126.601ZM93.2691 126.761C94.5491 126.761 95.4991 125.971 95.6491 124.791H94.8291C94.6791 125.501 94.1291 126.061 93.2691 126.061C92.2691 126.061 91.5291 125.401 91.5091 124.151H95.6691C95.6791 124.021 95.6891 123.901 95.6891 123.781C95.6891 122.321 94.6491 121.281 93.2491 121.281C91.7491 121.281 90.7091 122.271 90.7091 124.001C90.7091 125.861 91.7791 126.761 93.2691 126.761ZM91.5091 123.591C91.5791 122.531 92.2891 121.981 93.2191 121.981C94.2091 121.981 94.8091 122.621 94.8691 123.591H91.5091ZM96.8162 126.601H97.6162V124.761C97.6162 123.791 97.7862 123.081 98.2262 122.641C98.5762 122.291 99.0862 122.111 99.8062 122.081V121.361C98.5262 121.361 97.8862 121.931 97.6562 123.031H97.6162L97.5862 121.441H96.8162V126.601ZM102.447 126.761C103.757 126.761 104.587 126.151 104.587 125.191C104.587 124.131 103.677 123.861 102.767 123.691L102.187 123.581C101.527 123.461 100.997 123.301 100.997 122.791C100.997 122.291 101.457 121.981 102.257 121.981C103.077 121.981 103.617 122.401 103.617 123.081H104.437C104.437 121.971 103.577 121.281 102.257 121.281C100.957 121.281 100.197 121.871 100.197 122.821C100.197 123.871 101.107 124.131 102.007 124.291L102.637 124.401C103.267 124.511 103.767 124.701 103.767 125.221C103.767 125.741 103.257 126.061 102.447 126.061C101.507 126.061 100.957 125.671 100.887 124.961H100.067C100.137 126.101 100.997 126.761 102.447 126.761Z" fill="white"/>
<path d="M249.745 120.128L252.745 123.628L249.745 127.128" stroke="white"/>
<path fill-rule="evenodd" clip-rule="evenodd" d="M34.9976 119.58C34.9976 118.107 36.192 116.912 37.6653 116.912H44.3348C45.8082 116.912 47.0026 118.107 47.0026 119.58V126.25C47.0026 127.723 45.8082 128.917 44.3348 128.917H37.6653C36.192 128.917 34.9976 127.723 34.9976 126.25V119.58Z" stroke="white" stroke-linecap="round" stroke-linejoin="round"/>
<path d="M41 125.583L44.0586 122.524C44.5795 122.003 45.4238 122.003 45.9447 122.524L47.0025 123.582" stroke="white" stroke-linecap="round" stroke-linejoin="round"/>
<path fill-rule="evenodd" clip-rule="evenodd" d="M37.9985 120.914C38.551 120.914 38.9989 120.466 38.9989 119.914C38.9989 119.361 38.551 118.913 37.9985 118.913C37.4459 118.913 36.998 119.361 36.998 119.914C36.998 120.466 37.4459 120.914 37.9985 120.914Z" stroke="white" stroke-linecap="round" stroke-linejoin="round"/>
<path d="M35.2329 127.346L38.0541 124.525C38.575 124.004 39.4193 124.004 39.9402 124.525L44.22 128.805" stroke="white" stroke-linecap="round" stroke-linejoin="round"/>
<path d="M69.47 174.678C71.21 174.678 72.33 173.868 72.33 172.588C72.33 171.238 71.15 170.888 69.97 170.638L69.21 170.478C68.3 170.288 67.54 170.028 67.54 169.278C67.54 168.588 68.26 168.148 69.41 168.148C70.53 168.148 71.29 168.768 71.29 169.768H72.16C72.16 168.288 71.06 167.358 69.41 167.368C67.73 167.378 66.67 168.098 66.67 169.248C66.67 170.678 67.87 171.038 69.06 171.278L69.84 171.438C70.74 171.618 71.46 171.888 71.46 172.628C71.46 173.448 70.75 173.898 69.47 173.898C68.16 173.898 67.31 173.278 67.31 172.308L66.44 172.298C66.44 173.738 67.63 174.678 69.47 174.678ZM75.8152 174.678C77.0952 174.678 78.0452 173.888 78.1952 172.708H77.3752C77.2252 173.418 76.6752 173.978 75.8152 173.978C74.8152 173.978 74.0752 173.318 74.0552 172.068H78.2152C78.2252 171.938 78.2352 171.818 78.2352 171.698C78.2352 170.238 77.1952 169.198 75.7952 169.198C74.2952 169.198 73.2552 170.188 73.2552 171.918C73.2552 173.778 74.3252 174.678 75.8152 174.678ZM74.0552 171.508C74.1252 170.448 74.8352 169.898 75.7652 169.898C76.7552 169.898 77.3552 170.538 77.4152 171.508H74.0552ZM79.3423 167.518V174.518H80.1423V167.518H79.3423ZM83.9386 174.678C85.3486 174.678 86.6286 173.618 86.6286 171.918C86.6286 170.258 85.3486 169.198 83.9386 169.198C82.5286 169.198 81.2486 170.258 81.2486 171.918C81.2486 173.618 82.5286 174.678 83.9386 174.678ZM82.0686 171.918C82.0686 170.678 82.8386 169.918 83.9386 169.918C85.0386 169.918 85.8086 170.678 85.8086 171.918C85.8086 173.188 85.0386 173.958 83.9386 173.958C82.8386 173.958 82.0686 173.188 82.0686 171.918ZM89.6814 171.948C89.6814 173.598 90.6114 174.698 92.0114 174.698C92.9014 174.698 93.5814 174.178 93.9114 173.238H93.9514L93.9914 174.518H94.7514V167.518H93.9514V170.658H93.9114C93.5814 169.718 92.9014 169.198 92.0114 169.198C90.6114 169.198 89.6814 170.298 89.6814 171.948ZM90.4914 171.948C90.4914 170.728 91.1814 169.918 92.2214 169.918C93.2614 169.918 93.9514 170.728 93.9514 171.688V172.208C93.9514 173.168 93.2614 173.978 92.2214 173.978C91.1814 173.978 90.4914 173.168 90.4914 171.948ZM98.4402 174.678C99.7202 174.678 100.67 173.888 100.82 172.708H100C99.8502 173.418 99.3002 173.978 98.4402 173.978C97.4402 173.978 96.7002 173.318 96.6802 172.068H100.84C100.85 171.938 100.86 171.818 100.86 171.698C100.86 170.238 99.8202 169.198 98.4202 169.198C96.9202 169.198 95.8802 170.188 95.8802 171.918C95.8802 173.778 96.9502 174.678 98.4402 174.678ZM96.6802 171.508C96.7502 170.448 97.4602 169.898 98.3902 169.898C99.3802 169.898 99.9802 170.538 100.04 171.508H96.6802ZM106.313 172.618C107.593 172.618 108.353 171.898 108.353 170.888C108.353 170.118 107.893 169.538 107.153 169.308L107.163 169.258L108.913 169.478V168.708L105.953 169.198C104.853 169.378 104.273 169.988 104.273 170.888C104.273 171.478 104.533 171.968 105.003 172.278V172.328C104.423 172.528 104.093 172.888 104.093 173.338C104.093 173.748 104.323 174.058 104.763 174.218V174.258C104.283 174.418 103.863 174.728 103.863 175.228C103.863 175.968 104.573 176.428 106.243 176.428C107.953 176.428 108.843 175.878 108.843 174.868C108.843 174.098 108.293 173.628 107.363 173.628H105.563C105.083 173.628 104.833 173.338 104.833 173.038C104.833 172.808 104.973 172.558 105.263 172.418C105.563 172.548 105.913 172.618 106.313 172.618ZM104.623 174.958C104.623 174.708 104.813 174.448 105.153 174.308C105.263 174.318 105.383 174.328 105.513 174.328H107.203C107.723 174.328 108.033 174.548 108.033 174.918C108.033 175.418 107.423 175.728 106.323 175.728C105.083 175.728 104.623 175.478 104.623 174.958ZM105.073 170.878C105.073 170.248 105.543 169.848 106.313 169.848C107.083 169.848 107.553 170.248 107.553 170.878C107.553 171.518 107.083 171.918 106.313 171.918C105.543 171.918 105.073 171.518 105.073 170.878ZM111.373 174.678C112.473 174.678 113.293 174.068 113.493 173.098H113.533L113.573 174.518H114.333V170.978C114.333 169.858 113.483 169.198 112.043 169.198C110.663 169.198 109.723 169.948 109.613 171.138H110.433C110.553 170.348 111.173 169.898 112.033 169.898C113.183 169.898 113.533 170.508 113.533 170.958C113.533 171.658 113.003 171.758 112.073 171.758H111.463C110.263 171.758 109.593 172.288 109.593 173.248C109.593 174.128 110.313 174.678 111.373 174.678ZM110.443 173.138C110.443 172.598 110.803 172.298 111.443 172.298H112.073C112.993 172.298 113.423 172.098 113.493 171.648H113.533V172.228C113.533 173.058 112.773 173.998 111.553 173.998C110.773 173.998 110.443 173.668 110.443 173.138ZM115.711 174.518H116.511V172.678C116.511 171.708 116.681 170.998 117.121 170.558C117.471 170.208 117.981 170.028 118.701 169.998V169.278C117.421 169.278 116.781 169.848 116.551 170.948H116.511L116.481 169.358H115.711V174.518ZM120.968 174.678C122.068 174.678 122.888 174.068 123.088 173.098H123.128L123.168 174.518H123.928V170.978C123.928 169.858 123.078 169.198 121.638 169.198C120.258 169.198 119.318 169.948 119.208 171.138H120.028C120.148 170.348 120.768 169.898 121.628 169.898C122.778 169.898 123.128 170.508 123.128 170.958C123.128 171.658 122.598 171.758 121.668 171.758H121.058C119.858 171.758 119.188 172.288 119.188 173.248C119.188 174.128 119.908 174.678 120.968 174.678ZM120.038 173.138C120.038 172.598 120.398 172.298 121.038 172.298H121.668C122.588 172.298 123.018 172.098 123.088 171.648H123.128V172.228C123.128 173.058 122.368 173.998 121.148 173.998C120.368 173.998 120.038 173.668 120.038 173.138ZM125.306 174.518H126.116V171.858C126.116 170.708 126.766 169.938 127.706 169.938C128.626 169.938 129.066 170.408 129.066 171.278V174.518H129.866V171.088C129.866 169.958 129.126 169.198 128.006 169.198C127.106 169.198 126.456 169.708 126.176 170.628H126.116L126.066 169.358H125.306V174.518ZM130.595 169.958H131.515V173.208C131.515 174.218 131.935 174.568 132.985 174.568C133.235 174.568 133.495 174.528 133.735 174.468V173.828C133.475 173.888 133.255 173.918 133.055 173.918C132.525 173.918 132.315 173.698 132.315 173.138V169.958H133.735V169.358H132.315V168.008H131.515V169.358H130.595V169.958ZM134.884 169.358V174.518H135.684V169.358H134.884ZM134.744 167.968C134.744 168.268 134.984 168.508 135.284 168.508C135.584 168.508 135.824 168.268 135.824 167.968C135.824 167.668 135.584 167.428 135.284 167.428C134.984 167.428 134.744 167.668 134.744 167.968ZM138.673 174.678C139.773 174.678 140.593 174.068 140.793 173.098H140.833L140.873 174.518H141.633V170.978C141.633 169.858 140.783 169.198 139.343 169.198C137.963 169.198 137.023 169.948 136.913 171.138H137.733C137.853 170.348 138.473 169.898 139.333 169.898C140.483 169.898 140.833 170.508 140.833 170.958C140.833 171.658 140.303 171.758 139.373 171.758H138.763C137.563 171.758 136.893 172.288 136.893 173.248C136.893 174.128 137.613 174.678 138.673 174.678ZM137.743 173.138C137.743 172.598 138.103 172.298 138.743 172.298H139.373C140.293 172.298 140.723 172.098 140.793 171.648H140.833V172.228C140.833 173.058 140.073 173.998 138.853 173.998C138.073 173.998 137.743 173.668 137.743 173.138Z" fill="white"/>
<path d="M249.745 168.451L252.745 171.951L249.745 175.451" stroke="white"/>
<path fill-rule="evenodd" clip-rule="evenodd" d="M46.3332 170.369C46.3332 173.397 44.0578 176.227 40.9998 176.915C37.9418 176.227 35.6665 173.397 35.6665 170.369V167.991C35.6665 167.45 35.9938 166.962 36.4952 166.757L39.8285 165.393C40.5792 165.086 41.4205 165.086 42.1712 165.393L45.5045 166.757C46.0058 166.963 46.3332 167.45 46.3332 167.991V170.369V170.369Z" stroke="white" stroke-linecap="round" stroke-linejoin="round"/>
<path d="M43.1665 169.665L40.6665 172.165L39.1665 170.665" stroke="white" stroke-linecap="round" stroke-linejoin="round"/>
<path d="M68.95 222.435H69.94L72.66 215.435H71.78L70.6 218.545C70.23 219.535 69.86 220.515 69.48 221.495H69.42C69.06 220.515 68.69 219.535 68.33 218.565L67.17 215.435H66.29L68.95 222.435ZM73.4104 217.275V222.435H74.2104V217.275H73.4104ZM73.2704 215.885C73.2704 216.185 73.5104 216.425 73.8104 216.425C74.1104 216.425 74.3504 216.185 74.3504 215.885C74.3504 215.585 74.1104 215.345 73.8104 215.345C73.5104 215.345 73.2704 215.585 73.2704 215.885ZM75.2744 219.865C75.2744 221.515 76.2044 222.615 77.6044 222.615C78.4944 222.615 79.1744 222.095 79.5044 221.155H79.5444L79.5844 222.435H80.3444V215.435H79.5444V218.575H79.5044C79.1744 217.635 78.4944 217.115 77.6044 217.115C76.2044 217.115 75.2744 218.215 75.2744 219.865ZM76.0844 219.865C76.0844 218.645 76.7744 217.835 77.8144 217.835C78.8544 217.835 79.5444 218.645 79.5444 219.605V220.125C79.5444 221.085 78.8544 221.895 77.8144 221.895C76.7744 221.895 76.0844 221.085 76.0844 219.865ZM84.0332 222.595C85.3132 222.595 86.2632 221.805 86.4132 220.625H85.5932C85.4432 221.335 84.8932 221.895 84.0332 221.895C83.0332 221.895 82.2932 221.235 82.2732 219.985H86.4332C86.4432 219.855 86.4532 219.735 86.4532 219.615C86.4532 218.155 85.4132 217.115 84.0132 217.115C82.5132 217.115 81.4732 218.105 81.4732 219.835C81.4732 221.695 82.5432 222.595 84.0332 222.595ZM82.2732 219.425C82.3432 218.365 83.0532 217.815 83.9832 217.815C84.9732 217.815 85.5732 218.455 85.6332 219.425H82.2732ZM90.0202 222.595C91.4302 222.595 92.7102 221.535 92.7102 219.835C92.7102 218.175 91.4302 217.115 90.0202 217.115C88.6102 217.115 87.3302 218.175 87.3302 219.835C87.3302 221.535 88.6102 222.595 90.0202 222.595ZM88.1502 219.835C88.1502 218.595 88.9202 217.835 90.0202 217.835C91.1202 217.835 91.8902 218.595 91.8902 219.835C91.8902 221.105 91.1202 221.875 90.0202 221.875C88.9202 221.875 88.1502 221.105 88.1502 219.835Z" fill="white"/>
<path d="M248.767 215.088L253.188 219.509L248.767 223.931" stroke="white" stroke-width="1.29052"/>
<path fill-rule="evenodd" clip-rule="evenodd" d="M41.75 222.748H36.5C35.6713 222.748 35 222.077 35 221.248V216.581C35 215.753 35.6713 215.081 36.5 215.081H41.75C42.5787 215.081 43.25 215.753 43.25 216.581V221.248C43.25 222.077 42.5787 222.748 41.75 222.748Z" stroke="white" stroke-linecap="round" stroke-linejoin="round"/>
<path d="M43.25 219.646L45.78 221.682C46.2707 222.077 47 221.728 47 221.098V216.731C47 216.101 46.2707 215.752 45.78 216.147L43.25 218.183" stroke="white" stroke-linecap="round" stroke-linejoin="round"/>
<path d="M67.17 270.352L67.98 268.332H71.35L72.18 270.352H73.06L70.14 263.352H69.15L66.29 270.352H67.17ZM68.29 267.572L68.83 266.222C69.1 265.542 69.37 264.872 69.62 264.192H69.68C69.94 264.852 70.2 265.522 70.47 266.182L71.04 267.572H68.29ZM74.7527 270.352H75.6127L77.7227 265.192H76.8727L76.1527 267.032C75.8127 267.892 75.5327 268.582 75.2027 269.392H75.1627C74.8327 268.582 74.5527 267.892 74.2127 267.032L73.4927 265.192H72.6427L74.7527 270.352ZM79.7778 270.512C80.8778 270.512 81.6978 269.902 81.8978 268.932H81.9378L81.9778 270.352H82.7378V266.812C82.7378 265.692 81.8878 265.032 80.4478 265.032C79.0678 265.032 78.1278 265.782 78.0178 266.972H78.8378C78.9578 266.182 79.5778 265.732 80.4378 265.732C81.5878 265.732 81.9378 266.342 81.9378 266.792C81.9378 267.492 81.4078 267.592 80.4778 267.592H79.8678C78.6678 267.592 77.9978 268.122 77.9978 269.082C77.9978 269.962 78.7178 270.512 79.7778 270.512ZM78.8478 268.972C78.8478 268.432 79.2078 268.132 79.8478 268.132H80.4778C81.3978 268.132 81.8278 267.932 81.8978 267.482H81.9378V268.062C81.9378 268.892 81.1778 269.832 79.9578 269.832C79.1778 269.832 78.8478 269.502 78.8478 268.972ZM84.047 263.352V270.352H84.847V263.352H84.047ZM86.3233 265.192V270.352H87.1233V265.192H86.3233ZM86.1833 263.802C86.1833 264.102 86.4233 264.342 86.7233 264.342C87.0233 264.342 87.2633 264.102 87.2633 263.802C87.2633 263.502 87.0233 263.262 86.7233 263.262C86.4233 263.262 86.1833 263.502 86.1833 263.802ZM90.1126 270.512C91.2126 270.512 92.0326 269.902 92.2326 268.932H92.2726L92.3126 270.352H93.0726V266.812C93.0726 265.692 92.2226 265.032 90.7826 265.032C89.4026 265.032 88.4626 265.782 88.3526 266.972H89.1726C89.2926 266.182 89.9126 265.732 90.7726 265.732C91.9226 265.732 92.2726 266.342 92.2726 266.792C92.2726 267.492 91.7426 267.592 90.8126 267.592H90.2026C89.0026 267.592 88.3326 268.122 88.3326 269.082C88.3326 269.962 89.0526 270.512 90.1126 270.512ZM89.1826 268.972C89.1826 268.432 89.5426 268.132 90.1826 268.132H90.8126C91.7326 268.132 92.1626 267.932 92.2326 267.482H92.2726V268.062C92.2726 268.892 91.5126 269.832 90.2926 269.832C89.5126 269.832 89.1826 269.502 89.1826 268.972ZM96.3717 272.502C97.0217 272.502 97.5817 272.212 97.5817 271.562C97.5817 271.172 97.2317 270.832 96.6817 270.832H96.6017V270.802C96.7817 270.752 96.9217 270.642 96.9817 270.492C98.1517 270.382 98.9617 269.602 99.0717 268.472H98.2417C98.1417 269.242 97.5517 269.792 96.6717 269.792C95.6417 269.792 94.9717 268.922 94.9717 267.712C94.9717 266.532 95.6417 265.752 96.6717 265.752C97.5317 265.752 98.1117 266.232 98.2317 266.972H99.0617C98.8917 265.802 97.9617 265.032 96.6717 265.032C95.1617 265.032 94.1517 266.112 94.1517 267.732C94.1517 269.272 95.0117 270.342 96.3317 270.492C96.2817 270.662 96.1417 270.792 95.9317 270.862V271.242C96.3817 271.182 96.8117 271.262 96.8117 271.582C96.8117 271.882 96.5417 272.012 96.1917 272.012C96.0017 272.012 95.8017 271.972 95.6017 271.902V272.372C95.8517 272.452 96.1217 272.502 96.3717 272.502ZM102.542 270.512C103.952 270.512 105.232 269.452 105.232 267.752C105.232 266.092 103.952 265.032 102.542 265.032C101.132 265.032 99.8525 266.092 99.8525 267.752C99.8525 269.452 101.132 270.512 102.542 270.512ZM100.672 267.752C100.672 266.512 101.442 265.752 102.542 265.752C103.642 265.752 104.412 266.512 104.412 267.752C104.412 269.022 103.642 269.792 102.542 269.792C101.442 269.792 100.672 269.022 100.672 267.752ZM100.842 264.582H101.522C101.442 264.342 101.512 264.082 101.802 264.082C101.952 264.082 102.042 264.112 102.522 264.352C102.862 264.522 103.062 264.602 103.312 264.602C103.952 264.602 104.392 264.122 104.202 263.412H103.522C103.602 263.652 103.532 263.912 103.242 263.912C103.092 263.912 103.012 263.892 102.522 263.642C102.162 263.462 102.012 263.402 101.722 263.402C101.062 263.402 100.662 263.912 100.842 264.582ZM108.699 270.512C109.979 270.512 110.929 269.722 111.079 268.542H110.259C110.109 269.252 109.559 269.812 108.699 269.812C107.699 269.812 106.959 269.152 106.939 267.902H111.099C111.109 267.772 111.119 267.652 111.119 267.532C111.119 266.072 110.079 265.032 108.679 265.032C107.179 265.032 106.139 266.022 106.139 267.752C106.139 269.612 107.209 270.512 108.699 270.512ZM106.939 267.342C107.009 266.282 107.719 265.732 108.649 265.732C109.639 265.732 110.239 266.372 110.299 267.342H106.939ZM114.403 270.512C115.713 270.512 116.543 269.902 116.543 268.942C116.543 267.882 115.633 267.612 114.723 267.442L114.143 267.332C113.483 267.212 112.953 267.052 112.953 266.542C112.953 266.042 113.413 265.732 114.213 265.732C115.033 265.732 115.573 266.152 115.573 266.832H116.393C116.393 265.722 115.533 265.032 114.213 265.032C112.913 265.032 112.153 265.622 112.153 266.572C112.153 267.622 113.063 267.882 113.963 268.042L114.593 268.152C115.223 268.262 115.723 268.452 115.723 268.972C115.723 269.492 115.213 269.812 114.403 269.812C113.463 269.812 112.913 269.422 112.843 268.712H112.023C112.093 269.852 112.953 270.512 114.403 270.512Z" fill="white"/>
<path d="M248.767 263.005L253.188 267.427L248.767 271.848" stroke="white" stroke-width="1.29052"/>
<path fill-rule="evenodd" clip-rule="evenodd" d="M36.9983 260.912C36.9983 262.386 35.8039 263.58 34.3306 263.58C35.8039 263.58 36.9983 264.775 36.9983 266.248C36.9983 264.775 38.1927 263.58 39.6661 263.58C38.1927 263.58 36.9983 262.386 36.9983 260.912Z" stroke="white" stroke-linecap="round" stroke-linejoin="round"/>
<path fill-rule="evenodd" clip-rule="evenodd" d="M44.3347 268.916C44.3347 267.074 42.8417 265.581 41 265.581C42.8417 265.581 44.3347 264.088 44.3347 262.246C44.3347 264.088 45.8277 265.581 47.6694 265.581C45.8277 265.581 44.3347 267.074 44.3347 268.916Z" stroke="white" stroke-linecap="round" stroke-linejoin="round"/>
<path d="M44.3344 268.916V269.583" stroke="white" stroke-linecap="round" stroke-linejoin="round"/>
<path d="M44.3344 262.246V261.579" stroke="white" stroke-linecap="round" stroke-linejoin="round"/>
<path d="M39.666 272.917V273.584" stroke="white" stroke-linecap="round" stroke-linejoin="round"/>
<path d="M39.666 268.249V267.582" stroke="white" stroke-linecap="round" stroke-linejoin="round"/>
<path d="M36.998 266.248V266.915" stroke="white" stroke-linecap="round" stroke-linejoin="round"/>
<path d="M36.998 260.245V260.912" stroke="white" stroke-linecap="round" stroke-linejoin="round"/>
<path fill-rule="evenodd" clip-rule="evenodd" d="M39.6658 267.915C39.6658 269.389 38.4714 270.583 36.998 270.583C38.4714 270.583 39.6658 271.777 39.6658 273.251C39.6658 271.777 40.8602 270.583 42.3336 270.583C40.8602 270.583 39.6658 269.389 39.6658 267.915Z" stroke="white" stroke-linecap="round" stroke-linejoin="round"/>
<rect x="474" y="91" width="107" height="33" rx="4" fill="url(#paint1_linear_1252_2597)"/>
<path d="M524.436 109.92H523.347V105.78H524.436C525.498 105.78 526.29 106.356 526.29 107.85C526.29 109.29 525.516 109.92 524.436 109.92ZM521.97 111H524.481C526.281 111 527.712 110.118 527.712 107.85C527.712 105.681 526.29 104.7 524.481 104.7H521.97V111ZM531.022 111.144C532.003 111.144 533.11 110.577 533.263 109.389H532.138C532.03 109.839 531.607 110.181 531.022 110.181C530.293 110.181 529.78 109.722 529.753 108.939H533.281C533.29 108.804 533.299 108.678 533.299 108.552C533.299 107.184 532.309 106.212 530.941 106.212C529.474 106.212 528.538 107.175 528.538 108.66C528.538 110.271 529.501 111.144 531.022 111.144ZM529.753 108.246C529.798 107.562 530.275 107.175 530.941 107.175C531.598 107.175 532.012 107.598 532.048 108.246H529.753ZM536.386 111.144C537.772 111.144 538.564 110.613 538.564 109.677C538.564 108.696 537.673 108.444 536.845 108.282L536.323 108.183C535.81 108.084 535.405 107.967 535.405 107.616C535.405 107.292 535.72 107.103 536.26 107.103C536.836 107.103 537.187 107.391 537.187 107.895H538.402C538.402 106.824 537.583 106.212 536.197 106.212C534.937 106.212 534.145 106.788 534.145 107.652C534.145 108.642 535.027 108.903 535.846 109.056L536.386 109.155C536.899 109.245 537.295 109.38 537.295 109.722C537.295 110.055 536.962 110.253 536.404 110.253C535.711 110.253 535.324 109.983 535.297 109.479H534.046C534.073 110.55 534.901 111.144 536.386 111.144ZM539.38 111H540.631V109.749L541.216 109.173H541.414C541.855 109.173 542.116 109.443 542.305 109.893L542.782 111H544.104L543.331 109.263C543.07 108.66 542.737 108.354 542.089 108.309L542.08 108.264C542.35 108.03 542.791 107.634 543.169 107.265L544.096 106.356H542.62L541.522 107.436C541.225 107.724 540.892 108.084 540.64 108.39L540.595 108.372C540.622 107.886 540.631 107.346 540.631 106.806V104.7H539.38V111ZM544.505 107.148H545.225V109.578C545.225 110.649 545.693 111.072 546.827 111.072C547.133 111.072 547.475 111.018 547.817 110.901V109.983C547.565 110.046 547.331 110.091 547.151 110.091C546.674 110.091 546.512 109.902 546.512 109.398V107.148H547.817V106.356H546.485V105.141H545.225V106.356H544.505V107.148ZM550.825 111.144C552.229 111.144 553.363 110.199 553.363 108.66C553.363 107.157 552.229 106.212 550.825 106.212C549.421 106.212 548.296 107.157 548.296 108.66C548.296 110.199 549.421 111.144 550.825 111.144ZM549.583 108.66C549.583 107.688 550.06 107.184 550.825 107.184C551.59 107.184 552.067 107.688 552.067 108.66C552.067 109.659 551.59 110.172 550.825 110.172C550.06 110.172 549.583 109.659 549.583 108.66ZM554.286 112.656H555.564V109.938H555.609C555.906 110.712 556.518 111.144 557.328 111.144C558.471 111.144 559.299 110.19 559.299 108.678C559.299 107.157 558.471 106.212 557.328 106.212C556.518 106.212 555.906 106.644 555.609 107.427H555.564L555.519 106.356H554.286V112.656ZM555.564 108.957V108.408C555.564 107.661 556.041 107.103 556.779 107.103C557.517 107.103 558.012 107.679 558.012 108.678C558.012 109.677 557.517 110.253 556.779 110.253C556.041 110.253 555.564 109.695 555.564 108.957Z" fill="white"/>
<path fill-rule="evenodd" clip-rule="evenodd" d="M505.667 111.333H497.667C497.299 111.333 497 111.035 497 110.667V105.333C497 104.965 497.299 104.667 497.667 104.667H505.667C506.035 104.667 506.333 104.965 506.333 105.333V110.667C506.333 111.035 506.035 111.333 505.667 111.333Z" stroke="white" stroke-linecap="round" stroke-linejoin="round"/>
<path d="M499.333 113.333H504" stroke="white" stroke-linecap="round" stroke-linejoin="round"/>
<path d="M506.167 113.333H508.333C508.701 113.333 509 113.035 509 112.667V102.667C509 102.299 508.701 102 508.333 102H504C503.632 102 503.333 102.299 503.333 102.667V104.125" stroke="white" stroke-linecap="round" stroke-linejoin="round"/>
<path d="M501.667 111.333V113.333" stroke="white" stroke-linecap="round" stroke-linejoin="round"/>
<rect x="356.5" y="90.5" width="103" height="34" rx="4.5" stroke="url(#paint2_linear_1252_2597)"/>
<path d="M403.82 111H405.161V108.201C405.161 107.508 405.17 106.824 405.161 106.122H405.215C405.422 106.806 405.656 107.499 405.872 108.183L406.808 111H407.906L408.833 108.192C409.067 107.499 409.292 106.815 409.508 106.122H409.553C409.544 106.824 409.553 107.517 409.553 108.21V111H410.903V104.7H408.896L407.987 107.283C407.78 107.886 407.582 108.48 407.393 109.083H407.33C407.132 108.471 406.925 107.868 406.718 107.256L405.818 104.7H403.82V111ZM414.402 111.144C415.806 111.144 416.94 110.199 416.94 108.66C416.94 107.157 415.806 106.212 414.402 106.212C412.998 106.212 411.873 107.157 411.873 108.66C411.873 110.199 412.998 111.144 414.402 111.144ZM413.16 108.66C413.16 107.688 413.637 107.184 414.402 107.184C415.167 107.184 415.644 107.688 415.644 108.66C415.644 109.659 415.167 110.172 414.402 110.172C413.637 110.172 413.16 109.659 413.16 108.66ZM417.863 111H419.096L419.141 109.938H419.186C419.483 110.712 420.095 111.144 420.905 111.144C422.048 111.144 422.876 110.19 422.876 108.678C422.876 107.157 422.048 106.212 420.905 106.212C420.095 106.212 419.483 106.644 419.186 107.427H419.141V104.7H417.863V111ZM419.141 108.957V108.408C419.141 107.661 419.618 107.103 420.356 107.103C421.094 107.103 421.589 107.679 421.589 108.678C421.589 109.677 421.094 110.253 420.356 110.253C419.618 110.253 419.141 109.695 419.141 108.957ZM423.921 106.356V111H425.208V106.356H423.921ZM423.804 104.997C423.804 105.402 424.146 105.735 424.56 105.735C424.974 105.735 425.307 105.411 425.307 104.997C425.307 104.574 424.974 104.25 424.56 104.25C424.146 104.25 423.804 104.592 423.804 104.997ZM426.441 104.7V111H427.728V104.7H426.441ZM431.144 111.144C432.125 111.144 433.232 110.577 433.385 109.389H432.26C432.152 109.839 431.729 110.181 431.144 110.181C430.415 110.181 429.902 109.722 429.875 108.939H433.403C433.412 108.804 433.421 108.678 433.421 108.552C433.421 107.184 432.431 106.212 431.063 106.212C429.596 106.212 428.66 107.175 428.66 108.66C428.66 110.271 429.623 111.144 431.144 111.144ZM429.875 108.246C429.92 107.562 430.397 107.175 431.063 107.175C431.72 107.175 432.134 107.598 432.17 108.246H429.875Z" fill="white"/>
<path d="M387.333 101.998V103.198C387.333 103.419 387.482 103.598 387.666 103.598H390.334C390.518 103.598 390.667 103.419 390.667 103.198V101.998" stroke="white" stroke-linecap="round" stroke-linejoin="round"/>
<path fill-rule="evenodd" clip-rule="evenodd" d="M386.332 101.998H391.667C392.404 101.998 393.001 102.594 393.001 103.331V112.669C393.001 113.406 392.404 114.003 391.667 114.003H386.332C385.595 114.003 384.998 113.406 384.998 112.669V103.331C384.998 102.594 385.595 101.998 386.332 101.998Z" stroke="white" stroke-linecap="round" stroke-linejoin="round"/>
<g filter="url(#filter1_b_1252_2597)">
<rect x="163" y="137.915" width="418" height="373.4" rx="8" fill="black" fill-opacity="0.2"/>
<rect x="163.5" y="138.415" width="417" height="372.4" rx="7.5" stroke="white" stroke-opacity="0.1"/>
</g>
<g opacity="0.5" filter="url(#filter2_b_1252_2597)">
<rect x="188.394" y="162.415" width="367.213" height="79.9032" rx="7.5" stroke="white" stroke-opacity="0.15"/>
</g>
<rect opacity="0.1" x="222" y="186.915" width="140.025" height="5" rx="2.5" fill="white"/>
<rect opacity="0.1" x="222" y="210.915" width="65" height="5" rx="2.5" fill="white"/>
<rect opacity="0.1" x="222" y="198.915" width="104" height="5" rx="2.5" fill="white"/>
<path fill-rule="evenodd" clip-rule="evenodd" d="M494.744 208.585H481.26C480.114 208.585 479.186 207.656 479.186 206.51V195.101C479.186 193.955 480.114 193.026 481.26 193.026H494.744C495.89 193.026 496.819 193.955 496.819 195.101V206.51C496.819 207.656 495.89 208.585 494.744 208.585Z" stroke="white" stroke-width="0.8" stroke-linecap="round" stroke-linejoin="round"/>
<path opacity="0.3" d="M490.591 211.696H478.149C477.003 211.696 476.074 210.768 476.074 209.622V198.626" stroke="white" stroke-width="0.8" stroke-linecap="round" stroke-linejoin="round"/>
<path opacity="0.3" d="M485.768 196.99C486.443 197.665 486.443 198.76 485.768 199.435C485.092 200.11 483.998 200.11 483.322 199.435C482.647 198.76 482.647 197.665 483.322 196.99C483.998 196.315 485.092 196.315 485.768 196.99" stroke="white" stroke-width="0.8" stroke-linecap="round" stroke-linejoin="round"/>
<path d="M496.819 204.263L493.307 201.453C492.859 201.095 492.206 201.168 491.848 201.615L489.18 204.949C488.823 205.396 488.17 205.469 487.722 205.111L486.375 204.033C485.934 203.681 485.292 203.745 484.93 204.18L481.26 208.585" stroke="white" stroke-width="0.8" stroke-linecap="round" stroke-linejoin="round"/>
<g opacity="0.5" filter="url(#filter3_b_1252_2597)">
<rect x="440.5" y="258.732" width="115.169" height="227.189" rx="7.5" stroke="white" stroke-opacity="0.15"/>
</g>
<rect opacity="0.1" x="457" y="298.915" width="51" height="5" rx="2.5" fill="white"/>
<rect opacity="0.1" x="457" y="276.915" width="81" height="5" rx="2.5" fill="white"/>
<rect opacity="0.1" x="457" y="287.915" width="71" height="5" rx="2.5" fill="white"/>
<path fill-rule="evenodd" clip-rule="evenodd" d="M506.744 399.295H493.26C492.114 399.295 491.186 398.366 491.186 397.22V385.811C491.186 384.665 492.114 383.736 493.26 383.736H506.744C507.89 383.736 508.819 384.665 508.819 385.811V397.22C508.819 398.366 507.89 399.295 506.744 399.295Z" stroke="white" stroke-width="0.8" stroke-linecap="round" stroke-linejoin="round"/>
<path opacity="0.3" d="M502.591 402.406H490.149C489.003 402.406 488.074 401.478 488.074 400.332V389.336" stroke="white" stroke-width="0.8" stroke-linecap="round" stroke-linejoin="round"/>
<path opacity="0.3" d="M497.768 387.7C498.443 388.375 498.443 389.47 497.768 390.145C497.092 390.82 495.998 390.82 495.322 390.145C494.647 389.47 494.647 388.375 495.322 387.7C495.998 387.024 497.092 387.024 497.768 387.7" stroke="white" stroke-width="0.8" stroke-linecap="round" stroke-linejoin="round"/>
<path d="M508.819 394.972L505.307 392.163C504.859 391.805 504.206 391.877 503.848 392.324L501.18 395.659C500.823 396.106 500.17 396.179 499.722 395.821L498.375 394.743C497.934 394.391 497.292 394.455 496.93 394.889L493.26 399.295" stroke="white" stroke-width="0.8" stroke-linecap="round" stroke-linejoin="round"/>
<g opacity="0.5" filter="url(#filter4_b_1252_2597)">
<rect x="188.5" y="258.732" width="234.449" height="227.189" rx="7.5" stroke="white" stroke-opacity="0.15"/>
</g>
<g opacity="0.5" filter="url(#filter5_b_1252_2597)">
<rect x="208.5" y="274.415" width="195.035" height="29.0794" rx="7.5" stroke="white" stroke-opacity="0.15"/>
</g>
<path opacity="0.5" d="M222.474 291.915H222.978V290.283H224.106C224.91 290.283 225.576 289.869 225.576 288.999C225.576 288.009 224.91 287.715 224.106 287.715H222.474V291.915ZM222.978 289.827V288.171H224.016C224.598 288.171 225.066 288.339 225.066 288.999C225.066 289.635 224.598 289.827 224.016 289.827H222.978ZM226.217 291.915H226.697V290.811C226.697 290.229 226.799 289.803 227.063 289.539C227.273 289.329 227.579 289.221 228.011 289.203V288.771C227.243 288.771 226.859 289.113 226.721 289.773H226.697L226.679 288.819H226.217V291.915ZM229.777 292.011C230.545 292.011 231.115 291.537 231.205 290.829H230.713C230.623 291.255 230.293 291.591 229.777 291.591C229.177 291.591 228.733 291.195 228.721 290.445H231.217C231.223 290.367 231.229 290.295 231.229 290.223C231.229 289.347 230.605 288.723 229.765 288.723C228.865 288.723 228.241 289.317 228.241 290.355C228.241 291.471 228.883 292.011 229.777 292.011ZM228.721 290.109C228.763 289.473 229.189 289.143 229.747 289.143C230.341 289.143 230.701 289.527 230.737 290.109H228.721ZM233.327 292.011C234.125 292.011 234.695 291.525 234.767 290.787H234.269C234.209 291.249 233.855 291.579 233.327 291.579C232.709 291.579 232.307 291.057 232.307 290.331C232.307 289.623 232.709 289.155 233.327 289.155C233.843 289.155 234.191 289.443 234.263 289.887H234.761C234.659 289.185 234.101 288.723 233.327 288.723C232.421 288.723 231.815 289.371 231.815 290.343C231.815 291.345 232.421 292.011 233.327 292.011ZM235.518 288.819V291.915H235.998V288.819H235.518ZM235.434 287.985C235.434 288.165 235.578 288.309 235.758 288.309C235.938 288.309 236.082 288.165 236.082 287.985C236.082 287.805 235.938 287.661 235.758 287.661C235.578 287.661 235.434 287.805 235.434 287.985ZM238.199 292.011C238.985 292.011 239.483 291.645 239.483 291.069C239.483 290.433 238.937 290.271 238.391 290.169L238.043 290.103C237.647 290.031 237.329 289.935 237.329 289.629C237.329 289.329 237.605 289.143 238.085 289.143C238.577 289.143 238.901 289.395 238.901 289.803H239.393C239.393 289.137 238.877 288.723 238.085 288.723C237.305 288.723 236.849 289.077 236.849 289.647C236.849 290.277 237.395 290.433 237.935 290.529L238.313 290.595C238.691 290.661 238.991 290.775 238.991 291.087C238.991 291.399 238.685 291.591 238.199 291.591C237.635 291.591 237.305 291.357 237.263 290.931H236.771C236.813 291.615 237.329 292.011 238.199 292.011ZM241.203 292.011C241.863 292.011 242.355 291.645 242.475 291.063H242.499L242.523 291.915H242.979V289.791C242.979 289.119 242.469 288.723 241.605 288.723C240.777 288.723 240.213 289.173 240.147 289.887H240.639C240.711 289.413 241.083 289.143 241.599 289.143C242.289 289.143 242.499 289.509 242.499 289.779C242.499 290.199 242.181 290.259 241.623 290.259H241.257C240.537 290.259 240.135 290.577 240.135 291.153C240.135 291.681 240.567 292.011 241.203 292.011ZM240.645 291.087C240.645 290.763 240.861 290.583 241.245 290.583H241.623C242.175 290.583 242.433 290.463 242.475 290.193H242.499V290.541C242.499 291.039 242.043 291.603 241.311 291.603C240.843 291.603 240.645 291.405 240.645 291.087ZM245.081 290.373C245.081 291.363 245.639 292.023 246.479 292.023C247.013 292.023 247.421 291.711 247.619 291.147H247.643L247.667 291.915H248.123V287.715H247.643V289.599H247.619C247.421 289.035 247.013 288.723 246.479 288.723C245.639 288.723 245.081 289.383 245.081 290.373ZM245.567 290.373C245.567 289.641 245.981 289.155 246.605 289.155C247.229 289.155 247.643 289.641 247.643 290.217V290.529C247.643 291.105 247.229 291.591 246.605 291.591C245.981 291.591 245.567 291.105 245.567 290.373ZM250.396 292.011C251.164 292.011 251.734 291.537 251.824 290.829H251.332C251.242 291.255 250.912 291.591 250.396 291.591C249.796 291.591 249.352 291.195 249.34 290.445H251.836C251.842 290.367 251.848 290.295 251.848 290.223C251.848 289.347 251.224 288.723 250.384 288.723C249.484 288.723 248.86 289.317 248.86 290.355C248.86 291.471 249.502 292.011 250.396 292.011ZM249.34 290.109C249.382 289.473 249.808 289.143 250.366 289.143C250.96 289.143 251.32 289.527 251.356 290.109H249.34ZM255.312 292.011C256.11 292.011 256.68 291.525 256.752 290.787H256.254C256.194 291.249 255.84 291.579 255.312 291.579C254.694 291.579 254.292 291.057 254.292 290.331C254.292 289.623 254.694 289.155 255.312 289.155C255.828 289.155 256.176 289.443 256.248 289.887H256.746C256.644 289.185 256.086 288.723 255.312 288.723C254.406 288.723 253.8 289.371 253.8 290.343C253.8 291.345 254.406 292.011 255.312 292.011ZM258.546 292.011C259.086 292.011 259.476 291.705 259.644 291.153H259.68L259.71 291.915H260.166V288.819H259.68V290.415C259.68 291.105 259.302 291.567 258.738 291.567C258.24 291.567 257.91 291.231 257.91 290.721V288.819H257.43V290.877C257.43 291.555 257.874 292.011 258.546 292.011ZM261.051 293.019H261.531V291.147H261.555C261.753 291.711 262.161 292.023 262.695 292.023C263.535 292.023 264.093 291.363 264.093 290.373C264.093 289.383 263.535 288.723 262.695 288.723C262.161 288.723 261.753 289.035 261.555 289.599H261.531L261.507 288.819H261.051V293.019ZM261.531 290.529V290.217C261.531 289.641 261.945 289.155 262.569 289.155C263.193 289.155 263.607 289.641 263.607 290.373C263.607 291.105 263.193 291.591 262.569 291.591C261.945 291.591 261.531 291.105 261.531 290.529ZM266.312 292.011C267.158 292.011 267.926 291.375 267.926 290.355C267.926 289.359 267.158 288.723 266.312 288.723C265.466 288.723 264.698 289.359 264.698 290.355C264.698 291.375 265.466 292.011 266.312 292.011ZM265.19 290.355C265.19 289.611 265.652 289.155 266.312 289.155C266.972 289.155 267.434 289.611 267.434 290.355C267.434 291.117 266.972 291.579 266.312 291.579C265.652 291.579 265.19 291.117 265.19 290.355ZM268.669 291.915H269.155V290.289C269.155 289.563 269.545 289.167 270.037 289.167C270.499 289.167 270.805 289.503 270.805 290.013V291.915H271.285V290.319C271.285 289.629 271.639 289.167 272.173 289.167C272.635 289.167 272.941 289.503 272.941 290.013V291.915H273.421V289.857C273.421 289.179 273.001 288.723 272.365 288.723C271.849 288.723 271.453 289.023 271.297 289.569H271.255C271.153 289.053 270.769 288.723 270.229 288.723C269.713 288.723 269.341 289.023 269.185 289.569H269.155L269.119 288.819H268.663L268.669 291.915ZM274.989 290.817H275.451C275.475 290.289 275.523 290.169 275.973 289.791C276.363 289.467 276.597 289.161 276.597 288.729C276.597 288.003 276.033 287.613 275.265 287.613C274.437 287.613 273.873 288.033 273.861 289.023H274.347C274.377 288.333 274.683 288.063 275.283 288.063C275.775 288.063 276.093 288.285 276.093 288.735C276.093 289.041 275.859 289.281 275.571 289.533C275.109 289.941 274.989 290.163 274.989 290.817ZM274.869 291.657C274.869 291.867 275.019 292.011 275.211 292.011C275.421 292.011 275.571 291.867 275.571 291.657C275.571 291.465 275.421 291.321 275.211 291.321C275.019 291.321 274.869 291.465 274.869 291.657Z" fill="white"/>
<path d="M272.112 354.043C273.68 354.043 274.648 353.139 274.768 351.755H273.52C273.424 352.539 272.928 353.075 272.152 353.075C271.192 353.075 270.6 352.339 270.6 351.107C270.6 349.875 271.184 349.155 272.112 349.155C272.832 349.155 273.304 349.579 273.472 350.227H274.736C274.536 348.979 273.584 348.187 272.112 348.187C270.4 348.187 269.328 349.275 269.328 351.107C269.328 352.931 270.4 354.043 272.112 354.043ZM276.836 354.043C277.652 354.043 278.3 353.563 278.476 352.915H278.516L278.532 353.915H279.636V351.163C279.636 350.219 278.908 349.659 277.66 349.659C276.412 349.659 275.628 350.275 275.524 351.323H276.66C276.732 350.787 277.108 350.515 277.652 350.515C278.3 350.515 278.516 350.851 278.516 351.131C278.516 351.491 278.268 351.707 277.516 351.707H276.996C275.98 351.707 275.476 352.187 275.476 352.899C275.476 353.659 276.06 354.043 276.836 354.043ZM276.628 352.803C276.628 352.499 276.828 352.307 277.204 352.307H277.484C278.068 352.307 278.38 352.123 278.476 351.731H278.516V352.107C278.516 352.723 278.012 353.299 277.292 353.299C276.86 353.299 276.628 353.123 276.628 352.803ZM280.629 353.915H281.725L281.765 352.971H281.805C282.069 353.659 282.613 354.043 283.333 354.043C284.349 354.043 285.085 353.195 285.085 351.851C285.085 350.499 284.349 349.659 283.333 349.659C282.613 349.659 282.069 350.043 281.805 350.739H281.765V348.315H280.629V353.915ZM281.765 352.099V351.611C281.765 350.947 282.189 350.451 282.845 350.451C283.501 350.451 283.941 350.963 283.941 351.851C283.941 352.739 283.501 353.251 282.845 353.251C282.189 353.251 281.765 352.755 281.765 352.099ZM287.989 354.043C288.861 354.043 289.845 353.539 289.981 352.483H288.981C288.885 352.883 288.509 353.187 287.989 353.187C287.341 353.187 286.885 352.779 286.861 352.083H289.997C290.005 351.963 290.013 351.851 290.013 351.739C290.013 350.523 289.133 349.659 287.917 349.659C286.613 349.659 285.781 350.515 285.781 351.835C285.781 353.267 286.637 354.043 287.989 354.043ZM286.861 351.467C286.901 350.859 287.325 350.515 287.917 350.515C288.501 350.515 288.869 350.891 288.901 351.467H286.861ZM290.863 348.315V353.915H292.007V348.315H290.863ZM295.084 354.043C296.332 354.043 297.34 353.203 297.34 351.835C297.34 350.499 296.332 349.659 295.084 349.659C293.836 349.659 292.836 350.499 292.836 351.835C292.836 353.203 293.836 354.043 295.084 354.043ZM293.98 351.835C293.98 350.971 294.404 350.523 295.084 350.523C295.764 350.523 296.188 350.971 296.188 351.835C296.188 352.723 295.764 353.179 295.084 353.179C294.404 353.179 293.98 352.723 293.98 351.835ZM299.992 354.043C301.224 354.043 301.928 353.571 301.928 352.739C301.928 351.867 301.136 351.643 300.4 351.499L299.936 351.411C299.48 351.323 299.12 351.219 299.12 350.907C299.12 350.619 299.4 350.451 299.88 350.451C300.392 350.451 300.704 350.707 300.704 351.155H301.784C301.784 350.203 301.056 349.659 299.824 349.659C298.704 349.659 298 350.171 298 350.939C298 351.819 298.784 352.051 299.512 352.187L299.992 352.275C300.448 352.355 300.8 352.475 300.8 352.779C300.8 353.075 300.504 353.251 300.008 353.251C299.392 353.251 299.048 353.011 299.024 352.563H297.912C297.936 353.515 298.672 354.043 299.992 354.043ZM304.422 351.851C304.422 353.187 305.126 354.043 306.222 354.043C306.886 354.043 307.438 353.643 307.694 352.971H307.742L307.774 353.915H308.878V348.315H307.742V350.739H307.694C307.446 350.059 306.886 349.659 306.222 349.659C305.126 349.659 304.422 350.523 304.422 351.851ZM305.566 351.851C305.566 351.003 305.99 350.451 306.654 350.451C307.318 350.451 307.742 350.939 307.742 351.611V352.099C307.742 352.763 307.318 353.251 306.654 353.251C305.99 353.251 305.566 352.699 305.566 351.851ZM311.919 354.043C312.791 354.043 313.775 353.539 313.911 352.483H312.911C312.815 352.883 312.439 353.187 311.919 353.187C311.271 353.187 310.815 352.779 310.791 352.083H313.927C313.935 351.963 313.943 351.851 313.943 351.739C313.943 350.523 313.063 349.659 311.847 349.659C310.543 349.659 309.711 350.515 309.711 351.835C309.711 353.267 310.567 354.043 311.919 354.043ZM310.791 351.467C310.831 350.859 311.255 350.515 311.847 350.515C312.431 350.515 312.799 350.891 312.831 351.467H310.791ZM316.746 353.915H317.882V352.331C317.882 351.675 318.026 351.259 318.354 351.011C318.626 350.803 319.034 350.699 319.626 350.675V349.715C318.482 349.715 318.106 350.163 317.922 351.083H317.882L317.85 349.787H316.746V353.915ZM321.421 354.043C322.237 354.043 322.885 353.563 323.061 352.915H323.101L323.117 353.915H324.221V351.163C324.221 350.219 323.493 349.659 322.245 349.659C320.997 349.659 320.213 350.275 320.109 351.323H321.245C321.317 350.787 321.693 350.515 322.237 350.515C322.885 350.515 323.101 350.851 323.101 351.131C323.101 351.491 322.853 351.707 322.101 351.707H321.581C320.565 351.707 320.061 352.187 320.061 352.899C320.061 353.659 320.645 354.043 321.421 354.043ZM321.213 352.803C321.213 352.499 321.413 352.307 321.789 352.307H322.069C322.653 352.307 322.965 352.123 323.061 351.731H323.101V352.107C323.101 352.723 322.597 353.299 321.877 353.299C321.445 353.299 321.213 353.123 321.213 352.803ZM325.311 349.787V353.915H326.455V349.787H325.311ZM325.207 348.579C325.207 348.939 325.511 349.235 325.879 349.235C326.247 349.235 326.543 348.947 326.543 348.579C326.543 348.203 326.247 347.915 325.879 347.915C325.511 347.915 325.207 348.219 325.207 348.579ZM327.559 353.915H328.695V351.755C328.695 351.003 329.087 350.555 329.711 350.555C330.335 350.555 330.647 350.907 330.647 351.571V353.915H331.783V351.251C331.783 350.227 331.087 349.659 330.263 349.659C329.511 349.659 328.967 350.059 328.743 350.771H328.695L328.663 349.787H327.559V353.915ZM332.793 353.915H333.929V351.755C333.929 351.003 334.321 350.555 334.945 350.555C335.569 350.555 335.881 350.907 335.881 351.571V353.915H337.017V351.251C337.017 350.227 336.321 349.659 335.497 349.659C334.745 349.659 334.201 350.059 333.977 350.771H333.929V348.315H332.793V353.915ZM339.171 354.043C339.987 354.043 340.635 353.563 340.811 352.915H340.851L340.867 353.915H341.971V351.163C341.971 350.219 341.243 349.659 339.995 349.659C338.747 349.659 337.963 350.275 337.859 351.323H338.995C339.067 350.787 339.443 350.515 339.987 350.515C340.635 350.515 340.851 350.851 340.851 351.131C340.851 351.491 340.603 351.707 339.851 351.707H339.331C338.315 351.707 337.811 352.187 337.811 352.899C337.811 353.659 338.395 354.043 339.171 354.043ZM338.963 352.803C338.963 352.499 339.163 352.307 339.539 352.307H339.819C340.403 352.307 340.715 352.123 340.811 351.731H340.851V352.107C340.851 352.723 340.347 353.299 339.627 353.299C339.195 353.299 338.963 353.123 338.963 352.803Z" fill="white"/>
<path opacity="0.8" d="M269.702 368.915L270.188 367.703H272.21L272.708 368.915H273.236L271.484 364.715H270.89L269.174 368.915H269.702ZM270.374 367.247L270.698 366.437C270.86 366.029 271.022 365.627 271.172 365.219H271.208C271.364 365.615 271.52 366.017 271.682 366.413L272.024 367.247H270.374ZM273.317 366.179H273.869V368.129C273.869 368.735 274.121 368.945 274.751 368.945C274.901 368.945 275.057 368.921 275.201 368.885V368.501C275.045 368.537 274.913 368.555 274.793 368.555C274.475 368.555 274.349 368.423 274.349 368.087V366.179H275.201V365.819H274.349V365.009H273.869V365.819H273.317V366.179ZM277.082 369.011C277.85 369.011 278.42 368.537 278.51 367.829H278.018C277.928 368.255 277.598 368.591 277.082 368.591C276.482 368.591 276.038 368.195 276.026 367.445H278.522C278.528 367.367 278.534 367.295 278.534 367.223C278.534 366.347 277.91 365.723 277.07 365.723C276.17 365.723 275.546 366.317 275.546 367.355C275.546 368.471 276.188 369.011 277.082 369.011ZM276.026 367.109C276.068 366.473 276.494 366.143 277.052 366.143C277.646 366.143 278.006 366.527 278.042 367.109H276.026ZM276.29 365.099L276.428 365.459L278.114 364.853L277.97 364.469L276.29 365.099ZM281.451 365.759H281.487V368.915H282.405V364.715H281.673C281.469 365.123 281.103 365.303 280.461 365.303V366.131C280.971 366.131 281.247 366.017 281.451 365.759ZM283.146 368.159V368.915H286.254V368.153H285.252C284.844 368.153 284.58 368.153 284.28 368.189L284.268 368.147C285.294 367.445 286.308 366.851 286.308 365.891C286.314 365.063 285.654 364.625 284.772 364.625C283.878 364.625 283.26 365.039 283.194 365.951H284.082C284.13 365.525 284.388 365.327 284.772 365.327C285.15 365.327 285.396 365.543 285.396 365.915C285.396 366.575 284.502 367.163 283.146 368.159ZM286.715 368.915H287.669L287.855 368.651C288.023 368.405 288.155 368.213 288.323 367.937H288.353C288.521 368.213 288.647 368.399 288.815 368.651L289.001 368.915H289.973L288.821 367.325L289.919 365.819H288.959L288.827 365.993C288.659 366.239 288.527 366.449 288.371 366.713H288.335C288.179 366.449 288.047 366.251 287.885 366.005L287.747 365.819H286.775L287.855 367.331L286.715 368.915ZM291.735 367.373C291.735 368.363 292.293 369.023 293.133 369.023C293.667 369.023 294.075 368.711 294.273 368.147H294.297L294.321 368.915H294.777V364.715H294.297V366.599H294.273C294.075 366.035 293.667 365.723 293.133 365.723C292.293 365.723 291.735 366.383 291.735 367.373ZM292.221 367.373C292.221 366.641 292.635 366.155 293.259 366.155C293.883 366.155 294.297 366.641 294.297 367.217V367.529C294.297 368.105 293.883 368.591 293.259 368.591C292.635 368.591 292.221 368.105 292.221 367.373ZM297.051 369.011C297.819 369.011 298.389 368.537 298.479 367.829H297.987C297.897 368.255 297.567 368.591 297.051 368.591C296.451 368.591 296.007 368.195 295.995 367.445H298.491C298.497 367.367 298.503 367.295 298.503 367.223C298.503 366.347 297.879 365.723 297.039 365.723C296.139 365.723 295.515 366.317 295.515 367.355C295.515 368.471 296.157 369.011 297.051 369.011ZM295.995 367.109C296.037 366.473 296.463 366.143 297.021 366.143C297.615 366.143 297.975 366.527 298.011 367.109H295.995ZM300.586 368.915H301.504V367.409H302.356C302.878 367.409 303.022 367.505 303.088 367.955L303.238 368.915H304.18L303.97 367.685C303.874 367.121 303.64 366.899 303.1 366.863V366.821C303.64 366.785 304.072 366.365 304.072 365.765C304.072 365.105 303.586 364.715 302.746 364.715H300.586V368.915ZM301.504 366.755V365.435H302.458C302.902 365.435 303.172 365.675 303.172 366.065C303.172 366.485 302.89 366.755 302.458 366.755H301.504ZM304.601 367.553C304.583 368.399 305.189 368.927 306.245 368.999V369.647H306.737V368.999C307.739 368.933 308.327 368.471 308.327 367.697C308.327 366.845 307.595 366.647 306.899 366.503L306.743 366.473V365.381C307.109 365.459 307.337 365.711 307.349 366.095H308.237C308.219 365.243 307.661 364.721 306.743 364.637V363.983H306.251V364.631C305.273 364.691 304.697 365.159 304.697 365.837C304.697 366.767 305.477 366.983 306.191 367.127L306.251 367.139L306.245 368.261C305.795 368.195 305.531 367.949 305.501 367.553H304.601ZM305.627 365.855C305.627 365.585 305.855 365.405 306.251 365.363V366.365C305.891 366.275 305.627 366.149 305.627 365.855ZM306.737 368.273L306.743 367.241C307.121 367.331 307.397 367.457 307.397 367.739C307.397 368.045 307.163 368.231 306.737 368.273ZM311.252 365.759H311.288V368.915H312.206V364.715H311.474C311.27 365.123 310.904 365.303 310.262 365.303V366.131C310.772 366.131 311.048 366.017 311.252 365.759ZM312.947 368.159V368.915H316.055V368.153H315.053C314.645 368.153 314.381 368.153 314.081 368.189L314.069 368.147C315.095 367.445 316.109 366.851 316.109 365.891C316.115 365.063 315.455 364.625 314.573 364.625C313.679 364.625 313.061 365.039 312.995 365.951H313.883C313.931 365.525 314.189 365.327 314.573 365.327C314.951 365.327 315.197 365.543 315.197 365.915C315.197 366.575 314.303 367.163 312.947 368.159ZM317.098 367.961L316.72 369.917H317.332L317.974 367.961H317.098ZM320.225 369.005C321.449 369.005 321.995 368.153 321.995 366.815C321.995 365.495 321.461 364.619 320.225 364.619C318.983 364.619 318.437 365.483 318.437 366.815C318.437 368.135 318.965 369.005 320.225 369.005ZM319.391 366.815C319.391 365.813 319.637 365.321 320.225 365.321C320.777 365.321 321.041 365.813 321.041 366.815C321.041 367.811 320.777 368.303 320.225 368.303C319.637 368.303 319.391 367.811 319.391 366.815ZM323.402 367.703H322.55C322.61 368.561 323.276 369.011 324.188 369.011C325.034 369.011 325.778 368.459 325.778 367.523C325.778 366.653 325.208 366.119 324.446 366.119C323.984 366.119 323.654 366.347 323.54 366.629L323.504 366.623L323.726 365.417H325.562V364.715H323.006L322.634 367.025L323.438 367.199C323.57 366.893 323.804 366.755 324.164 366.755C324.608 366.755 324.908 367.073 324.908 367.553C324.908 368.045 324.632 368.339 324.176 368.339C323.732 368.339 323.444 368.117 323.402 367.703Z" fill="white"/>
<path opacity="0.8" d="M271.346 379.011C272.534 379.011 273.398 378.153 273.398 376.797C273.398 375.459 272.534 374.619 271.346 374.619C270.158 374.619 269.294 375.459 269.294 376.797C269.294 378.153 270.158 379.011 271.346 379.011ZM269.81 376.797C269.81 375.747 270.464 375.087 271.346 375.087C272.228 375.087 272.882 375.747 272.882 376.797C272.882 377.865 272.228 378.543 271.346 378.543C270.464 378.543 269.81 377.865 269.81 376.797ZM275.224 379.011C275.764 379.011 276.154 378.705 276.322 378.153H276.358L276.388 378.915H276.844V375.819H276.358V377.415C276.358 378.105 275.98 378.567 275.416 378.567C274.918 378.567 274.588 378.231 274.588 377.721V375.819H274.108V377.877C274.108 378.555 274.552 379.011 275.224 379.011ZM279.124 378.915H279.628V377.217H280.9C281.428 377.217 281.59 377.331 281.674 377.793L281.884 378.915H282.4L282.148 377.655C282.046 377.139 281.854 376.905 281.422 376.869V376.833C281.908 376.779 282.304 376.359 282.304 375.771C282.304 375.135 281.794 374.715 280.978 374.715H279.124V378.915ZM279.628 376.761V375.171H280.9C281.476 375.171 281.794 375.435 281.794 375.915C281.794 376.431 281.44 376.761 280.888 376.761H279.628ZM282.899 377.577C282.899 378.387 283.529 378.933 284.519 378.999V379.653H284.909V378.999C285.845 378.945 286.433 378.471 286.433 377.751C286.433 376.941 285.725 376.731 285.017 376.581L284.891 376.557V375.099C285.449 375.171 285.809 375.525 285.809 376.059H286.331C286.331 375.237 285.761 374.697 284.891 374.625V373.989H284.507V374.625C283.601 374.679 283.037 375.099 283.037 375.747C283.037 376.605 283.757 376.821 284.471 376.965L284.531 376.977L284.525 378.531C283.847 378.471 283.421 378.117 283.421 377.583L282.899 377.577ZM283.559 375.765C283.559 375.387 283.919 375.135 284.507 375.093V376.473C283.985 376.359 283.559 376.203 283.559 375.765ZM284.909 378.531L284.915 377.055L284.939 377.061C285.479 377.169 285.911 377.331 285.911 377.775C285.911 378.225 285.557 378.489 284.909 378.531ZM289.411 375.417H289.441V378.915H289.945V374.715H289.531C289.351 375.099 288.901 375.345 288.391 375.345V375.837C288.853 375.837 289.183 375.705 289.411 375.417ZM290.782 378.495L290.788 378.915H293.584V378.465H292.486C292.156 378.465 291.832 378.465 291.46 378.489L291.448 378.453C292.678 377.379 293.56 376.749 293.56 375.831C293.56 375.093 293.014 374.619 292.21 374.619C291.442 374.619 290.884 375.033 290.836 375.873H291.334C291.376 375.303 291.718 375.069 292.21 375.069C292.714 375.069 293.05 375.339 293.05 375.831C293.05 376.509 292.228 377.139 290.782 378.495ZM295.724 379.005C296.732 379.005 297.296 378.285 297.296 376.815C297.296 375.345 296.732 374.619 295.724 374.619C294.716 374.619 294.152 375.345 294.152 376.815C294.152 378.285 294.716 379.005 295.724 379.005ZM294.68 376.815C294.68 375.657 294.992 375.075 295.724 375.075C296.45 375.075 296.768 375.657 296.768 376.815C296.768 377.967 296.45 378.549 295.724 378.549C294.992 378.549 294.68 377.967 294.68 376.815ZM299.579 379.005C300.587 379.005 301.151 378.285 301.151 376.815C301.151 375.345 300.587 374.619 299.579 374.619C298.571 374.619 298.007 375.345 298.007 376.815C298.007 378.285 298.571 379.005 299.579 379.005ZM298.535 376.815C298.535 375.657 298.847 375.075 299.579 375.075C300.305 375.075 300.623 375.657 300.623 376.815C300.623 377.967 300.305 378.549 299.579 378.549C298.847 378.549 298.535 377.967 298.535 376.815ZM301.97 378.309L301.592 379.917H301.982L302.54 378.309H301.97ZM304.554 379.005C305.562 379.005 306.126 378.285 306.126 376.815C306.126 375.345 305.562 374.619 304.554 374.619C303.546 374.619 302.982 375.345 302.982 376.815C302.982 378.285 303.546 379.005 304.554 379.005ZM303.51 376.815C303.51 375.657 303.822 375.075 304.554 375.075C305.28 375.075 305.598 375.657 305.598 376.815C305.598 377.967 305.28 378.549 304.554 378.549C303.822 378.549 303.51 377.967 303.51 376.815ZM308.409 379.005C309.417 379.005 309.981 378.285 309.981 376.815C309.981 375.345 309.417 374.619 308.409 374.619C307.401 374.619 306.837 375.345 306.837 376.815C306.837 378.285 307.401 379.005 308.409 379.005ZM307.365 376.815C307.365 375.657 307.677 375.075 308.409 375.075C309.135 375.075 309.453 375.657 309.453 376.815C309.453 377.967 309.135 378.549 308.409 378.549C307.677 378.549 307.365 377.967 307.365 376.815ZM313.064 379.011C313.724 379.011 314.216 378.645 314.336 378.063H314.36L314.384 378.915H314.84V376.791C314.84 376.119 314.33 375.723 313.466 375.723C312.638 375.723 312.074 376.173 312.008 376.887H312.5C312.572 376.413 312.944 376.143 313.46 376.143C314.15 376.143 314.36 376.509 314.36 376.779C314.36 377.199 314.042 377.259 313.484 377.259H313.118C312.398 377.259 311.996 377.577 311.996 378.153C311.996 378.681 312.428 379.011 313.064 379.011ZM312.506 378.087C312.506 377.763 312.722 377.583 313.106 377.583H313.484C314.036 377.583 314.294 377.463 314.336 377.193H314.36V377.541C314.36 378.039 313.904 378.603 313.172 378.603C312.704 378.603 312.506 378.405 312.506 378.087ZM318.028 378.915H318.544L319.81 375.819H319.3L318.868 376.923C318.664 377.439 318.496 377.853 318.298 378.339H318.274C318.076 377.853 317.908 377.439 317.704 376.923L317.272 375.819H316.762L318.028 378.915ZM320.411 375.819V378.915H320.891V375.819H320.411ZM320.327 374.985C320.327 375.165 320.471 375.309 320.651 375.309C320.831 375.309 320.975 375.165 320.975 374.985C320.975 374.805 320.831 374.661 320.651 374.661C320.471 374.661 320.327 374.805 320.327 374.985ZM323.091 379.011C323.877 379.011 324.375 378.645 324.375 378.069C324.375 377.433 323.829 377.271 323.283 377.169L322.935 377.103C322.539 377.031 322.221 376.935 322.221 376.629C322.221 376.329 322.497 376.143 322.977 376.143C323.469 376.143 323.793 376.395 323.793 376.803H324.285C324.285 376.137 323.769 375.723 322.977 375.723C322.197 375.723 321.741 376.077 321.741 376.647C321.741 377.277 322.287 377.433 322.827 377.529L323.205 377.595C323.583 377.661 323.883 377.775 323.883 378.087C323.883 378.399 323.577 378.591 323.091 378.591C322.527 378.591 322.197 378.357 322.155 377.931H321.663C321.705 378.615 322.221 379.011 323.091 379.011ZM324.697 376.179H325.249V378.129C325.249 378.735 325.501 378.945 326.131 378.945C326.281 378.945 326.437 378.921 326.581 378.885V378.501C326.425 378.537 326.293 378.555 326.173 378.555C325.855 378.555 325.729 378.423 325.729 378.087V376.179H326.581V375.819H325.729V375.009H325.249V375.819H324.697V376.179ZM328.029 379.011C328.689 379.011 329.181 378.645 329.301 378.063H329.325L329.349 378.915H329.805V376.791C329.805 376.119 329.295 375.723 328.431 375.723C327.603 375.723 327.039 376.173 326.973 376.887H327.465C327.537 376.413 327.909 376.143 328.425 376.143C329.115 376.143 329.325 376.509 329.325 376.779C329.325 377.199 329.007 377.259 328.449 377.259H328.083C327.363 377.259 326.961 377.577 326.961 378.153C326.961 378.681 327.393 379.011 328.029 379.011ZM327.471 378.087C327.471 377.763 327.687 377.583 328.071 377.583H328.449C329.001 377.583 329.259 377.463 329.301 377.193H329.325V377.541C329.325 378.039 328.869 378.603 328.137 378.603C327.669 378.603 327.471 378.405 327.471 378.087Z" fill="white"/>
<rect x="208" y="340.915" width="45" height="45" rx="8" fill="#C63DC4"/>
<path fill-rule="evenodd" clip-rule="evenodd" d="M235.965 367.584H227.538C226.821 367.584 226.241 367.003 226.241 366.287V359.156C226.241 358.44 226.821 357.86 227.538 357.86H235.965C236.681 357.86 237.262 358.44 237.262 359.156V366.287C237.262 367.003 236.681 367.584 235.965 367.584Z" stroke="white" stroke-linecap="round" stroke-linejoin="round"/>
<path d="M233.369 369.528H225.593C224.877 369.528 224.296 368.948 224.296 368.232V361.36" stroke="white" stroke-linecap="round" stroke-linejoin="round"/>
<path d="M230.355 360.337C230.777 360.759 230.777 361.443 230.355 361.865C229.933 362.287 229.249 362.287 228.827 361.865C228.405 361.443 228.405 360.759 228.827 360.337C229.249 359.915 229.933 359.915 230.355 360.337" stroke="white" stroke-linecap="round" stroke-linejoin="round"/>
<path d="M237.262 364.882L235.067 363.126C234.787 362.902 234.379 362.948 234.155 363.227L232.488 365.311C232.264 365.591 231.856 365.636 231.576 365.412L230.734 364.739C230.459 364.519 230.057 364.559 229.831 364.83L227.538 367.584" stroke="white" stroke-linecap="round" stroke-linejoin="round"/>
<path d="M209.461 411.459H208.579V408.171H209.461C210.469 408.171 211.033 408.705 211.033 409.815C211.033 410.925 210.475 411.459 209.461 411.459ZM208.075 411.915H209.461C210.739 411.915 211.549 411.219 211.549 409.815C211.549 408.441 210.751 407.715 209.461 407.715H208.075V411.915ZM213.116 412.011C213.776 412.011 214.268 411.645 214.388 411.063H214.412L214.436 411.915H214.892V409.791C214.892 409.119 214.382 408.723 213.518 408.723C212.69 408.723 212.126 409.173 212.06 409.887H212.552C212.624 409.413 212.996 409.143 213.512 409.143C214.202 409.143 214.412 409.509 214.412 409.779C214.412 410.199 214.094 410.259 213.536 410.259H213.17C212.45 410.259 212.048 410.577 212.048 411.153C212.048 411.681 212.48 412.011 213.116 412.011ZM212.558 411.087C212.558 410.763 212.774 410.583 213.158 410.583H213.536C214.088 410.583 214.346 410.463 214.388 410.193H214.412V410.541C214.412 411.039 213.956 411.603 213.224 411.603C212.756 411.603 212.558 411.405 212.558 411.087ZM215.6 410.373C215.6 411.363 216.158 412.023 216.998 412.023C217.532 412.023 217.94 411.711 218.138 411.147H218.162L218.186 411.915H218.642V407.715H218.162V409.599H218.138C217.94 409.035 217.532 408.723 216.998 408.723C216.158 408.723 215.6 409.383 215.6 410.373ZM216.086 410.373C216.086 409.641 216.5 409.155 217.124 409.155C217.748 409.155 218.162 409.641 218.162 410.217V410.529C218.162 411.105 217.748 411.591 217.124 411.591C216.5 411.591 216.086 411.105 216.086 410.373ZM220.993 412.011C221.839 412.011 222.607 411.375 222.607 410.355C222.607 409.359 221.839 408.723 220.993 408.723C220.147 408.723 219.379 409.359 219.379 410.355C219.379 411.375 220.147 412.011 220.993 412.011ZM219.871 410.355C219.871 409.611 220.333 409.155 220.993 409.155C221.653 409.155 222.115 409.611 222.115 410.355C222.115 411.117 221.653 411.579 220.993 411.579C220.333 411.579 219.871 411.117 219.871 410.355ZM224.491 412.011C225.277 412.011 225.775 411.645 225.775 411.069C225.775 410.433 225.229 410.271 224.683 410.169L224.335 410.103C223.939 410.031 223.621 409.935 223.621 409.629C223.621 409.329 223.897 409.143 224.377 409.143C224.869 409.143 225.193 409.395 225.193 409.803H225.685C225.685 409.137 225.169 408.723 224.377 408.723C223.597 408.723 223.141 409.077 223.141 409.647C223.141 410.277 223.687 410.433 224.227 410.529L224.605 410.595C224.983 410.661 225.283 410.775 225.283 411.087C225.283 411.399 224.977 411.591 224.491 411.591C223.927 411.591 223.597 411.357 223.555 410.931H223.063C223.105 411.615 223.621 412.011 224.491 412.011ZM227.791 413.019H228.271V411.147H228.295C228.493 411.711 228.901 412.023 229.435 412.023C230.275 412.023 230.833 411.363 230.833 410.373C230.833 409.383 230.275 408.723 229.435 408.723C228.901 408.723 228.493 409.035 228.295 409.599H228.271L228.247 408.819H227.791V413.019ZM228.271 410.529V410.217C228.271 409.641 228.685 409.155 229.309 409.155C229.933 409.155 230.347 409.641 230.347 410.373C230.347 411.105 229.933 411.591 229.309 411.591C228.685 411.591 228.271 411.105 228.271 410.529ZM232.974 412.011C233.742 412.011 234.312 411.537 234.402 410.829H233.91C233.82 411.255 233.49 411.591 232.974 411.591C232.374 411.591 231.93 411.195 231.918 410.445H234.414C234.42 410.367 234.426 410.295 234.426 410.223C234.426 409.347 233.802 408.723 232.962 408.723C232.062 408.723 231.438 409.317 231.438 410.355C231.438 411.471 232.08 412.011 232.974 412.011ZM231.918 410.109C231.96 409.473 232.386 409.143 232.944 409.143C233.538 409.143 233.898 409.527 233.934 410.109H231.918ZM236.456 412.011C237.242 412.011 237.74 411.645 237.74 411.069C237.74 410.433 237.194 410.271 236.648 410.169L236.3 410.103C235.904 410.031 235.586 409.935 235.586 409.629C235.586 409.329 235.862 409.143 236.342 409.143C236.834 409.143 237.158 409.395 237.158 409.803H237.65C237.65 409.137 237.134 408.723 236.342 408.723C235.562 408.723 235.106 409.077 235.106 409.647C235.106 410.277 235.652 410.433 236.192 410.529L236.57 410.595C236.948 410.661 237.248 410.775 237.248 411.087C237.248 411.399 236.942 411.591 236.456 411.591C235.892 411.591 235.562 411.357 235.52 410.931H235.028C235.07 411.615 235.586 412.011 236.456 412.011ZM239.655 412.011C240.441 412.011 240.939 411.645 240.939 411.069C240.939 410.433 240.393 410.271 239.847 410.169L239.499 410.103C239.103 410.031 238.785 409.935 238.785 409.629C238.785 409.329 239.061 409.143 239.541 409.143C240.033 409.143 240.357 409.395 240.357 409.803H240.849C240.849 409.137 240.333 408.723 239.541 408.723C238.761 408.723 238.305 409.077 238.305 409.647C238.305 410.277 238.851 410.433 239.391 410.529L239.769 410.595C240.147 410.661 240.447 410.775 240.447 411.087C240.447 411.399 240.141 411.591 239.655 411.591C239.091 411.591 238.761 411.357 238.719 410.931H238.227C238.269 411.615 238.785 412.011 239.655 412.011ZM243.112 412.011C243.958 412.011 244.726 411.375 244.726 410.355C244.726 409.359 243.958 408.723 243.112 408.723C242.266 408.723 241.498 409.359 241.498 410.355C241.498 411.375 242.266 412.011 243.112 412.011ZM241.99 410.355C241.99 409.611 242.452 409.155 243.112 409.155C243.772 409.155 244.234 409.611 244.234 410.355C244.234 411.117 243.772 411.579 243.112 411.579C242.452 411.579 241.99 411.117 241.99 410.355ZM246.409 412.011C247.069 412.011 247.561 411.645 247.681 411.063H247.705L247.729 411.915H248.185V409.791C248.185 409.119 247.675 408.723 246.811 408.723C245.983 408.723 245.419 409.173 245.353 409.887H245.845C245.917 409.413 246.289 409.143 246.805 409.143C247.495 409.143 247.705 409.509 247.705 409.779C247.705 410.199 247.387 410.259 246.829 410.259H246.463C245.743 410.259 245.341 410.577 245.341 411.153C245.341 411.681 245.773 412.011 246.409 412.011ZM245.851 411.087C245.851 410.763 246.067 410.583 246.451 410.583H246.829C247.381 410.583 247.639 410.463 247.681 410.193H247.705V410.541C247.705 411.039 247.249 411.603 246.517 411.603C246.049 411.603 245.851 411.405 245.851 411.087ZM249.115 408.819V411.915H249.595V408.819H249.115ZM249.031 407.985C249.031 408.165 249.175 408.309 249.355 408.309C249.535 408.309 249.679 408.165 249.679 407.985C249.679 407.805 249.535 407.661 249.355 407.661C249.175 407.661 249.031 407.805 249.031 407.985ZM251.796 412.011C252.582 412.011 253.08 411.645 253.08 411.069C253.08 410.433 252.534 410.271 251.988 410.169L251.64 410.103C251.244 410.031 250.926 409.935 250.926 409.629C250.926 409.329 251.202 409.143 251.682 409.143C252.174 409.143 252.498 409.395 252.498 409.803H252.99C252.99 409.137 252.474 408.723 251.682 408.723C250.902 408.723 250.446 409.077 250.446 409.647C250.446 410.277 250.992 410.433 251.532 410.529L251.91 410.595C252.288 410.661 252.588 410.775 252.588 411.087C252.588 411.399 252.282 411.591 251.796 411.591C251.232 411.591 250.902 411.357 250.86 410.931H250.368C250.41 411.615 250.926 412.011 251.796 412.011Z" fill="white"/>
<path d="M209.77 329.915H210.364L211.996 325.715H211.468L210.76 327.581C210.538 328.175 210.316 328.763 210.088 329.351H210.052C209.836 328.763 209.614 328.175 209.398 327.593L208.702 325.715H208.174L209.77 329.915ZM213.599 330.011C214.445 330.011 215.213 329.375 215.213 328.355C215.213 327.359 214.445 326.723 213.599 326.723C212.753 326.723 211.985 327.359 211.985 328.355C211.985 329.375 212.753 330.011 213.599 330.011ZM212.477 328.355C212.477 327.611 212.939 327.155 213.599 327.155C214.259 327.155 214.721 327.611 214.721 328.355C214.721 329.117 214.259 329.579 213.599 329.579C212.939 329.579 212.477 329.117 212.477 328.355ZM217.329 330.011C218.127 330.011 218.697 329.525 218.769 328.787H218.271C218.211 329.249 217.857 329.579 217.329 329.579C216.711 329.579 216.309 329.057 216.309 328.331C216.309 327.623 216.711 327.155 217.329 327.155C217.845 327.155 218.193 327.443 218.265 327.887H218.763C218.661 327.185 218.103 326.723 217.329 326.723C216.423 326.723 215.817 327.371 215.817 328.343C215.817 329.345 216.423 330.011 217.329 330.011ZM220.834 330.011C221.602 330.011 222.172 329.537 222.262 328.829H221.77C221.68 329.255 221.35 329.591 220.834 329.591C220.234 329.591 219.79 329.195 219.778 328.445H222.274C222.28 328.367 222.286 328.295 222.286 328.223C222.286 327.347 221.662 326.723 220.822 326.723C219.922 326.723 219.298 327.317 219.298 328.355C219.298 329.471 219.94 330.011 220.834 330.011ZM219.718 326.453H220.258L220.822 325.823L221.386 326.453H221.926L221.122 325.589H220.522L219.718 326.453ZM219.778 328.109C219.82 327.473 220.246 327.143 220.804 327.143C221.398 327.143 221.758 327.527 221.794 328.109H219.778ZM225.773 330.011C226.541 330.011 227.111 329.537 227.201 328.829H226.709C226.619 329.255 226.289 329.591 225.773 329.591C225.173 329.591 224.729 329.195 224.717 328.445H227.213C227.219 328.367 227.225 328.295 227.225 328.223C227.225 327.347 226.601 326.723 225.761 326.723C224.861 326.723 224.237 327.317 224.237 328.355C224.237 329.471 224.879 330.011 225.773 330.011ZM224.717 328.109C224.759 327.473 225.185 327.143 225.743 327.143C226.337 327.143 226.697 327.527 226.733 328.109H224.717ZM229.255 330.011C230.041 330.011 230.539 329.645 230.539 329.069C230.539 328.433 229.993 328.271 229.447 328.169L229.099 328.103C228.703 328.031 228.385 327.935 228.385 327.629C228.385 327.329 228.661 327.143 229.141 327.143C229.633 327.143 229.957 327.395 229.957 327.803H230.449C230.449 327.137 229.933 326.723 229.141 326.723C228.361 326.723 227.905 327.077 227.905 327.647C227.905 328.277 228.451 328.433 228.991 328.529L229.369 328.595C229.747 328.661 230.047 328.775 230.047 329.087C230.047 329.399 229.741 329.591 229.255 329.591C228.691 329.591 228.361 329.357 228.319 328.931H227.827C227.869 329.615 228.385 330.011 229.255 330.011ZM230.862 327.179H231.414V329.129C231.414 329.735 231.666 329.945 232.296 329.945C232.446 329.945 232.602 329.921 232.746 329.885V329.501C232.59 329.537 232.458 329.555 232.338 329.555C232.02 329.555 231.894 329.423 231.894 329.087V327.179H232.746V326.819H231.894V326.009H231.414V326.819H230.862V327.179ZM234.193 330.011C234.853 330.011 235.345 329.645 235.465 329.063H235.489L235.513 329.915H235.969V327.791C235.969 327.119 235.459 326.723 234.595 326.723C233.767 326.723 233.203 327.173 233.137 327.887H233.629C233.701 327.413 234.073 327.143 234.589 327.143C235.279 327.143 235.489 327.509 235.489 327.779C235.489 328.199 235.171 328.259 234.613 328.259H234.247C233.527 328.259 233.125 328.577 233.125 329.153C233.125 329.681 233.557 330.011 234.193 330.011ZM233.635 329.087C233.635 328.763 233.851 328.583 234.235 328.583H234.613C235.165 328.583 235.423 328.463 235.465 328.193H235.489V328.541C235.489 329.039 235.033 329.603 234.301 329.603C233.833 329.603 233.635 329.405 233.635 329.087ZM233.863 326.099L234.001 326.459L235.687 325.853L235.543 325.469L233.863 326.099ZM239.583 330.011C240.381 330.011 240.951 329.525 241.023 328.787H240.525C240.465 329.249 240.111 329.579 239.583 329.579C238.965 329.579 238.563 329.057 238.563 328.331C238.563 327.623 238.965 327.155 239.583 327.155C240.099 327.155 240.447 327.443 240.519 327.887H241.017C240.915 327.185 240.357 326.723 239.583 326.723C238.677 326.723 238.071 327.371 238.071 328.343C238.071 329.345 238.677 330.011 239.583 330.011ZM243.166 330.011C244.012 330.011 244.78 329.375 244.78 328.355C244.78 327.359 244.012 326.723 243.166 326.723C242.32 326.723 241.552 327.359 241.552 328.355C241.552 329.375 242.32 330.011 243.166 330.011ZM242.044 328.355C242.044 327.611 242.506 327.155 243.166 327.155C243.826 327.155 244.288 327.611 244.288 328.355C244.288 329.117 243.826 329.579 243.166 329.579C242.506 329.579 242.044 329.117 242.044 328.355ZM245.522 329.915H246.008V328.289C246.008 327.563 246.398 327.167 246.89 327.167C247.352 327.167 247.658 327.503 247.658 328.013V329.915H248.138V328.319C248.138 327.629 248.492 327.167 249.026 327.167C249.488 327.167 249.794 327.503 249.794 328.013V329.915H250.274V327.857C250.274 327.179 249.854 326.723 249.218 326.723C248.702 326.723 248.306 327.023 248.15 327.569H248.108C248.006 327.053 247.622 326.723 247.082 326.723C246.566 326.723 246.194 327.023 246.038 327.569H246.008L245.972 326.819H245.516L245.522 329.915ZM251.165 331.019H251.645V329.147H251.669C251.867 329.711 252.275 330.023 252.809 330.023C253.649 330.023 254.207 329.363 254.207 328.373C254.207 327.383 253.649 326.723 252.809 326.723C252.275 326.723 251.867 327.035 251.669 327.599H251.645L251.621 326.819H251.165V331.019ZM251.645 328.529V328.217C251.645 327.641 252.059 327.155 252.683 327.155C253.307 327.155 253.721 327.641 253.721 328.373C253.721 329.105 253.307 329.591 252.683 329.591C252.059 329.591 251.645 329.105 251.645 328.529ZM254.944 329.915H255.424V328.811C255.424 328.229 255.526 327.803 255.79 327.539C256 327.329 256.306 327.221 256.738 327.203V326.771C255.97 326.771 255.586 327.113 255.448 327.773H255.424L255.406 326.819H254.944V329.915ZM258.158 330.011C258.818 330.011 259.31 329.645 259.43 329.063H259.454L259.478 329.915H259.934V327.791C259.934 327.119 259.424 326.723 258.56 326.723C257.732 326.723 257.168 327.173 257.102 327.887H257.594C257.666 327.413 258.038 327.143 258.554 327.143C259.244 327.143 259.454 327.509 259.454 327.779C259.454 328.199 259.136 328.259 258.578 328.259H258.212C257.492 328.259 257.09 328.577 257.09 329.153C257.09 329.681 257.522 330.011 258.158 330.011ZM257.6 329.087C257.6 328.763 257.816 328.583 258.2 328.583H258.578C259.13 328.583 259.388 328.463 259.43 328.193H259.454V328.541C259.454 329.039 258.998 329.603 258.266 329.603C257.798 329.603 257.6 329.405 257.6 329.087ZM260.821 329.915H261.307V328.319C261.307 327.629 261.697 327.167 262.261 327.167C262.813 327.167 263.077 327.449 263.077 327.971V329.915H263.557V327.857C263.557 327.179 263.113 326.723 262.441 326.723C261.901 326.723 261.511 327.029 261.343 327.581H261.307L261.277 326.819H260.821V329.915ZM264.292 328.373C264.292 329.363 264.85 330.023 265.69 330.023C266.224 330.023 266.632 329.711 266.83 329.147H266.854L266.878 329.915H267.334V325.715H266.854V327.599H266.83C266.632 327.035 266.224 326.723 265.69 326.723C264.85 326.723 264.292 327.383 264.292 328.373ZM264.778 328.373C264.778 327.641 265.192 327.155 265.816 327.155C266.44 327.155 266.854 327.641 266.854 328.217V328.529C266.854 329.105 266.44 329.591 265.816 329.591C265.192 329.591 264.778 329.105 264.778 328.373ZM269.685 330.011C270.531 330.011 271.299 329.375 271.299 328.355C271.299 327.359 270.531 326.723 269.685 326.723C268.839 326.723 268.071 327.359 268.071 328.355C268.071 329.375 268.839 330.011 269.685 330.011ZM268.563 328.355C268.563 327.611 269.025 327.155 269.685 327.155C270.345 327.155 270.807 327.611 270.807 328.355C270.807 329.117 270.345 329.579 269.685 329.579C269.025 329.579 268.563 329.117 268.563 328.355Z" fill="white"/>
<g opacity="0.5" filter="url(#filter6_b_1252_2597)">
<rect x="208.5" y="421.415" width="195.035" height="29.0794" rx="7.5" stroke="white" stroke-opacity="0.15"/>
</g>
<g opacity="0.5" filter="url(#filter7_b_1252_2597)">
<path d="M208.5 467.915C208.5 463.773 211.858 460.415 216 460.415H396C400.142 460.415 403.5 463.773 403.5 467.915V485.415H208.5V467.915Z" stroke="white" stroke-opacity="0.15"/>
</g>
<path opacity="0.5" d="M224.082 438.011C225.126 438.011 225.798 437.525 225.798 436.757C225.798 435.947 225.09 435.737 224.382 435.587L223.926 435.491C223.38 435.377 222.924 435.221 222.924 434.771C222.924 434.357 223.356 434.093 224.046 434.093C224.718 434.093 225.174 434.465 225.174 435.065H225.696C225.696 434.177 225.036 433.619 224.046 433.625C223.038 433.631 222.402 434.063 222.402 434.753C222.402 435.611 223.122 435.827 223.836 435.971L224.304 436.067C224.844 436.175 225.276 436.337 225.276 436.781C225.276 437.273 224.85 437.543 224.082 437.543C223.296 437.543 222.786 437.171 222.786 436.589L222.264 436.583C222.264 437.447 222.978 438.011 224.082 438.011ZM227.949 438.011C228.717 438.011 229.287 437.537 229.377 436.829H228.885C228.795 437.255 228.465 437.591 227.949 437.591C227.349 437.591 226.905 437.195 226.893 436.445H229.389C229.395 436.367 229.401 436.295 229.401 436.223C229.401 435.347 228.777 434.723 227.937 434.723C227.037 434.723 226.413 435.317 226.413 436.355C226.413 437.471 227.055 438.011 227.949 438.011ZM226.893 436.109C226.935 435.473 227.361 435.143 227.919 435.143C228.513 435.143 228.873 435.527 228.909 436.109H226.893ZM231.224 438.011C231.764 438.011 232.154 437.705 232.322 437.153H232.358L232.388 437.915H232.844V434.819H232.358V436.415C232.358 437.105 231.98 437.567 231.416 437.567C230.918 437.567 230.588 437.231 230.588 436.721V434.819H230.108V436.877C230.108 437.555 230.552 438.011 231.224 438.011ZM235.094 437.915H235.58V436.319C235.58 435.629 235.97 435.167 236.534 435.167C237.086 435.167 237.35 435.449 237.35 435.971V437.915H237.83V435.857C237.83 435.179 237.386 434.723 236.714 434.723C236.174 434.723 235.784 435.029 235.616 435.581H235.58L235.55 434.819H235.094V437.915ZM240.179 438.011C241.025 438.011 241.793 437.375 241.793 436.355C241.793 435.359 241.025 434.723 240.179 434.723C239.333 434.723 238.565 435.359 238.565 436.355C238.565 437.375 239.333 438.011 240.179 438.011ZM239.057 436.355C239.057 435.611 239.519 435.155 240.179 435.155C240.839 435.155 241.301 435.611 241.301 436.355C241.301 437.117 240.839 437.579 240.179 437.579C239.519 437.579 239.057 437.117 239.057 436.355ZM242.536 437.915H243.022V436.289C243.022 435.563 243.412 435.167 243.904 435.167C244.366 435.167 244.672 435.503 244.672 436.013V437.915H245.152V436.319C245.152 435.629 245.506 435.167 246.04 435.167C246.502 435.167 246.808 435.503 246.808 436.013V437.915H247.288V435.857C247.288 435.179 246.868 434.723 246.232 434.723C245.716 434.723 245.32 435.023 245.164 435.569H245.122C245.02 435.053 244.636 434.723 244.096 434.723C243.58 434.723 243.208 435.023 243.052 435.569H243.022L242.986 434.819H242.53L242.536 437.915ZM249.564 438.011C250.332 438.011 250.902 437.537 250.992 436.829H250.5C250.41 437.255 250.08 437.591 249.564 437.591C248.964 437.591 248.52 437.195 248.508 436.445H251.004C251.01 436.367 251.016 436.295 251.016 436.223C251.016 435.347 250.392 434.723 249.552 434.723C248.652 434.723 248.028 435.317 248.028 436.355C248.028 437.471 248.67 438.011 249.564 438.011ZM248.508 436.109C248.55 435.473 248.976 435.143 249.534 435.143C250.128 435.143 250.488 435.527 250.524 436.109H248.508Z" fill="white"/>
<path opacity="0.5" d="M222.474 478.287H225.39V477.831H222.978V476.343H225.174V475.887H222.978V474.543H225.42V474.087H222.474V478.287ZM225.863 476.811H227.663V476.379H225.863V476.811ZM228.438 478.287H228.924V476.661C228.924 475.935 229.314 475.539 229.806 475.539C230.268 475.539 230.574 475.875 230.574 476.385V478.287H231.054V476.691C231.054 476.001 231.408 475.539 231.942 475.539C232.404 475.539 232.71 475.875 232.71 476.385V478.287H233.19V476.229C233.19 475.551 232.77 475.095 232.134 475.095C231.618 475.095 231.222 475.395 231.066 475.941H231.024C230.922 475.425 230.538 475.095 229.998 475.095C229.482 475.095 229.11 475.395 228.954 475.941H228.924L228.888 475.191H228.432L228.438 478.287ZM234.969 478.383C235.629 478.383 236.121 478.017 236.241 477.435H236.265L236.289 478.287H236.745V476.163C236.745 475.491 236.235 475.095 235.371 475.095C234.543 475.095 233.979 475.545 233.913 476.259H234.405C234.477 475.785 234.849 475.515 235.365 475.515C236.055 475.515 236.265 475.881 236.265 476.151C236.265 476.571 235.947 476.631 235.389 476.631H235.023C234.303 476.631 233.901 476.949 233.901 477.525C233.901 478.053 234.333 478.383 234.969 478.383ZM234.411 477.459C234.411 477.135 234.627 476.955 235.011 476.955H235.389C235.941 476.955 236.199 476.835 236.241 476.565H236.265V476.913C236.265 477.411 235.809 477.975 235.077 477.975C234.609 477.975 234.411 477.777 234.411 477.459ZM237.674 475.191V478.287H238.154V475.191H237.674ZM237.59 474.357C237.59 474.537 237.734 474.681 237.914 474.681C238.094 474.681 238.238 474.537 238.238 474.357C238.238 474.177 238.094 474.033 237.914 474.033C237.734 474.033 237.59 474.177 237.59 474.357ZM239.108 474.087V478.287H239.588V474.087H239.108Z" fill="white"/>
<defs>
<filter id="filter0_b_1252_2597" x="-124.751" y="-124.751" width="536.011" height="566.961" filterUnits="userSpaceOnUse" color-interpolation-filters="sRGB">
<feFlood flood-opacity="0" result="BackgroundImageFix"/>
<feGaussianBlur in="BackgroundImageFix" stdDeviation="62.3753"/>
<feComposite in2="SourceAlpha" operator="in" result="effect1_backgroundBlur_1252_2597"/>
<feBlend mode="normal" in="SourceGraphic" in2="effect1_backgroundBlur_1252_2597" result="shape"/>
</filter>
<filter id="filter1_b_1252_2597" x="81.4129" y="56.3277" width="581.174" height="536.574" filterUnits="userSpaceOnUse" color-interpolation-filters="sRGB">
<feFlood flood-opacity="0" result="BackgroundImageFix"/>
<feGaussianBlur in="BackgroundImageFix" stdDeviation="40.7935"/>
<feComposite in2="SourceAlpha" operator="in" result="effect1_backgroundBlur_1252_2597"/>
<feBlend mode="normal" in="SourceGraphic" in2="effect1_backgroundBlur_1252_2597" result="shape"/>
</filter>
<filter id="filter2_b_1252_2597" x="63.1429" y="37.1642" width="617.715" height="330.404" filterUnits="userSpaceOnUse" color-interpolation-filters="sRGB">
<feFlood flood-opacity="0" result="BackgroundImageFix"/>
<feGaussianBlur in="BackgroundImageFix" stdDeviation="62.3753"/>
<feComposite in2="SourceAlpha" operator="in" result="effect1_backgroundBlur_1252_2597"/>
<feBlend mode="normal" in="SourceGraphic" in2="effect1_backgroundBlur_1252_2597" result="shape"/>
</filter>
<filter id="filter3_b_1252_2597" x="315.249" y="133.482" width="365.67" height="477.69" filterUnits="userSpaceOnUse" color-interpolation-filters="sRGB">
<feFlood flood-opacity="0" result="BackgroundImageFix"/>
<feGaussianBlur in="BackgroundImageFix" stdDeviation="62.3753"/>
<feComposite in2="SourceAlpha" operator="in" result="effect1_backgroundBlur_1252_2597"/>
<feBlend mode="normal" in="SourceGraphic" in2="effect1_backgroundBlur_1252_2597" result="shape"/>
</filter>
<filter id="filter4_b_1252_2597" x="63.2494" y="133.482" width="484.95" height="477.69" filterUnits="userSpaceOnUse" color-interpolation-filters="sRGB">
<feFlood flood-opacity="0" result="BackgroundImageFix"/>
<feGaussianBlur in="BackgroundImageFix" stdDeviation="62.3753"/>
<feComposite in2="SourceAlpha" operator="in" result="effect1_backgroundBlur_1252_2597"/>
<feBlend mode="normal" in="SourceGraphic" in2="effect1_backgroundBlur_1252_2597" result="shape"/>
</filter>
<filter id="filter5_b_1252_2597" x="83.2494" y="149.164" width="445.536" height="279.581" filterUnits="userSpaceOnUse" color-interpolation-filters="sRGB">
<feFlood flood-opacity="0" result="BackgroundImageFix"/>
<feGaussianBlur in="BackgroundImageFix" stdDeviation="62.3753"/>
<feComposite in2="SourceAlpha" operator="in" result="effect1_backgroundBlur_1252_2597"/>
<feBlend mode="normal" in="SourceGraphic" in2="effect1_backgroundBlur_1252_2597" result="shape"/>
</filter>
<filter id="filter6_b_1252_2597" x="83.2494" y="296.164" width="445.536" height="279.581" filterUnits="userSpaceOnUse" color-interpolation-filters="sRGB">
<feFlood flood-opacity="0" result="BackgroundImageFix"/>
<feGaussianBlur in="BackgroundImageFix" stdDeviation="62.3753"/>
<feComposite in2="SourceAlpha" operator="in" result="effect1_backgroundBlur_1252_2597"/>
<feBlend mode="normal" in="SourceGraphic" in2="effect1_backgroundBlur_1252_2597" result="shape"/>
</filter>
<filter id="filter7_b_1252_2597" x="83.2494" y="335.164" width="445.501" height="275.501" filterUnits="userSpaceOnUse" color-interpolation-filters="sRGB">
<feFlood flood-opacity="0" result="BackgroundImageFix"/>
<feGaussianBlur in="BackgroundImageFix" stdDeviation="62.3753"/>
<feComposite in2="SourceAlpha" operator="in" result="effect1_backgroundBlur_1252_2597"/>
<feBlend mode="normal" in="SourceGraphic" in2="effect1_backgroundBlur_1252_2597" result="shape"/>
</filter>
<linearGradient id="paint0_linear_1252_2597" x1="433.054" y1="-121.088" x2="-91.4148" y2="109.885" gradientUnits="userSpaceOnUse">
<stop/>
<stop offset="1" stop-opacity="0"/>
</linearGradient>
<linearGradient id="paint1_linear_1252_2597" x1="605.359" y1="91" x2="463.44" y2="97.0284" gradientUnits="userSpaceOnUse">
<stop stop-color="#FF9C2B"/>
<stop offset="0.588542" stop-color="#FF2689"/>
<stop offset="1" stop-color="#9747FF"/>
</linearGradient>
<linearGradient id="paint2_linear_1252_2597" x1="352.137" y1="91" x2="459.459" y2="92.567" gradientUnits="userSpaceOnUse">
<stop stop-color="#FF9C2B"/>
<stop offset="0.588542" stop-color="#FF2689"/>
<stop offset="1" stop-color="#9747FF"/>
</linearGradient>
</defs>
</svg>
