<svg width="540" height="478" viewBox="0 0 540 478" fill="none" xmlns="http://www.w3.org/2000/svg">
<g filter="url(#filter0_b_1280_2587)">
<rect width="247.634" height="283.71" rx="6.88279" fill="url(#paint0_linear_1280_2587)" fill-opacity="0.9"/>
<rect x="0.5" y="0.5" width="246.634" height="282.71" rx="6.38279" stroke="white" stroke-opacity="0.1"/>
</g>
<ellipse cx="22.2789" cy="25.2271" rx="2.93221" ry="2.95123" fill="white"/>
<ellipse opacity="0.4" cx="34.3888" cy="25.2272" rx="2.93221" ry="2.95123" fill="white"/>
<ellipse opacity="0.1" cx="46.4981" cy="25.2272" rx="2.93221" ry="2.95123" fill="white"/>
<g filter="url(#filter1_b_1280_2587)">
<rect x="30.6855" y="158.715" width="186.979" height="39.1322" rx="7.5" stroke="white" stroke-opacity="0.2"/>
</g>
<g filter="url(#filter2_b_1280_2587)">
<rect x="30.7925" y="213.45" width="85.7596" height="29.4032" rx="7.5" stroke="white" stroke-opacity="0.2"/>
</g>
<g filter="url(#filter3_b_1280_2587)">
<rect x="132.045" y="213.45" width="85.7596" height="29.4032" rx="7.5" stroke="white" stroke-opacity="0.2"/>
</g>
<path d="M113.979 182.38C116.091 182.38 117.345 181.511 117.345 179.982C117.345 178.42 116.003 178.057 114.727 177.793L113.935 177.628C113.088 177.452 112.395 177.243 112.395 176.605C112.395 176.022 112.967 175.681 113.924 175.681C114.892 175.681 115.519 176.176 115.552 177.045H117.18C117.147 175.34 115.926 174.35 113.946 174.35C111.9 174.35 110.69 175.241 110.69 176.572C110.69 178.277 112.12 178.673 113.429 178.937L114.133 179.08C114.98 179.256 115.64 179.465 115.64 180.059C115.64 180.719 115.057 181.06 114.023 181.049C112.901 181.049 112.23 180.576 112.164 179.718H110.514C110.481 181.39 111.768 182.38 113.979 182.38ZM118.02 177.507H118.9V180.477C118.9 181.786 119.472 182.303 120.858 182.303C121.232 182.303 121.65 182.237 122.068 182.094V180.972C121.76 181.049 121.474 181.104 121.254 181.104C120.671 181.104 120.473 180.873 120.473 180.257V177.507H122.068V176.539H120.44V175.054H118.9V176.539H118.02V177.507ZM124.619 182.391C125.741 182.391 126.632 181.731 126.874 180.84H126.929L126.951 182.215H128.469V178.431C128.469 177.133 127.468 176.363 125.752 176.363C124.036 176.363 122.958 177.21 122.815 178.651H124.377C124.476 177.914 124.993 177.54 125.741 177.54C126.632 177.54 126.929 178.002 126.929 178.387C126.929 178.882 126.588 179.179 125.554 179.179H124.839C123.442 179.179 122.749 179.839 122.749 180.818C122.749 181.863 123.552 182.391 124.619 182.391ZM124.333 180.686C124.333 180.268 124.608 180.004 125.125 180.004H125.51C126.313 180.004 126.742 179.751 126.874 179.212H126.929V179.729C126.929 180.576 126.236 181.368 125.246 181.368C124.652 181.368 124.333 181.126 124.333 180.686ZM129.857 182.215H131.419V180.037C131.419 179.135 131.617 178.563 132.068 178.222C132.442 177.936 133.003 177.793 133.817 177.76V176.44C132.244 176.44 131.727 177.056 131.474 178.321H131.419L131.375 176.539H129.857V182.215ZM134.488 177.507H135.368V180.477C135.368 181.786 135.94 182.303 137.326 182.303C137.7 182.303 138.118 182.237 138.536 182.094V180.972C138.228 181.049 137.942 181.104 137.722 181.104C137.139 181.104 136.941 180.873 136.941 180.257V177.507H138.536V176.539H136.908V175.054H135.368V176.539H134.488V177.507Z" fill="white"/>
<rect opacity="0.1" x="30.2939" y="76.3278" width="188.36" height="8.32709" rx="4.16354" fill="white"/>
<rect opacity="0.1" x="30.2939" y="122.127" width="152.795" height="8.32709" rx="4.16354" fill="white"/>
<rect opacity="0.1" x="30.2939" y="99.2272" width="179.139" height="8.32709" rx="4.16354" fill="white"/>
<line opacity="0.5" x1="4.37114e-08" y1="45.5848" x2="248.044" y2="45.5848" stroke="#513B4E"/>
<g filter="url(#filter4_b_1280_2587)">
<rect x="140.964" y="97.8433" width="247.739" height="283.831" rx="6.88279" fill="url(#paint1_linear_1280_2587)" fill-opacity="0.9"/>
<rect x="141.464" y="98.3433" width="246.739" height="282.831" rx="6.38279" stroke="white" stroke-opacity="0.2"/>
</g>
<ellipse cx="163.839" cy="123.07" rx="2.93221" ry="2.95123" fill="white"/>
<ellipse opacity="0.3" cx="175.949" cy="123.071" rx="2.93221" ry="2.95123" fill="white"/>
<ellipse opacity="0.1" cx="188.058" cy="123.071" rx="2.93221" ry="2.95123" fill="white"/>
<rect x="170.206" y="255.558" width="189.059" height="41.1494" rx="8.5" stroke="url(#paint2_linear_1280_2587)"/>
<g filter="url(#filter5_b_1280_2587)">
<rect x="171.772" y="311.384" width="85.7966" height="29.4162" rx="7.5" stroke="white" stroke-opacity="0.2"/>
</g>
<g filter="url(#filter6_b_1280_2587)">
<rect x="273.065" y="311.384" width="85.7966" height="29.4162" rx="7.5" stroke="white" stroke-opacity="0.2"/>
</g>
<path d="M241.001 277.645C241.001 279.757 242.464 280.725 244.378 280.725C246.369 280.725 247.777 279.757 247.777 277.645V272.849H246.094V277.568C246.094 278.745 245.544 279.372 244.378 279.372C243.212 279.372 242.684 278.723 242.684 277.579V272.849H241.001V277.645ZM249.144 282.573H250.706V279.251H250.761C251.124 280.197 251.872 280.725 252.862 280.725C254.259 280.725 255.271 279.559 255.271 277.711C255.271 275.852 254.259 274.697 252.862 274.697C251.872 274.697 251.124 275.225 250.761 276.182H250.706L250.651 274.873H249.144V282.573ZM250.706 278.052V277.381C250.706 276.468 251.289 275.786 252.191 275.786C253.093 275.786 253.698 276.49 253.698 277.711C253.698 278.932 253.093 279.636 252.191 279.636C251.289 279.636 250.706 278.954 250.706 278.052ZM258.935 280.725C260.629 280.725 261.597 280.076 261.597 278.932C261.597 277.733 260.508 277.425 259.496 277.227L258.858 277.106C258.231 276.985 257.736 276.842 257.736 276.413C257.736 276.017 258.121 275.786 258.781 275.786C259.485 275.786 259.914 276.138 259.914 276.754H261.399C261.399 275.445 260.398 274.697 258.704 274.697C257.164 274.697 256.196 275.401 256.196 276.457C256.196 277.667 257.274 277.986 258.275 278.173L258.935 278.294C259.562 278.404 260.046 278.569 260.046 278.987C260.046 279.394 259.639 279.636 258.957 279.636C258.11 279.636 257.637 279.306 257.604 278.69H256.075C256.108 279.999 257.12 280.725 258.935 280.725ZM265.495 280.725C266.694 280.725 268.047 280.032 268.234 278.58H266.859C266.727 279.13 266.21 279.548 265.495 279.548C264.604 279.548 263.977 278.987 263.944 278.03H268.256C268.267 277.865 268.278 277.711 268.278 277.557C268.278 275.885 267.068 274.697 265.396 274.697C263.603 274.697 262.459 275.874 262.459 277.689C262.459 279.658 263.636 280.725 265.495 280.725ZM263.944 277.183C263.999 276.347 264.582 275.874 265.396 275.874C266.199 275.874 266.705 276.391 266.749 277.183H263.944ZM269.447 272.849V280.549H271.02V272.849H269.447Z" fill="white"/>
<path d="M284.711 278.48L288.022 275.17L291.333 278.48" stroke="white" stroke-width="1.5" stroke-linecap="round" stroke-linejoin="round"/>
<rect opacity="0.1" x="171.274" y="174.204" width="188.44" height="8.32709" rx="4.16354" fill="white"/>
<rect opacity="0.1" x="171.274" y="220.003" width="152.86" height="8.32709" rx="4.16354" fill="white"/>
<rect opacity="0.1" x="171.274" y="197.103" width="179.216" height="8.32709" rx="4.16354" fill="white"/>
<line opacity="0.5" x1="140.964" y1="143.448" x2="389.113" y2="143.448" stroke="#513B4E"/>
<g filter="url(#filter7_b_1280_2587)">
<rect x="291.448" y="193.605" width="247.739" height="283.831" rx="6.88279" fill="url(#paint3_linear_1280_2587)" fill-opacity="0.5"/>
<rect x="291.948" y="194.105" width="246.739" height="282.831" rx="6.38279" stroke="#0F9D58" stroke-opacity="0.4"/>
</g>
<ellipse cx="314.146" cy="218.632" rx="2.93221" ry="2.95123" fill="white"/>
<ellipse opacity="0.4" cx="326.255" cy="218.633" rx="2.93221" ry="2.95123" fill="white"/>
<ellipse opacity="0.1" cx="338.365" cy="218.633" rx="2.93221" ry="2.95123" fill="white"/>
<line opacity="0.5" x1="291.448" y1="239.762" x2="539.598" y2="239.762" stroke="#0F9D58" stroke-opacity="0.6"/>
<circle cx="416.355" cy="294.371" r="26.0221" fill="#0F9D58"/>
<path d="M410.109 295.891L414.941 300.533L424.605 291.249" stroke="white" stroke-width="3" stroke-linecap="round" stroke-linejoin="round"/>
<rect x="321.134" y="405.246" width="189.059" height="37.9599" rx="8.5" stroke="#0F9D58"/>
<path d="M400.287 428.196H401.97V425.16H405.578V423.873H401.97V421.816H405.919V420.496H400.287V428.196ZM406.948 422.52V428.196H408.521V422.52H406.948ZM406.805 420.859C406.805 421.354 407.223 421.761 407.729 421.761C408.235 421.761 408.642 421.365 408.642 420.859C408.642 420.342 408.235 419.946 407.729 419.946C407.223 419.946 406.805 420.364 406.805 420.859ZM410.038 428.196H411.6V425.226C411.6 424.192 412.139 423.576 412.997 423.576C413.855 423.576 414.284 424.06 414.284 424.973V428.196H415.846V424.533C415.846 423.125 414.889 422.344 413.756 422.344C412.722 422.344 411.974 422.894 411.666 423.873H411.6L411.556 422.52H410.038V428.196ZM417.368 422.52V428.196H418.941V422.52H417.368ZM417.225 420.859C417.225 421.354 417.643 421.761 418.149 421.761C418.655 421.761 419.062 421.365 419.062 420.859C419.062 420.342 418.655 419.946 418.149 419.946C417.643 419.946 417.225 420.364 417.225 420.859ZM423.041 428.372C424.735 428.372 425.703 427.723 425.703 426.579C425.703 425.38 424.614 425.072 423.602 424.874L422.964 424.753C422.337 424.632 421.842 424.489 421.842 424.06C421.842 423.664 422.227 423.433 422.887 423.433C423.591 423.433 424.02 423.785 424.02 424.401H425.505C425.505 423.092 424.504 422.344 422.81 422.344C421.27 422.344 420.302 423.048 420.302 424.104C420.302 425.314 421.38 425.633 422.381 425.82L423.041 425.941C423.668 426.051 424.152 426.216 424.152 426.634C424.152 427.041 423.745 427.283 423.063 427.283C422.216 427.283 421.743 426.953 421.71 426.337H420.181C420.214 427.646 421.226 428.372 423.041 428.372ZM426.7 428.196H428.262V425.226C428.262 424.192 428.801 423.576 429.659 423.576C430.517 423.576 430.946 424.06 430.946 424.973V428.196H432.508V424.533C432.508 423.125 431.551 422.344 430.418 422.344C429.384 422.344 428.636 422.894 428.328 423.873H428.262V420.496H426.7V428.196Z" fill="white"/>
<rect opacity="0.1" x="335.166" y="346.615" width="162.378" height="7.2862" rx="3.6431" fill="#63EEAB"/>
<rect opacity="0.1" x="352.86" y="367.433" width="126.988" height="7.2862" rx="3.6431" fill="#63EEAB"/>
<defs>
<filter id="filter0_b_1280_2587" x="-124.751" y="-124.751" width="497.135" height="533.211" filterUnits="userSpaceOnUse" color-interpolation-filters="sRGB">
<feFlood flood-opacity="0" result="BackgroundImageFix"/>
<feGaussianBlur in="BackgroundImageFix" stdDeviation="62.3753"/>
<feComposite in2="SourceAlpha" operator="in" result="effect1_backgroundBlur_1280_2587"/>
<feBlend mode="normal" in="SourceGraphic" in2="effect1_backgroundBlur_1280_2587" result="shape"/>
</filter>
<filter id="filter1_b_1280_2587" x="-94.5651" y="33.464" width="437.48" height="289.633" filterUnits="userSpaceOnUse" color-interpolation-filters="sRGB">
<feFlood flood-opacity="0" result="BackgroundImageFix"/>
<feGaussianBlur in="BackgroundImageFix" stdDeviation="62.3753"/>
<feComposite in2="SourceAlpha" operator="in" result="effect1_backgroundBlur_1280_2587"/>
<feBlend mode="normal" in="SourceGraphic" in2="effect1_backgroundBlur_1280_2587" result="shape"/>
</filter>
<filter id="filter2_b_1280_2587" x="-94.4581" y="88.1997" width="336.261" height="279.904" filterUnits="userSpaceOnUse" color-interpolation-filters="sRGB">
<feFlood flood-opacity="0" result="BackgroundImageFix"/>
<feGaussianBlur in="BackgroundImageFix" stdDeviation="62.3753"/>
<feComposite in2="SourceAlpha" operator="in" result="effect1_backgroundBlur_1280_2587"/>
<feBlend mode="normal" in="SourceGraphic" in2="effect1_backgroundBlur_1280_2587" result="shape"/>
</filter>
<filter id="filter3_b_1280_2587" x="6.7943" y="88.1997" width="336.261" height="279.904" filterUnits="userSpaceOnUse" color-interpolation-filters="sRGB">
<feFlood flood-opacity="0" result="BackgroundImageFix"/>
<feGaussianBlur in="BackgroundImageFix" stdDeviation="62.3753"/>
<feComposite in2="SourceAlpha" operator="in" result="effect1_backgroundBlur_1280_2587"/>
<feBlend mode="normal" in="SourceGraphic" in2="effect1_backgroundBlur_1280_2587" result="shape"/>
</filter>
<filter id="filter4_b_1280_2587" x="16.2132" y="-26.9073" width="497.241" height="533.332" filterUnits="userSpaceOnUse" color-interpolation-filters="sRGB">
<feFlood flood-opacity="0" result="BackgroundImageFix"/>
<feGaussianBlur in="BackgroundImageFix" stdDeviation="62.3753"/>
<feComposite in2="SourceAlpha" operator="in" result="effect1_backgroundBlur_1280_2587"/>
<feBlend mode="normal" in="SourceGraphic" in2="effect1_backgroundBlur_1280_2587" result="shape"/>
</filter>
<filter id="filter5_b_1280_2587" x="46.5213" y="186.134" width="336.298" height="279.917" filterUnits="userSpaceOnUse" color-interpolation-filters="sRGB">
<feFlood flood-opacity="0" result="BackgroundImageFix"/>
<feGaussianBlur in="BackgroundImageFix" stdDeviation="62.3753"/>
<feComposite in2="SourceAlpha" operator="in" result="effect1_backgroundBlur_1280_2587"/>
<feBlend mode="normal" in="SourceGraphic" in2="effect1_backgroundBlur_1280_2587" result="shape"/>
</filter>
<filter id="filter6_b_1280_2587" x="147.815" y="186.134" width="336.298" height="279.917" filterUnits="userSpaceOnUse" color-interpolation-filters="sRGB">
<feFlood flood-opacity="0" result="BackgroundImageFix"/>
<feGaussianBlur in="BackgroundImageFix" stdDeviation="62.3753"/>
<feComposite in2="SourceAlpha" operator="in" result="effect1_backgroundBlur_1280_2587"/>
<feBlend mode="normal" in="SourceGraphic" in2="effect1_backgroundBlur_1280_2587" result="shape"/>
</filter>
<filter id="filter7_b_1280_2587" x="166.698" y="68.8542" width="497.241" height="533.332" filterUnits="userSpaceOnUse" color-interpolation-filters="sRGB">
<feFlood flood-opacity="0" result="BackgroundImageFix"/>
<feGaussianBlur in="BackgroundImageFix" stdDeviation="62.3753"/>
<feComposite in2="SourceAlpha" operator="in" result="effect1_backgroundBlur_1280_2587"/>
<feBlend mode="normal" in="SourceGraphic" in2="effect1_backgroundBlur_1280_2587" result="shape"/>
</filter>
<linearGradient id="paint0_linear_1280_2587" x1="467.755" y1="-105.605" x2="-16.0507" y2="340.225" gradientUnits="userSpaceOnUse">
<stop/>
<stop offset="1" stop-opacity="0"/>
</linearGradient>
<linearGradient id="paint1_linear_1280_2587" x1="608.918" y1="-7.80663" x2="124.906" y2="438.213" gradientUnits="userSpaceOnUse">
<stop/>
<stop offset="1" stop-opacity="0"/>
</linearGradient>
<linearGradient id="paint2_linear_1280_2587" x1="161.74" y1="256.058" x2="359.556" y2="260.435" gradientUnits="userSpaceOnUse">
<stop stop-color="#FF9C2B"/>
<stop offset="0.588542" stop-color="#FF2689"/>
<stop offset="1" stop-color="#9747FF"/>
</linearGradient>
<linearGradient id="paint3_linear_1280_2587" x1="691" y1="117" x2="297" y2="477" gradientUnits="userSpaceOnUse">
<stop stop-color="#0F9D58"/>
<stop offset="1" stop-color="#0F9D58" stop-opacity="0"/>
</linearGradient>
</defs>
</svg>
