<svg width="545" height="536" viewBox="0 0 545 536" fill="none" xmlns="http://www.w3.org/2000/svg">
<g filter="url(#filter0_b_1280_5120)">
<rect x="70.541" y="0.804932" width="474.459" height="534.371" rx="8" fill="url(#paint0_linear_1280_5120)" fill-opacity="0.9"/>
<rect x="71.041" y="1.30493" width="473.459" height="533.371" rx="7.5" stroke="white" stroke-opacity="0.15"/>
</g>
<g filter="url(#filter1_b_1280_5120)">
<rect x="97.5684" y="187.139" width="420.589" height="81.6377" rx="8" fill="black" fill-opacity="0.2"/>
<rect x="98.0684" y="187.639" width="419.589" height="80.6377" rx="7.5" stroke="white" stroke-opacity="0.1"/>
</g>
<path d="M193.105 206.85H156.821C154.855 206.85 153.262 208.444 153.262 210.41V246.693C153.262 248.659 154.855 250.252 156.821 250.252H193.105C195.07 250.252 196.664 248.659 196.664 246.693V210.41C196.664 208.444 195.07 206.85 193.105 206.85Z" fill="#D99A43"/>
<path d="M184.263 220.285V224.271H177.62V225.599H177.619V238.886H172.305V234.602L172.306 234.601V229.469C172.306 229.118 172.446 228.781 172.694 228.533L176.154 225.072C176.242 224.984 176.291 224.865 176.291 224.74C176.291 224.481 176.081 224.271 175.822 224.271H165.662V220.285H184.263V220.285Z" fill="white"/>
<path d="M216.845 217.026C218.825 217.026 220.057 215.728 220.277 214.023H219.309C219.111 215.178 218.264 216.168 216.845 216.168C215.25 216.168 214.161 214.925 214.161 212.967C214.161 211.009 215.25 209.832 216.845 209.832C218.099 209.832 218.913 210.569 219.221 211.537H220.211C219.859 210.052 218.66 208.974 216.845 208.974C214.689 208.974 213.215 210.481 213.215 212.967C213.215 215.453 214.689 217.026 216.845 217.026ZM224.163 217.026C225.714 217.026 227.122 215.86 227.122 213.99C227.122 212.164 225.714 210.998 224.163 210.998C222.612 210.998 221.204 212.164 221.204 213.99C221.204 215.86 222.612 217.026 224.163 217.026ZM222.106 213.99C222.106 212.626 222.953 211.79 224.163 211.79C225.373 211.79 226.22 212.626 226.22 213.99C226.22 215.387 225.373 216.234 224.163 216.234C222.953 216.234 222.106 215.387 222.106 213.99ZM228.363 216.85H229.254V213.924C229.254 212.659 229.969 211.812 231.003 211.812C232.015 211.812 232.499 212.329 232.499 213.286V216.85H233.379V213.077C233.379 211.834 232.565 210.998 231.333 210.998C230.343 210.998 229.628 211.559 229.32 212.571H229.254L229.199 211.174H228.363V216.85ZM234.181 211.834H235.193V215.409C235.193 216.52 235.655 216.905 236.81 216.905C237.085 216.905 237.371 216.861 237.635 216.795V216.091C237.349 216.157 237.107 216.19 236.887 216.19C236.304 216.19 236.073 215.948 236.073 215.332V211.834H237.635V211.174H236.073V209.689H235.193V211.174H234.181V211.834ZM240.975 217.026C242.383 217.026 243.428 216.157 243.593 214.859H242.691C242.526 215.64 241.921 216.256 240.975 216.256C239.875 216.256 239.061 215.53 239.039 214.155H243.615C243.626 214.012 243.637 213.88 243.637 213.748C243.637 212.142 242.493 210.998 240.953 210.998C239.303 210.998 238.159 212.087 238.159 213.99C238.159 216.036 239.336 217.026 240.975 217.026ZM239.039 213.539C239.116 212.373 239.897 211.768 240.92 211.768C242.009 211.768 242.669 212.472 242.735 213.539H239.039ZM246.869 217.026C247.859 217.026 248.574 216.465 248.882 215.453H248.948L249.003 216.85H249.839V211.174H248.948V214.1C248.948 215.365 248.255 216.212 247.221 216.212C246.308 216.212 245.703 215.596 245.703 214.661V211.174H244.823V214.947C244.823 216.19 245.637 217.026 246.869 217.026ZM245.934 209.854L246.187 210.514L249.278 209.403L249.014 208.699L245.934 209.854ZM250.861 214.023C250.861 215.838 251.884 217.048 253.424 217.048C254.403 217.048 255.151 216.476 255.514 215.442H255.558L255.602 216.85H256.438V209.15H255.558V212.604H255.514C255.151 211.57 254.403 210.998 253.424 210.998C251.884 210.998 250.861 212.208 250.861 214.023ZM251.752 214.023C251.752 212.681 252.511 211.79 253.655 211.79C254.799 211.79 255.558 212.681 255.558 213.737V214.309C255.558 215.365 254.799 216.256 253.655 216.256C252.511 216.256 251.752 215.365 251.752 214.023ZM260.639 217.026C262.19 217.026 263.598 215.86 263.598 213.99C263.598 212.164 262.19 210.998 260.639 210.998C259.088 210.998 257.68 212.164 257.68 213.99C257.68 215.86 259.088 217.026 260.639 217.026ZM258.582 213.99C258.582 212.626 259.429 211.79 260.639 211.79C261.849 211.79 262.696 212.626 262.696 213.99C262.696 215.387 261.849 216.234 260.639 216.234C259.429 216.234 258.582 215.387 258.582 213.99ZM267.506 216.85H268.386V211.834H270.091V211.174H268.364V210.789C268.364 209.986 268.749 209.7 269.398 209.7C269.607 209.7 269.838 209.722 270.091 209.777V209.062C269.816 209.007 269.552 208.985 269.31 208.985C268.221 208.985 267.506 209.535 267.506 210.679V211.174H266.736V211.834H267.506V216.85ZM273.11 217.026C274.1 217.026 274.815 216.465 275.123 215.453H275.189L275.244 216.85H276.08V211.174H275.189V214.1C275.189 215.365 274.496 216.212 273.462 216.212C272.549 216.212 271.944 215.596 271.944 214.661V211.174H271.064V214.947C271.064 216.19 271.878 217.026 273.11 217.026ZM277.097 211.834H278.109V215.409C278.109 216.52 278.571 216.905 279.726 216.905C280.001 216.905 280.287 216.861 280.551 216.795V216.091C280.265 216.157 280.023 216.19 279.803 216.19C279.22 216.19 278.989 215.948 278.989 215.332V211.834H280.551V211.174H278.989V209.689H278.109V211.174H277.097V211.834ZM283.728 217.026C284.718 217.026 285.433 216.465 285.741 215.453H285.807L285.862 216.85H286.698V211.174H285.807V214.1C285.807 215.365 285.114 216.212 284.08 216.212C283.167 216.212 282.562 215.596 282.562 214.661V211.174H281.682V214.947C281.682 216.19 282.496 217.026 283.728 217.026ZM288.211 216.85H289.091V214.826C289.091 213.759 289.278 212.978 289.762 212.494C290.147 212.109 290.708 211.911 291.5 211.878V211.086C290.092 211.086 289.388 211.713 289.135 212.923H289.091L289.058 211.174H288.211V216.85ZM294.77 217.026C296.321 217.026 297.729 215.86 297.729 213.99C297.729 212.164 296.321 210.998 294.77 210.998C293.219 210.998 291.811 212.164 291.811 213.99C291.811 215.86 293.219 217.026 294.77 217.026ZM292.713 213.99C292.713 212.626 293.56 211.79 294.77 211.79C295.98 211.79 296.827 212.626 296.827 213.99C296.827 215.387 295.98 216.234 294.77 216.234C293.56 216.234 292.713 215.387 292.713 213.99Z" fill="white"/>
<rect opacity="0.2" x="212.676" y="227.518" width="181.876" height="22.7346" rx="4" fill="black" fill-opacity="0.9"/>
<path opacity="0.4" d="M222.551 236.118V241.718H223.191V236.118H222.551ZM224.372 237.59V241.718H225.012V237.59H224.372ZM224.26 236.478C224.26 236.718 224.452 236.91 224.692 236.91C224.932 236.91 225.124 236.718 225.124 236.478C225.124 236.238 224.932 236.046 224.692 236.046C224.452 236.046 224.26 236.238 224.26 236.478ZM226.219 241.718H226.827L226.859 240.694H226.891C227.155 241.446 227.699 241.862 228.411 241.862C229.531 241.862 230.275 240.982 230.275 239.662C230.275 238.342 229.531 237.462 228.411 237.462C227.699 237.462 227.155 237.878 226.891 238.63H226.859V236.118H226.219V241.718ZM226.859 239.87V239.454C226.859 238.686 227.411 238.038 228.243 238.038C229.075 238.038 229.627 238.686 229.627 239.662C229.627 240.638 229.075 241.286 228.243 241.286C227.411 241.286 226.859 240.638 226.859 239.87ZM233.05 241.846C234.074 241.846 234.834 241.214 234.954 240.27H234.298C234.178 240.838 233.738 241.286 233.05 241.286C232.25 241.286 231.658 240.758 231.642 239.758H234.97C234.978 239.654 234.986 239.558 234.986 239.462C234.986 238.294 234.154 237.462 233.034 237.462C231.834 237.462 231.002 238.254 231.002 239.638C231.002 241.126 231.858 241.846 233.05 241.846ZM231.642 239.31C231.698 238.462 232.266 238.022 233.01 238.022C233.802 238.022 234.282 238.534 234.33 239.31H231.642ZM235.887 241.718H236.527V240.246C236.527 239.47 236.663 238.902 237.015 238.55C237.295 238.27 237.703 238.126 238.279 238.102V237.526C237.255 237.526 236.743 237.982 236.559 238.862H236.527L236.503 237.59H235.887V241.718ZM240.093 241.846C240.973 241.846 241.629 241.358 241.789 240.582H241.821L241.853 241.718H242.461V238.886C242.461 237.99 241.781 237.462 240.629 237.462C239.525 237.462 238.773 238.062 238.685 239.014H239.341C239.437 238.382 239.933 238.022 240.621 238.022C241.541 238.022 241.821 238.51 241.821 238.87C241.821 239.43 241.397 239.51 240.653 239.51H240.165C239.205 239.51 238.669 239.934 238.669 240.702C238.669 241.406 239.245 241.846 240.093 241.846ZM239.349 240.614C239.349 240.182 239.637 239.942 240.149 239.942H240.653C241.389 239.942 241.733 239.782 241.789 239.422H241.821V239.886C241.821 240.55 241.213 241.302 240.237 241.302C239.613 241.302 239.349 241.038 239.349 240.614ZM243.324 239.662C243.324 240.982 244.068 241.862 245.188 241.862C245.9 241.862 246.444 241.446 246.708 240.694H246.74L246.772 241.718H247.38V236.118H246.74V238.63H246.708C246.444 237.878 245.9 237.462 245.188 237.462C244.068 237.462 243.324 238.342 243.324 239.662ZM243.972 239.662C243.972 238.686 244.524 238.038 245.356 238.038C246.188 238.038 246.74 238.686 246.74 239.454V239.87C246.74 240.638 246.188 241.286 245.356 241.286C244.524 241.286 243.972 240.638 243.972 239.662ZM250.435 241.846C251.563 241.846 252.587 240.998 252.587 239.638C252.587 238.31 251.563 237.462 250.435 237.462C249.307 237.462 248.283 238.31 248.283 239.638C248.283 240.998 249.307 241.846 250.435 241.846ZM248.939 239.638C248.939 238.646 249.555 238.038 250.435 238.038C251.315 238.038 251.931 238.646 251.931 239.638C251.931 240.654 251.315 241.27 250.435 241.27C249.555 241.27 248.939 240.654 248.939 239.638ZM253.825 238.694C254.105 238.694 254.305 238.502 254.305 238.222C254.305 237.966 254.105 237.774 253.825 237.774C253.569 237.774 253.369 237.966 253.369 238.222C253.369 238.502 253.569 238.694 253.825 238.694ZM253.369 241.366C253.369 241.646 253.569 241.838 253.825 241.838C254.105 241.838 254.305 241.646 254.305 241.366C254.305 241.11 254.105 240.918 253.825 240.918C253.569 240.918 253.369 241.11 253.369 241.366Z" fill="white"/>
<path opacity="0.8" d="M264.978 236.118V241.718H265.65V236.118H264.978ZM266.803 241.718H267.451V239.55C267.451 238.582 267.971 238.054 268.627 238.054C269.243 238.054 269.651 238.502 269.651 239.182V241.718H270.291V239.59C270.291 238.67 270.763 238.054 271.475 238.054C272.091 238.054 272.499 238.502 272.499 239.182V241.718H273.139V238.974C273.139 238.07 272.579 237.462 271.731 237.462C271.043 237.462 270.515 237.862 270.307 238.59H270.251C270.115 237.902 269.603 237.462 268.883 237.462C268.195 237.462 267.699 237.862 267.491 238.59H267.451L267.403 237.59H266.795L266.803 241.718ZM276.094 241.846C277.118 241.846 277.878 241.214 277.998 240.27H277.342C277.222 240.838 276.782 241.286 276.094 241.286C275.294 241.286 274.702 240.758 274.686 239.758H278.014C278.022 239.654 278.03 239.558 278.03 239.462C278.03 238.294 277.198 237.462 276.078 237.462C274.878 237.462 274.046 238.254 274.046 239.638C274.046 241.126 274.902 241.846 276.094 241.846ZM274.686 239.31C274.742 238.462 275.31 238.022 276.054 238.022C276.846 238.022 277.326 238.534 277.374 239.31H274.686ZM278.732 239.662C278.732 240.982 279.476 241.862 280.596 241.862C281.308 241.862 281.852 241.446 282.116 240.694H282.148L282.18 241.718H282.788V236.118H282.148V238.63H282.116C281.852 237.878 281.308 237.462 280.596 237.462C279.476 237.462 278.732 238.342 278.732 239.662ZM279.38 239.662C279.38 238.686 279.932 238.038 280.764 238.038C281.596 238.038 282.148 238.686 282.148 239.454V239.87C282.148 240.638 281.596 241.286 280.764 241.286C279.932 241.286 279.38 240.638 279.38 239.662ZM283.987 237.59V241.718H284.627V237.59H283.987ZM283.875 236.478C283.875 236.718 284.067 236.91 284.307 236.91C284.547 236.91 284.739 236.718 284.739 236.478C284.739 236.238 284.547 236.046 284.307 236.046C284.067 236.046 283.875 236.238 283.875 236.478ZM287.019 241.846C287.899 241.846 288.555 241.358 288.715 240.582H288.747L288.779 241.718H289.387V238.886C289.387 237.99 288.707 237.462 287.555 237.462C286.451 237.462 285.699 238.062 285.611 239.014H286.267C286.363 238.382 286.859 238.022 287.547 238.022C288.467 238.022 288.747 238.51 288.747 238.87C288.747 239.43 288.323 239.51 287.579 239.51H287.091C286.131 239.51 285.595 239.934 285.595 240.702C285.595 241.406 286.171 241.846 287.019 241.846ZM286.275 240.614C286.275 240.182 286.563 239.942 287.075 239.942H287.579C288.315 239.942 288.659 239.782 288.715 239.422H288.747V239.886C288.747 240.55 288.139 241.302 287.163 241.302C286.539 241.302 286.275 241.038 286.275 240.614ZM289.973 238.07H290.709V240.67C290.709 241.478 291.045 241.758 291.885 241.758C292.085 241.758 292.293 241.726 292.485 241.678V241.166C292.277 241.214 292.101 241.238 291.941 241.238C291.517 241.238 291.349 241.062 291.349 240.614V238.07H292.485V237.59H291.349V236.51H290.709V237.59H289.973V238.07ZM294.335 241.846C295.215 241.846 295.871 241.358 296.031 240.582H296.063L296.095 241.718H296.703V238.886C296.703 237.99 296.023 237.462 294.871 237.462C293.767 237.462 293.015 238.062 292.927 239.014H293.583C293.679 238.382 294.175 238.022 294.863 238.022C295.783 238.022 296.063 238.51 296.063 238.87C296.063 239.43 295.639 239.51 294.895 239.51H294.407C293.447 239.51 292.911 239.934 292.911 240.702C292.911 241.406 293.487 241.846 294.335 241.846ZM293.591 240.614C293.591 240.182 293.879 239.942 294.391 239.942H294.895C295.631 239.942 295.975 239.782 296.031 239.422H296.063V239.886C296.063 240.55 295.455 241.302 294.479 241.302C293.855 241.302 293.591 241.038 293.591 240.614ZM297.814 241.718H298.462V239.55C298.462 238.582 298.982 238.054 299.638 238.054C300.254 238.054 300.662 238.502 300.662 239.182V241.718H301.302V239.59C301.302 238.67 301.774 238.054 302.486 238.054C303.102 238.054 303.51 238.502 303.51 239.182V241.718H304.15V238.974C304.15 238.07 303.59 237.462 302.742 237.462C302.054 237.462 301.526 237.862 301.318 238.59H301.262C301.126 237.902 300.614 237.462 299.894 237.462C299.206 237.462 298.71 237.862 298.502 238.59H298.462L298.414 237.59H297.806L297.814 241.718ZM307.105 241.846C308.129 241.846 308.889 241.214 309.009 240.27H308.353C308.233 240.838 307.793 241.286 307.105 241.286C306.305 241.286 305.713 240.758 305.697 239.758H309.025C309.033 239.654 309.041 239.558 309.041 239.462C309.041 238.294 308.209 237.462 307.089 237.462C305.889 237.462 305.057 238.254 305.057 239.638C305.057 241.126 305.913 241.846 307.105 241.846ZM305.697 239.31C305.753 238.462 306.321 238.022 307.065 238.022C307.857 238.022 308.337 238.534 308.385 239.31H305.697ZM309.942 241.718H310.59V239.59C310.59 238.67 311.11 238.054 311.862 238.054C312.598 238.054 312.95 238.43 312.95 239.126V241.718H313.59V238.974C313.59 238.07 312.998 237.462 312.102 237.462C311.382 237.462 310.862 237.87 310.638 238.606H310.59L310.55 237.59H309.942V241.718ZM314.174 238.07H314.91V240.67C314.91 241.478 315.246 241.758 316.086 241.758C316.286 241.758 316.494 241.726 316.686 241.678V241.166C316.478 241.214 316.302 241.238 316.142 241.238C315.718 241.238 315.55 241.062 315.55 240.614V238.07H316.686V237.59H315.55V236.51H314.91V237.59H314.174V238.07ZM319.115 241.846C320.139 241.846 320.899 241.214 321.019 240.27H320.363C320.243 240.838 319.803 241.286 319.115 241.286C318.315 241.286 317.723 240.758 317.707 239.758H321.035C321.043 239.654 321.051 239.558 321.051 239.462C321.051 238.294 320.219 237.462 319.099 237.462C317.899 237.462 317.067 238.254 317.067 239.638C317.067 241.126 317.923 241.846 319.115 241.846ZM317.707 239.31C317.763 238.462 318.331 238.022 319.075 238.022C319.867 238.022 320.347 238.534 320.395 239.31H317.707ZM324.877 241.846C325.757 241.846 326.413 241.358 326.573 240.582H326.605L326.637 241.718H327.245V238.886C327.245 237.99 326.565 237.462 325.413 237.462C324.309 237.462 323.557 238.062 323.469 239.014H324.125C324.221 238.382 324.717 238.022 325.405 238.022C326.325 238.022 326.605 238.51 326.605 238.87C326.605 239.43 326.181 239.51 325.437 239.51H324.949C323.989 239.51 323.453 239.934 323.453 240.702C323.453 241.406 324.029 241.846 324.877 241.846ZM324.133 240.614C324.133 240.182 324.421 239.942 324.933 239.942H325.437C326.173 239.942 326.517 239.782 326.573 239.422H326.605V239.886C326.605 240.55 325.997 241.302 325.021 241.302C324.397 241.302 324.133 241.038 324.133 240.614ZM328.347 243.19H328.987V240.694H329.019C329.283 241.446 329.827 241.862 330.539 241.862C331.659 241.862 332.403 240.982 332.403 239.662C332.403 238.342 331.659 237.462 330.539 237.462C329.827 237.462 329.283 237.878 329.019 238.63H328.987L328.955 237.59H328.347V243.19ZM328.987 239.87V239.454C328.987 238.686 329.539 238.038 330.371 238.038C331.203 238.038 331.755 238.686 331.755 239.662C331.755 240.638 331.203 241.286 330.371 241.286C329.539 241.286 328.987 240.638 328.987 239.87ZM335.282 241.846C336.41 241.846 337.434 240.998 337.434 239.638C337.434 238.31 336.41 237.462 335.282 237.462C334.154 237.462 333.13 238.31 333.13 239.638C333.13 240.998 334.154 241.846 335.282 241.846ZM333.786 239.638C333.786 238.646 334.402 238.038 335.282 238.038C336.162 238.038 336.778 238.646 336.778 239.638C336.778 240.654 336.162 241.27 335.282 241.27C334.402 241.27 333.786 240.654 333.786 239.638ZM334.25 236.63L334.434 237.11L336.682 236.302L336.49 235.79L334.25 236.63ZM339.865 241.846C340.913 241.846 341.577 241.358 341.577 240.59C341.577 239.742 340.849 239.526 340.121 239.39L339.657 239.302C339.129 239.206 338.705 239.078 338.705 238.67C338.705 238.27 339.073 238.022 339.713 238.022C340.369 238.022 340.801 238.358 340.801 238.902H341.457C341.457 238.014 340.769 237.462 339.713 237.462C338.673 237.462 338.065 237.934 338.065 238.694C338.065 239.534 338.793 239.742 339.513 239.87L340.017 239.958C340.521 240.046 340.921 240.198 340.921 240.614C340.921 241.03 340.513 241.286 339.865 241.286C339.113 241.286 338.673 240.974 338.617 240.406H337.961C338.017 241.318 338.705 241.846 339.865 241.846ZM345.289 241.846C346.169 241.846 346.825 241.358 346.985 240.582H347.017L347.049 241.718H347.657V238.886C347.657 237.99 346.977 237.462 345.825 237.462C344.721 237.462 343.969 238.062 343.881 239.014H344.537C344.633 238.382 345.129 238.022 345.817 238.022C346.737 238.022 347.017 238.51 347.017 238.87C347.017 239.43 346.593 239.51 345.849 239.51H345.361C344.401 239.51 343.865 239.934 343.865 240.702C343.865 241.406 344.441 241.846 345.289 241.846ZM344.545 240.614C344.545 240.182 344.833 239.942 345.345 239.942H345.849C346.585 239.942 346.929 239.782 346.985 239.422H347.017V239.886C347.017 240.55 346.409 241.302 345.433 241.302C344.809 241.302 344.545 241.038 344.545 240.614ZM352.316 241.846C353.38 241.846 354.14 241.198 354.236 240.214H353.572C353.492 240.83 353.02 241.27 352.316 241.27C351.492 241.27 350.956 240.574 350.956 239.606C350.956 238.662 351.492 238.038 352.316 238.038C353.004 238.038 353.468 238.422 353.564 239.014H354.228C354.092 238.078 353.348 237.462 352.316 237.462C351.108 237.462 350.3 238.326 350.3 239.622C350.3 240.958 351.108 241.846 352.316 241.846ZM357.013 241.846C358.141 241.846 359.165 240.998 359.165 239.638C359.165 238.31 358.141 237.462 357.013 237.462C355.885 237.462 354.861 238.31 354.861 239.638C354.861 240.998 355.885 241.846 357.013 241.846ZM355.517 239.638C355.517 238.646 356.133 238.038 357.013 238.038C357.893 238.038 358.509 238.646 358.509 239.638C358.509 240.654 357.893 241.27 357.013 241.27C356.133 241.27 355.517 240.654 355.517 239.638ZM360.074 241.718H360.722V239.55C360.722 238.582 361.242 238.054 361.898 238.054C362.514 238.054 362.922 238.502 362.922 239.182V241.718H363.562V239.59C363.562 238.67 364.034 238.054 364.746 238.054C365.362 238.054 365.77 238.502 365.77 239.182V241.718H366.41V238.974C366.41 238.07 365.85 237.462 365.002 237.462C364.314 237.462 363.786 237.862 363.578 238.59H363.522C363.386 237.902 362.874 237.462 362.154 237.462C361.466 237.462 360.97 237.862 360.762 238.59H360.722L360.674 237.59H360.066L360.074 241.718ZM367.518 243.19H368.158V240.694H368.19C368.454 241.446 368.998 241.862 369.71 241.862C370.83 241.862 371.574 240.982 371.574 239.662C371.574 238.342 370.83 237.462 369.71 237.462C368.998 237.462 368.454 237.878 368.19 238.63H368.158L368.126 237.59H367.518V243.19ZM368.158 239.87V239.454C368.158 238.686 368.71 238.038 369.542 238.038C370.374 238.038 370.926 238.686 370.926 239.662C370.926 240.638 370.374 241.286 369.542 241.286C368.71 241.286 368.158 240.638 368.158 239.87ZM372.477 241.718H373.117V240.246C373.117 239.47 373.253 238.902 373.605 238.55C373.885 238.27 374.293 238.126 374.869 238.102V237.526C373.845 237.526 373.333 237.982 373.149 238.862H373.117L373.093 237.59H372.477V241.718ZM376.682 241.846C377.562 241.846 378.218 241.358 378.378 240.582H378.41L378.442 241.718H379.05V238.886C379.05 237.99 378.37 237.462 377.218 237.462C376.114 237.462 375.362 238.062 375.274 239.014H375.93C376.026 238.382 376.522 238.022 377.21 238.022C378.13 238.022 378.41 238.51 378.41 238.87C378.41 239.43 377.986 239.51 377.242 239.51H376.754C375.794 239.51 375.258 239.934 375.258 240.702C375.258 241.406 375.834 241.846 376.682 241.846ZM375.938 240.614C375.938 240.182 376.226 239.942 376.738 239.942H377.242C377.978 239.942 378.322 239.782 378.378 239.422H378.41V239.886C378.41 240.55 377.802 241.302 376.826 241.302C376.202 241.302 375.938 241.038 375.938 240.614Z" fill="white"/>
<g opacity="0.2">
<path fill-rule="evenodd" clip-rule="evenodd" d="M453.634 221.573C453.961 221.573 454.253 221.779 454.363 222.087L454.757 223.184C454.82 223.356 454.941 223.501 455.1 223.593L456.268 224.268C456.427 224.359 456.613 224.392 456.793 224.359L457.941 224.152C458.263 224.094 458.587 224.244 458.751 224.527L459.371 225.597C459.536 225.88 459.505 226.236 459.294 226.486L458.541 227.376C458.422 227.516 458.357 227.694 458.357 227.877V229.226C458.357 229.41 458.422 229.587 458.541 229.727L459.294 230.617C459.505 230.867 459.536 231.223 459.371 231.506L458.751 232.576C458.588 232.859 458.264 233.009 457.942 232.951L456.794 232.744C456.614 232.711 456.428 232.744 456.269 232.835L455.101 233.51C454.942 233.602 454.821 233.747 454.758 233.919L454.364 235.017C454.254 235.325 453.961 235.53 453.634 235.53H452.393C452.066 235.53 451.774 235.324 451.664 235.017L451.27 233.919C451.207 233.747 451.086 233.602 450.928 233.51L449.759 232.835C449.6 232.744 449.414 232.711 449.234 232.744L448.086 232.951C447.764 233.01 447.44 232.859 447.276 232.576L446.656 231.506C446.491 231.223 446.522 230.867 446.733 230.617L447.486 229.727C447.605 229.587 447.67 229.41 447.67 229.226V227.877C447.67 227.694 447.605 227.516 447.486 227.376L446.741 226.486C446.53 226.236 446.499 225.88 446.663 225.597L447.284 224.527C447.447 224.244 447.771 224.094 448.093 224.152L449.241 224.359C449.421 224.392 449.607 224.359 449.766 224.268L450.935 223.593C451.093 223.501 451.214 223.356 451.277 223.184L451.671 222.087C451.78 221.781 452.069 221.576 452.393 221.573H453.634Z" stroke="white" stroke-width="1.5" stroke-linecap="round" stroke-linejoin="round"/>
<path fill-rule="evenodd" clip-rule="evenodd" d="M453.013 230.684C454.191 230.684 455.145 229.729 455.145 228.551C455.145 227.374 454.191 226.419 453.013 226.419C451.836 226.419 450.881 227.374 450.881 228.551C450.881 229.729 451.836 230.684 453.013 230.684Z" stroke="white" stroke-width="1.5" stroke-linecap="round" stroke-linejoin="round"/>
</g>
<g opacity="0.2">
<path d="M490.3 229.155L492.108 227.346C493.439 226.015 493.439 223.856 492.108 222.523V222.523C490.776 221.192 488.617 221.192 487.285 222.523L485.477 224.331" stroke="white" stroke-width="1.5" stroke-linecap="round" stroke-linejoin="round"/>
<path d="M483.669 230.962L488.49 226.141" stroke="white" stroke-width="1.5" stroke-linecap="round" stroke-linejoin="round"/>
<path d="M481.86 227.948L480.051 229.757C478.72 231.088 478.72 233.247 480.051 234.58V234.58C481.383 235.911 483.542 235.911 484.874 234.58L486.683 232.772" stroke="white" stroke-width="1.5" stroke-linecap="round" stroke-linejoin="round"/>
</g>
<g opacity="0.23">
<path d="M129.671 223.385V234.132" stroke="white" stroke-width="1.5" stroke-linecap="round" stroke-linejoin="round"/>
<path d="M126.6 226.456L129.67 223.385L132.741 226.456" stroke="white" stroke-width="1.5" stroke-linecap="round" stroke-linejoin="round"/>
<path d="M124.292 234.132V223.385" stroke="white" stroke-width="1.5" stroke-linecap="round" stroke-linejoin="round"/>
<path d="M127.363 231.061L124.293 234.132L121.222 231.061" stroke="white" stroke-width="1.5" stroke-linecap="round" stroke-linejoin="round"/>
</g>
<g filter="url(#filter2_b_1280_5120)">
<rect x="97.5684" y="290.459" width="420.589" height="81.6377" rx="8" fill="black" fill-opacity="0.2"/>
<rect x="98.0684" y="290.959" width="419.589" height="80.6377" rx="7.5" stroke="white" stroke-opacity="0.1"/>
</g>
<path d="M193.105 310.169H156.821C154.855 310.169 153.262 311.763 153.262 313.729V350.012C153.262 351.978 154.855 353.572 156.821 353.572H193.105C195.07 353.572 196.664 351.978 196.664 350.012V313.729C196.664 311.763 195.07 310.169 193.105 310.169Z" fill="#C63DC4"/>
<path d="M184.263 323.604V327.59H177.62V328.918H177.619V342.205H172.305V337.922L172.306 337.92V332.788C172.306 332.437 172.446 332.1 172.694 331.852L176.154 328.392C176.242 328.304 176.291 328.184 176.291 328.06C176.291 327.8 176.081 327.59 175.822 327.59H165.662V323.604H184.263V323.604Z" fill="white"/>
<path d="M216.845 320.345C218.825 320.345 220.057 319.047 220.277 317.342H219.309C219.111 318.497 218.264 319.487 216.845 319.487C215.25 319.487 214.161 318.244 214.161 316.286C214.161 314.328 215.25 313.151 216.845 313.151C218.099 313.151 218.913 313.888 219.221 314.856H220.211C219.859 313.371 218.66 312.293 216.845 312.293C214.689 312.293 213.215 313.8 213.215 316.286C213.215 318.772 214.689 320.345 216.845 320.345ZM224.163 320.345C225.714 320.345 227.122 319.179 227.122 317.309C227.122 315.483 225.714 314.317 224.163 314.317C222.612 314.317 221.204 315.483 221.204 317.309C221.204 319.179 222.612 320.345 224.163 320.345ZM222.106 317.309C222.106 315.945 222.953 315.109 224.163 315.109C225.373 315.109 226.22 315.945 226.22 317.309C226.22 318.706 225.373 319.553 224.163 319.553C222.953 319.553 222.106 318.706 222.106 317.309ZM228.363 320.169H229.254V317.243C229.254 315.978 229.969 315.131 231.003 315.131C232.015 315.131 232.499 315.648 232.499 316.605V320.169H233.379V316.396C233.379 315.153 232.565 314.317 231.333 314.317C230.343 314.317 229.628 314.878 229.32 315.89H229.254L229.199 314.493H228.363V320.169ZM234.181 315.153H235.193V318.728C235.193 319.839 235.655 320.224 236.81 320.224C237.085 320.224 237.371 320.18 237.635 320.114V319.41C237.349 319.476 237.107 319.509 236.887 319.509C236.304 319.509 236.073 319.267 236.073 318.651V315.153H237.635V314.493H236.073V313.008H235.193V314.493H234.181V315.153ZM240.975 320.345C242.383 320.345 243.428 319.476 243.593 318.178H242.691C242.526 318.959 241.921 319.575 240.975 319.575C239.875 319.575 239.061 318.849 239.039 317.474H243.615C243.626 317.331 243.637 317.199 243.637 317.067C243.637 315.461 242.493 314.317 240.953 314.317C239.303 314.317 238.159 315.406 238.159 317.309C238.159 319.355 239.336 320.345 240.975 320.345ZM239.039 316.858C239.116 315.692 239.897 315.087 240.92 315.087C242.009 315.087 242.669 315.791 242.735 316.858H239.039ZM246.869 320.345C247.859 320.345 248.574 319.784 248.882 318.772H248.948L249.003 320.169H249.839V314.493H248.948V317.419C248.948 318.684 248.255 319.531 247.221 319.531C246.308 319.531 245.703 318.915 245.703 317.98V314.493H244.823V318.266C244.823 319.509 245.637 320.345 246.869 320.345ZM245.934 313.173L246.187 313.833L249.278 312.722L249.014 312.018L245.934 313.173ZM250.861 317.342C250.861 319.157 251.884 320.367 253.424 320.367C254.403 320.367 255.151 319.795 255.514 318.761H255.558L255.602 320.169H256.438V312.469H255.558V315.923H255.514C255.151 314.889 254.403 314.317 253.424 314.317C251.884 314.317 250.861 315.527 250.861 317.342ZM251.752 317.342C251.752 316 252.511 315.109 253.655 315.109C254.799 315.109 255.558 316 255.558 317.056V317.628C255.558 318.684 254.799 319.575 253.655 319.575C252.511 319.575 251.752 318.684 251.752 317.342ZM260.639 320.345C262.19 320.345 263.598 319.179 263.598 317.309C263.598 315.483 262.19 314.317 260.639 314.317C259.088 314.317 257.68 315.483 257.68 317.309C257.68 319.179 259.088 320.345 260.639 320.345ZM258.582 317.309C258.582 315.945 259.429 315.109 260.639 315.109C261.849 315.109 262.696 315.945 262.696 317.309C262.696 318.706 261.849 319.553 260.639 319.553C259.429 319.553 258.582 318.706 258.582 317.309ZM267.506 320.169H268.386V315.153H270.091V314.493H268.364V314.108C268.364 313.305 268.749 313.019 269.398 313.019C269.607 313.019 269.838 313.041 270.091 313.096V312.381C269.816 312.326 269.552 312.304 269.31 312.304C268.221 312.304 267.506 312.854 267.506 313.998V314.493H266.736V315.153H267.506V320.169ZM273.11 320.345C274.1 320.345 274.815 319.784 275.123 318.772H275.189L275.244 320.169H276.08V314.493H275.189V317.419C275.189 318.684 274.496 319.531 273.462 319.531C272.549 319.531 271.944 318.915 271.944 317.98V314.493H271.064V318.266C271.064 319.509 271.878 320.345 273.11 320.345ZM277.097 315.153H278.109V318.728C278.109 319.839 278.571 320.224 279.726 320.224C280.001 320.224 280.287 320.18 280.551 320.114V319.41C280.265 319.476 280.023 319.509 279.803 319.509C279.22 319.509 278.989 319.267 278.989 318.651V315.153H280.551V314.493H278.989V313.008H278.109V314.493H277.097V315.153ZM283.728 320.345C284.718 320.345 285.433 319.784 285.741 318.772H285.807L285.862 320.169H286.698V314.493H285.807V317.419C285.807 318.684 285.114 319.531 284.08 319.531C283.167 319.531 282.562 318.915 282.562 317.98V314.493H281.682V318.266C281.682 319.509 282.496 320.345 283.728 320.345ZM288.211 320.169H289.091V318.145C289.091 317.078 289.278 316.297 289.762 315.813C290.147 315.428 290.708 315.23 291.5 315.197V314.405C290.092 314.405 289.388 315.032 289.135 316.242H289.091L289.058 314.493H288.211V320.169ZM294.77 320.345C296.321 320.345 297.729 319.179 297.729 317.309C297.729 315.483 296.321 314.317 294.77 314.317C293.219 314.317 291.811 315.483 291.811 317.309C291.811 319.179 293.219 320.345 294.77 320.345ZM292.713 317.309C292.713 315.945 293.56 315.109 294.77 315.109C295.98 315.109 296.827 315.945 296.827 317.309C296.827 318.706 295.98 319.553 294.77 319.553C293.56 319.553 292.713 318.706 292.713 317.309Z" fill="white"/>
<rect opacity="0.2" x="212.676" y="330.837" width="181.876" height="22.7346" rx="4" fill="black" fill-opacity="0.9"/>
<path opacity="0.4" d="M222.551 339.438V345.038H223.191V339.438H222.551ZM224.372 340.91V345.038H225.012V340.91H224.372ZM224.26 339.798C224.26 340.038 224.452 340.23 224.692 340.23C224.932 340.23 225.124 340.038 225.124 339.798C225.124 339.558 224.932 339.366 224.692 339.366C224.452 339.366 224.26 339.558 224.26 339.798ZM226.219 345.038H226.827L226.859 344.014H226.891C227.155 344.766 227.699 345.182 228.411 345.182C229.531 345.182 230.275 344.302 230.275 342.982C230.275 341.662 229.531 340.782 228.411 340.782C227.699 340.782 227.155 341.198 226.891 341.95H226.859V339.438H226.219V345.038ZM226.859 343.19V342.774C226.859 342.006 227.411 341.358 228.243 341.358C229.075 341.358 229.627 342.006 229.627 342.982C229.627 343.958 229.075 344.606 228.243 344.606C227.411 344.606 226.859 343.958 226.859 343.19ZM233.05 345.166C234.074 345.166 234.834 344.534 234.954 343.59H234.298C234.178 344.158 233.738 344.606 233.05 344.606C232.25 344.606 231.658 344.078 231.642 343.078H234.97C234.978 342.974 234.986 342.878 234.986 342.782C234.986 341.614 234.154 340.782 233.034 340.782C231.834 340.782 231.002 341.574 231.002 342.958C231.002 344.446 231.858 345.166 233.05 345.166ZM231.642 342.63C231.698 341.782 232.266 341.342 233.01 341.342C233.802 341.342 234.282 341.854 234.33 342.63H231.642ZM235.887 345.038H236.527V343.566C236.527 342.79 236.663 342.222 237.015 341.87C237.295 341.59 237.703 341.446 238.279 341.422V340.846C237.255 340.846 236.743 341.302 236.559 342.182H236.527L236.503 340.91H235.887V345.038ZM240.093 345.166C240.973 345.166 241.629 344.678 241.789 343.902H241.821L241.853 345.038H242.461V342.206C242.461 341.31 241.781 340.782 240.629 340.782C239.525 340.782 238.773 341.382 238.685 342.334H239.341C239.437 341.702 239.933 341.342 240.621 341.342C241.541 341.342 241.821 341.83 241.821 342.19C241.821 342.75 241.397 342.83 240.653 342.83H240.165C239.205 342.83 238.669 343.254 238.669 344.022C238.669 344.726 239.245 345.166 240.093 345.166ZM239.349 343.934C239.349 343.502 239.637 343.262 240.149 343.262H240.653C241.389 343.262 241.733 343.102 241.789 342.742H241.821V343.206C241.821 343.87 241.213 344.622 240.237 344.622C239.613 344.622 239.349 344.358 239.349 343.934ZM243.324 342.982C243.324 344.302 244.068 345.182 245.188 345.182C245.9 345.182 246.444 344.766 246.708 344.014H246.74L246.772 345.038H247.38V339.438H246.74V341.95H246.708C246.444 341.198 245.9 340.782 245.188 340.782C244.068 340.782 243.324 341.662 243.324 342.982ZM243.972 342.982C243.972 342.006 244.524 341.358 245.356 341.358C246.188 341.358 246.74 342.006 246.74 342.774V343.19C246.74 343.958 246.188 344.606 245.356 344.606C244.524 344.606 243.972 343.958 243.972 342.982ZM250.435 345.166C251.563 345.166 252.587 344.318 252.587 342.958C252.587 341.63 251.563 340.782 250.435 340.782C249.307 340.782 248.283 341.63 248.283 342.958C248.283 344.318 249.307 345.166 250.435 345.166ZM248.939 342.958C248.939 341.966 249.555 341.358 250.435 341.358C251.315 341.358 251.931 341.966 251.931 342.958C251.931 343.974 251.315 344.59 250.435 344.59C249.555 344.59 248.939 343.974 248.939 342.958ZM253.825 342.014C254.105 342.014 254.305 341.822 254.305 341.542C254.305 341.286 254.105 341.094 253.825 341.094C253.569 341.094 253.369 341.286 253.369 341.542C253.369 341.822 253.569 342.014 253.825 342.014ZM253.369 344.686C253.369 344.966 253.569 345.158 253.825 345.158C254.105 345.158 254.305 344.966 254.305 344.686C254.305 344.43 254.105 344.238 253.825 344.238C253.569 344.238 253.369 344.43 253.369 344.686Z" fill="white"/>
<path opacity="0.8" d="M264.978 339.438V345.038H265.65V339.438H264.978ZM266.803 345.038H267.451V342.87C267.451 341.902 267.971 341.374 268.627 341.374C269.243 341.374 269.651 341.822 269.651 342.502V345.038H270.291V342.91C270.291 341.99 270.763 341.374 271.475 341.374C272.091 341.374 272.499 341.822 272.499 342.502V345.038H273.139V342.294C273.139 341.39 272.579 340.782 271.731 340.782C271.043 340.782 270.515 341.182 270.307 341.91H270.251C270.115 341.222 269.603 340.782 268.883 340.782C268.195 340.782 267.699 341.182 267.491 341.91H267.451L267.403 340.91H266.795L266.803 345.038ZM276.094 345.166C277.118 345.166 277.878 344.534 277.998 343.59H277.342C277.222 344.158 276.782 344.606 276.094 344.606C275.294 344.606 274.702 344.078 274.686 343.078H278.014C278.022 342.974 278.03 342.878 278.03 342.782C278.03 341.614 277.198 340.782 276.078 340.782C274.878 340.782 274.046 341.574 274.046 342.958C274.046 344.446 274.902 345.166 276.094 345.166ZM274.686 342.63C274.742 341.782 275.31 341.342 276.054 341.342C276.846 341.342 277.326 341.854 277.374 342.63H274.686ZM278.732 342.982C278.732 344.302 279.476 345.182 280.596 345.182C281.308 345.182 281.852 344.766 282.116 344.014H282.148L282.18 345.038H282.788V339.438H282.148V341.95H282.116C281.852 341.198 281.308 340.782 280.596 340.782C279.476 340.782 278.732 341.662 278.732 342.982ZM279.38 342.982C279.38 342.006 279.932 341.358 280.764 341.358C281.596 341.358 282.148 342.006 282.148 342.774V343.19C282.148 343.958 281.596 344.606 280.764 344.606C279.932 344.606 279.38 343.958 279.38 342.982ZM283.987 340.91V345.038H284.627V340.91H283.987ZM283.875 339.798C283.875 340.038 284.067 340.23 284.307 340.23C284.547 340.23 284.739 340.038 284.739 339.798C284.739 339.558 284.547 339.366 284.307 339.366C284.067 339.366 283.875 339.558 283.875 339.798ZM287.019 345.166C287.899 345.166 288.555 344.678 288.715 343.902H288.747L288.779 345.038H289.387V342.206C289.387 341.31 288.707 340.782 287.555 340.782C286.451 340.782 285.699 341.382 285.611 342.334H286.267C286.363 341.702 286.859 341.342 287.547 341.342C288.467 341.342 288.747 341.83 288.747 342.19C288.747 342.75 288.323 342.83 287.579 342.83H287.091C286.131 342.83 285.595 343.254 285.595 344.022C285.595 344.726 286.171 345.166 287.019 345.166ZM286.275 343.934C286.275 343.502 286.563 343.262 287.075 343.262H287.579C288.315 343.262 288.659 343.102 288.715 342.742H288.747V343.206C288.747 343.87 288.139 344.622 287.163 344.622C286.539 344.622 286.275 344.358 286.275 343.934ZM289.973 341.39H290.709V343.99C290.709 344.798 291.045 345.078 291.885 345.078C292.085 345.078 292.293 345.046 292.485 344.998V344.486C292.277 344.534 292.101 344.558 291.941 344.558C291.517 344.558 291.349 344.382 291.349 343.934V341.39H292.485V340.91H291.349V339.83H290.709V340.91H289.973V341.39ZM294.335 345.166C295.215 345.166 295.871 344.678 296.031 343.902H296.063L296.095 345.038H296.703V342.206C296.703 341.31 296.023 340.782 294.871 340.782C293.767 340.782 293.015 341.382 292.927 342.334H293.583C293.679 341.702 294.175 341.342 294.863 341.342C295.783 341.342 296.063 341.83 296.063 342.19C296.063 342.75 295.639 342.83 294.895 342.83H294.407C293.447 342.83 292.911 343.254 292.911 344.022C292.911 344.726 293.487 345.166 294.335 345.166ZM293.591 343.934C293.591 343.502 293.879 343.262 294.391 343.262H294.895C295.631 343.262 295.975 343.102 296.031 342.742H296.063V343.206C296.063 343.87 295.455 344.622 294.479 344.622C293.855 344.622 293.591 344.358 293.591 343.934ZM297.814 345.038H298.462V342.87C298.462 341.902 298.982 341.374 299.638 341.374C300.254 341.374 300.662 341.822 300.662 342.502V345.038H301.302V342.91C301.302 341.99 301.774 341.374 302.486 341.374C303.102 341.374 303.51 341.822 303.51 342.502V345.038H304.15V342.294C304.15 341.39 303.59 340.782 302.742 340.782C302.054 340.782 301.526 341.182 301.318 341.91H301.262C301.126 341.222 300.614 340.782 299.894 340.782C299.206 340.782 298.71 341.182 298.502 341.91H298.462L298.414 340.91H297.806L297.814 345.038ZM307.105 345.166C308.129 345.166 308.889 344.534 309.009 343.59H308.353C308.233 344.158 307.793 344.606 307.105 344.606C306.305 344.606 305.713 344.078 305.697 343.078H309.025C309.033 342.974 309.041 342.878 309.041 342.782C309.041 341.614 308.209 340.782 307.089 340.782C305.889 340.782 305.057 341.574 305.057 342.958C305.057 344.446 305.913 345.166 307.105 345.166ZM305.697 342.63C305.753 341.782 306.321 341.342 307.065 341.342C307.857 341.342 308.337 341.854 308.385 342.63H305.697ZM309.942 345.038H310.59V342.91C310.59 341.99 311.11 341.374 311.862 341.374C312.598 341.374 312.95 341.75 312.95 342.446V345.038H313.59V342.294C313.59 341.39 312.998 340.782 312.102 340.782C311.382 340.782 310.862 341.19 310.638 341.926H310.59L310.55 340.91H309.942V345.038ZM314.174 341.39H314.91V343.99C314.91 344.798 315.246 345.078 316.086 345.078C316.286 345.078 316.494 345.046 316.686 344.998V344.486C316.478 344.534 316.302 344.558 316.142 344.558C315.718 344.558 315.55 344.382 315.55 343.934V341.39H316.686V340.91H315.55V339.83H314.91V340.91H314.174V341.39ZM319.115 345.166C320.139 345.166 320.899 344.534 321.019 343.59H320.363C320.243 344.158 319.803 344.606 319.115 344.606C318.315 344.606 317.723 344.078 317.707 343.078H321.035C321.043 342.974 321.051 342.878 321.051 342.782C321.051 341.614 320.219 340.782 319.099 340.782C317.899 340.782 317.067 341.574 317.067 342.958C317.067 344.446 317.923 345.166 319.115 345.166ZM317.707 342.63C317.763 341.782 318.331 341.342 319.075 341.342C319.867 341.342 320.347 341.854 320.395 342.63H317.707ZM324.877 345.166C325.757 345.166 326.413 344.678 326.573 343.902H326.605L326.637 345.038H327.245V342.206C327.245 341.31 326.565 340.782 325.413 340.782C324.309 340.782 323.557 341.382 323.469 342.334H324.125C324.221 341.702 324.717 341.342 325.405 341.342C326.325 341.342 326.605 341.83 326.605 342.19C326.605 342.75 326.181 342.83 325.437 342.83H324.949C323.989 342.83 323.453 343.254 323.453 344.022C323.453 344.726 324.029 345.166 324.877 345.166ZM324.133 343.934C324.133 343.502 324.421 343.262 324.933 343.262H325.437C326.173 343.262 326.517 343.102 326.573 342.742H326.605V343.206C326.605 343.87 325.997 344.622 325.021 344.622C324.397 344.622 324.133 344.358 324.133 343.934ZM328.347 346.51H328.987V344.014H329.019C329.283 344.766 329.827 345.182 330.539 345.182C331.659 345.182 332.403 344.302 332.403 342.982C332.403 341.662 331.659 340.782 330.539 340.782C329.827 340.782 329.283 341.198 329.019 341.95H328.987L328.955 340.91H328.347V346.51ZM328.987 343.19V342.774C328.987 342.006 329.539 341.358 330.371 341.358C331.203 341.358 331.755 342.006 331.755 342.982C331.755 343.958 331.203 344.606 330.371 344.606C329.539 344.606 328.987 343.958 328.987 343.19ZM335.282 345.166C336.41 345.166 337.434 344.318 337.434 342.958C337.434 341.63 336.41 340.782 335.282 340.782C334.154 340.782 333.13 341.63 333.13 342.958C333.13 344.318 334.154 345.166 335.282 345.166ZM333.786 342.958C333.786 341.966 334.402 341.358 335.282 341.358C336.162 341.358 336.778 341.966 336.778 342.958C336.778 343.974 336.162 344.59 335.282 344.59C334.402 344.59 333.786 343.974 333.786 342.958ZM334.25 339.95L334.434 340.43L336.682 339.622L336.49 339.11L334.25 339.95ZM339.865 345.166C340.913 345.166 341.577 344.678 341.577 343.91C341.577 343.062 340.849 342.846 340.121 342.71L339.657 342.622C339.129 342.526 338.705 342.398 338.705 341.99C338.705 341.59 339.073 341.342 339.713 341.342C340.369 341.342 340.801 341.678 340.801 342.222H341.457C341.457 341.334 340.769 340.782 339.713 340.782C338.673 340.782 338.065 341.254 338.065 342.014C338.065 342.854 338.793 343.062 339.513 343.19L340.017 343.278C340.521 343.366 340.921 343.518 340.921 343.934C340.921 344.35 340.513 344.606 339.865 344.606C339.113 344.606 338.673 344.294 338.617 343.726H337.961C338.017 344.638 338.705 345.166 339.865 345.166ZM345.289 345.166C346.169 345.166 346.825 344.678 346.985 343.902H347.017L347.049 345.038H347.657V342.206C347.657 341.31 346.977 340.782 345.825 340.782C344.721 340.782 343.969 341.382 343.881 342.334H344.537C344.633 341.702 345.129 341.342 345.817 341.342C346.737 341.342 347.017 341.83 347.017 342.19C347.017 342.75 346.593 342.83 345.849 342.83H345.361C344.401 342.83 343.865 343.254 343.865 344.022C343.865 344.726 344.441 345.166 345.289 345.166ZM344.545 343.934C344.545 343.502 344.833 343.262 345.345 343.262H345.849C346.585 343.262 346.929 343.102 346.985 342.742H347.017V343.206C347.017 343.87 346.409 344.622 345.433 344.622C344.809 344.622 344.545 344.358 344.545 343.934ZM352.316 345.166C353.38 345.166 354.14 344.518 354.236 343.534H353.572C353.492 344.15 353.02 344.59 352.316 344.59C351.492 344.59 350.956 343.894 350.956 342.926C350.956 341.982 351.492 341.358 352.316 341.358C353.004 341.358 353.468 341.742 353.564 342.334H354.228C354.092 341.398 353.348 340.782 352.316 340.782C351.108 340.782 350.3 341.646 350.3 342.942C350.3 344.278 351.108 345.166 352.316 345.166ZM357.013 345.166C358.141 345.166 359.165 344.318 359.165 342.958C359.165 341.63 358.141 340.782 357.013 340.782C355.885 340.782 354.861 341.63 354.861 342.958C354.861 344.318 355.885 345.166 357.013 345.166ZM355.517 342.958C355.517 341.966 356.133 341.358 357.013 341.358C357.893 341.358 358.509 341.966 358.509 342.958C358.509 343.974 357.893 344.59 357.013 344.59C356.133 344.59 355.517 343.974 355.517 342.958ZM360.074 345.038H360.722V342.87C360.722 341.902 361.242 341.374 361.898 341.374C362.514 341.374 362.922 341.822 362.922 342.502V345.038H363.562V342.91C363.562 341.99 364.034 341.374 364.746 341.374C365.362 341.374 365.77 341.822 365.77 342.502V345.038H366.41V342.294C366.41 341.39 365.85 340.782 365.002 340.782C364.314 340.782 363.786 341.182 363.578 341.91H363.522C363.386 341.222 362.874 340.782 362.154 340.782C361.466 340.782 360.97 341.182 360.762 341.91H360.722L360.674 340.91H360.066L360.074 345.038ZM367.518 346.51H368.158V344.014H368.19C368.454 344.766 368.998 345.182 369.71 345.182C370.83 345.182 371.574 344.302 371.574 342.982C371.574 341.662 370.83 340.782 369.71 340.782C368.998 340.782 368.454 341.198 368.19 341.95H368.158L368.126 340.91H367.518V346.51ZM368.158 343.19V342.774C368.158 342.006 368.71 341.358 369.542 341.358C370.374 341.358 370.926 342.006 370.926 342.982C370.926 343.958 370.374 344.606 369.542 344.606C368.71 344.606 368.158 343.958 368.158 343.19ZM372.477 345.038H373.117V343.566C373.117 342.79 373.253 342.222 373.605 341.87C373.885 341.59 374.293 341.446 374.869 341.422V340.846C373.845 340.846 373.333 341.302 373.149 342.182H373.117L373.093 340.91H372.477V345.038ZM376.682 345.166C377.562 345.166 378.218 344.678 378.378 343.902H378.41L378.442 345.038H379.05V342.206C379.05 341.31 378.37 340.782 377.218 340.782C376.114 340.782 375.362 341.382 375.274 342.334H375.93C376.026 341.702 376.522 341.342 377.21 341.342C378.13 341.342 378.41 341.83 378.41 342.19C378.41 342.75 377.986 342.83 377.242 342.83H376.754C375.794 342.83 375.258 343.254 375.258 344.022C375.258 344.726 375.834 345.166 376.682 345.166ZM375.938 343.934C375.938 343.502 376.226 343.262 376.738 343.262H377.242C377.978 343.262 378.322 343.102 378.378 342.742H378.41V343.206C378.41 343.87 377.802 344.622 376.826 344.622C376.202 344.622 375.938 344.358 375.938 343.934Z" fill="white"/>
<g opacity="0.2">
<path fill-rule="evenodd" clip-rule="evenodd" d="M453.634 324.892C453.961 324.892 454.253 325.098 454.363 325.406L454.757 326.503C454.82 326.675 454.941 326.82 455.1 326.912L456.268 327.587C456.427 327.678 456.613 327.711 456.793 327.678L457.941 327.471C458.263 327.413 458.587 327.563 458.751 327.846L459.371 328.916C459.536 329.199 459.505 329.555 459.294 329.805L458.541 330.695C458.422 330.835 458.357 331.013 458.357 331.196V332.545C458.357 332.729 458.422 332.906 458.541 333.046L459.294 333.936C459.505 334.186 459.536 334.542 459.371 334.825L458.751 335.895C458.588 336.178 458.264 336.328 457.942 336.27L456.794 336.063C456.614 336.031 456.428 336.063 456.269 336.154L455.101 336.829C454.942 336.921 454.821 337.066 454.758 337.238L454.364 338.336C454.254 338.644 453.961 338.849 453.634 338.849H452.393C452.066 338.849 451.774 338.643 451.664 338.336L451.27 337.238C451.207 337.066 451.086 336.921 450.928 336.829L449.759 336.154C449.6 336.063 449.414 336.031 449.234 336.063L448.086 336.27C447.764 336.329 447.44 336.178 447.276 335.895L446.656 334.825C446.491 334.542 446.522 334.186 446.733 333.936L447.486 333.046C447.605 332.906 447.67 332.729 447.67 332.545V331.196C447.67 331.013 447.605 330.835 447.486 330.695L446.741 329.805C446.53 329.555 446.499 329.199 446.663 328.916L447.284 327.846C447.447 327.563 447.771 327.413 448.093 327.471L449.241 327.678C449.421 327.711 449.607 327.678 449.766 327.587L450.935 326.912C451.093 326.82 451.214 326.675 451.277 326.503L451.671 325.406C451.78 325.1 452.069 324.895 452.393 324.892H453.634Z" stroke="white" stroke-width="1.5" stroke-linecap="round" stroke-linejoin="round"/>
<path fill-rule="evenodd" clip-rule="evenodd" d="M453.013 334.003C454.191 334.003 455.145 333.048 455.145 331.871C455.145 330.693 454.191 329.738 453.013 329.738C451.836 329.738 450.881 330.693 450.881 331.871C450.881 333.048 451.836 334.003 453.013 334.003Z" stroke="white" stroke-width="1.5" stroke-linecap="round" stroke-linejoin="round"/>
</g>
<g opacity="0.2">
<path d="M490.3 332.474L492.108 330.665C493.439 329.334 493.439 327.175 492.108 325.842V325.842C490.776 324.511 488.617 324.511 487.285 325.842L485.477 327.651" stroke="white" stroke-width="1.5" stroke-linecap="round" stroke-linejoin="round"/>
<path d="M483.669 334.281L488.49 329.46" stroke="white" stroke-width="1.5" stroke-linecap="round" stroke-linejoin="round"/>
<path d="M481.86 331.268L480.051 333.076C478.72 334.407 478.72 336.567 480.051 337.899V337.899C481.383 339.23 483.542 339.23 484.874 337.899L486.683 336.091" stroke="white" stroke-width="1.5" stroke-linecap="round" stroke-linejoin="round"/>
</g>
<g opacity="0.23">
<path d="M129.671 326.704V337.452" stroke="white" stroke-width="1.5" stroke-linecap="round" stroke-linejoin="round"/>
<path d="M126.6 329.775L129.67 326.704L132.741 329.775" stroke="white" stroke-width="1.5" stroke-linecap="round" stroke-linejoin="round"/>
<path d="M124.292 337.451V326.704" stroke="white" stroke-width="1.5" stroke-linecap="round" stroke-linejoin="round"/>
<path d="M127.363 334.381L124.293 337.451L121.222 334.381" stroke="white" stroke-width="1.5" stroke-linecap="round" stroke-linejoin="round"/>
</g>
<g filter="url(#filter3_b_1280_5120)">
<rect y="393.778" width="517.528" height="100.454" rx="8" fill="black" fill-opacity="0.2"/>
<rect x="0.5" y="394.278" width="516.528" height="99.4539" rx="7.5" stroke="white" stroke-opacity="0.1"/>
</g>
<path d="M118.995 417.431H74.3487C71.9297 417.431 69.9688 419.392 69.9688 421.811V466.457C69.9688 468.876 71.9297 470.837 74.3487 470.837H118.995C121.414 470.837 123.375 468.876 123.375 466.457V421.811C123.375 419.392 121.414 417.431 118.995 417.431Z" fill="#9D3066"/>
<path d="M108.117 433.961V438.866H99.9422V440.5H99.9411V456.849H93.4031V451.579L93.4042 451.576V445.262C93.4042 444.83 93.5758 444.416 93.8811 444.111L98.1383 439.852C98.2466 439.744 98.3075 439.597 98.3075 439.444C98.3075 439.125 98.0488 438.866 97.7297 438.866H85.2285V433.961H108.117V433.961Z" fill="white"/>
<path d="M147.069 429.832C149.049 429.832 150.281 428.534 150.501 426.829H149.533C149.335 427.984 148.488 428.974 147.069 428.974C145.474 428.974 144.385 427.731 144.385 425.773C144.385 423.815 145.474 422.638 147.069 422.638C148.323 422.638 149.137 423.375 149.445 424.343H150.435C150.083 422.858 148.884 421.78 147.069 421.78C144.913 421.78 143.439 423.287 143.439 425.773C143.439 428.259 144.913 429.832 147.069 429.832ZM154.388 429.832C155.939 429.832 157.347 428.666 157.347 426.796C157.347 424.97 155.939 423.804 154.388 423.804C152.837 423.804 151.429 424.97 151.429 426.796C151.429 428.666 152.837 429.832 154.388 429.832ZM152.331 426.796C152.331 425.432 153.178 424.596 154.388 424.596C155.598 424.596 156.445 425.432 156.445 426.796C156.445 428.193 155.598 429.04 154.388 429.04C153.178 429.04 152.331 428.193 152.331 426.796ZM158.587 429.656H159.478V426.73C159.478 425.465 160.193 424.618 161.227 424.618C162.239 424.618 162.723 425.135 162.723 426.092V429.656H163.603V425.883C163.603 424.64 162.789 423.804 161.557 423.804C160.567 423.804 159.852 424.365 159.544 425.377H159.478L159.423 423.98H158.587V429.656ZM164.406 424.64H165.418V428.215C165.418 429.326 165.88 429.711 167.035 429.711C167.31 429.711 167.596 429.667 167.86 429.601V428.897C167.574 428.963 167.332 428.996 167.112 428.996C166.529 428.996 166.298 428.754 166.298 428.138V424.64H167.86V423.98H166.298V422.495H165.418V423.98H164.406V424.64ZM171.199 429.832C172.607 429.832 173.652 428.963 173.817 427.665H172.915C172.75 428.446 172.145 429.062 171.199 429.062C170.099 429.062 169.285 428.336 169.263 426.961H173.839C173.85 426.818 173.861 426.686 173.861 426.554C173.861 424.948 172.717 423.804 171.177 423.804C169.527 423.804 168.383 424.893 168.383 426.796C168.383 428.842 169.56 429.832 171.199 429.832ZM169.263 426.345C169.34 425.179 170.121 424.574 171.144 424.574C172.233 424.574 172.893 425.278 172.959 426.345H169.263ZM177.093 429.832C178.083 429.832 178.798 429.271 179.106 428.259H179.172L179.227 429.656H180.063V423.98H179.172V426.906C179.172 428.171 178.479 429.018 177.445 429.018C176.532 429.018 175.927 428.402 175.927 427.467V423.98H175.047V427.753C175.047 428.996 175.861 429.832 177.093 429.832ZM176.158 422.66L176.411 423.32L179.502 422.209L179.238 421.505L176.158 422.66ZM181.086 426.829C181.086 428.644 182.109 429.854 183.649 429.854C184.628 429.854 185.376 429.282 185.739 428.248H185.783L185.827 429.656H186.663V421.956H185.783V425.41H185.739C185.376 424.376 184.628 423.804 183.649 423.804C182.109 423.804 181.086 425.014 181.086 426.829ZM181.977 426.829C181.977 425.487 182.736 424.596 183.88 424.596C185.024 424.596 185.783 425.487 185.783 426.543V427.115C185.783 428.171 185.024 429.062 183.88 429.062C182.736 429.062 181.977 428.171 181.977 426.829ZM190.864 429.832C192.415 429.832 193.823 428.666 193.823 426.796C193.823 424.97 192.415 423.804 190.864 423.804C189.313 423.804 187.905 424.97 187.905 426.796C187.905 428.666 189.313 429.832 190.864 429.832ZM188.807 426.796C188.807 425.432 189.654 424.596 190.864 424.596C192.074 424.596 192.921 425.432 192.921 426.796C192.921 428.193 192.074 429.04 190.864 429.04C189.654 429.04 188.807 428.193 188.807 426.796ZM197.731 429.656H198.611V424.64H200.316V423.98H198.589V423.595C198.589 422.792 198.974 422.506 199.623 422.506C199.832 422.506 200.063 422.528 200.316 422.583V421.868C200.041 421.813 199.777 421.791 199.535 421.791C198.446 421.791 197.731 422.341 197.731 423.485V423.98H196.961V424.64H197.731V429.656ZM203.334 429.832C204.324 429.832 205.039 429.271 205.347 428.259H205.413L205.468 429.656H206.304V423.98H205.413V426.906C205.413 428.171 204.72 429.018 203.686 429.018C202.773 429.018 202.168 428.402 202.168 427.467V423.98H201.288V427.753C201.288 428.996 202.102 429.832 203.334 429.832ZM207.322 424.64H208.334V428.215C208.334 429.326 208.796 429.711 209.951 429.711C210.226 429.711 210.512 429.667 210.776 429.601V428.897C210.49 428.963 210.248 428.996 210.028 428.996C209.445 428.996 209.214 428.754 209.214 428.138V424.64H210.776V423.98H209.214V422.495H208.334V423.98H207.322V424.64ZM213.953 429.832C214.943 429.832 215.658 429.271 215.966 428.259H216.032L216.087 429.656H216.923V423.98H216.032V426.906C216.032 428.171 215.339 429.018 214.305 429.018C213.392 429.018 212.787 428.402 212.787 427.467V423.98H211.907V427.753C211.907 428.996 212.721 429.832 213.953 429.832ZM218.436 429.656H219.316V427.632C219.316 426.565 219.503 425.784 219.987 425.3C220.372 424.915 220.933 424.717 221.725 424.684V423.892C220.317 423.892 219.613 424.519 219.36 425.729H219.316L219.283 423.98H218.436V429.656ZM224.995 429.832C226.546 429.832 227.954 428.666 227.954 426.796C227.954 424.97 226.546 423.804 224.995 423.804C223.444 423.804 222.036 424.97 222.036 426.796C222.036 428.666 223.444 429.832 224.995 429.832ZM222.938 426.796C222.938 425.432 223.785 424.596 224.995 424.596C226.205 424.596 227.052 425.432 227.052 426.796C227.052 428.193 226.205 429.04 224.995 429.04C223.785 429.04 222.938 428.193 222.938 426.796Z" fill="white"/>
<rect opacity="0.4" x="143.082" y="441.876" width="223.796" height="27.9745" rx="4" fill="black" fill-opacity="0.9"/>
<path opacity="0.4" d="M156.193 452.922V458.522H156.833V452.922H156.193ZM158.014 454.394V458.522H158.654V454.394H158.014ZM157.902 453.282C157.902 453.522 158.094 453.714 158.334 453.714C158.574 453.714 158.766 453.522 158.766 453.282C158.766 453.042 158.574 452.85 158.334 452.85C158.094 452.85 157.902 453.042 157.902 453.282ZM159.862 458.522H160.47L160.502 457.498H160.534C160.798 458.25 161.342 458.666 162.054 458.666C163.174 458.666 163.918 457.786 163.918 456.466C163.918 455.146 163.174 454.266 162.054 454.266C161.342 454.266 160.798 454.682 160.534 455.434H160.502V452.922H159.862V458.522ZM160.502 456.674V456.258C160.502 455.49 161.054 454.842 161.886 454.842C162.718 454.842 163.27 455.49 163.27 456.466C163.27 457.442 162.718 458.09 161.886 458.09C161.054 458.09 160.502 457.442 160.502 456.674ZM166.692 458.65C167.716 458.65 168.476 458.018 168.596 457.074H167.94C167.82 457.642 167.38 458.09 166.692 458.09C165.892 458.09 165.3 457.562 165.284 456.562H168.612C168.62 456.458 168.628 456.362 168.628 456.266C168.628 455.098 167.796 454.266 166.676 454.266C165.476 454.266 164.644 455.058 164.644 456.442C164.644 457.93 165.5 458.65 166.692 458.65ZM165.284 456.114C165.34 455.266 165.908 454.826 166.652 454.826C167.444 454.826 167.924 455.338 167.972 456.114H165.284ZM169.53 458.522H170.17V457.05C170.17 456.274 170.306 455.706 170.658 455.354C170.938 455.074 171.346 454.93 171.922 454.906V454.33C170.898 454.33 170.386 454.786 170.202 455.666H170.17L170.146 454.394H169.53V458.522ZM173.735 458.65C174.615 458.65 175.271 458.162 175.431 457.386H175.463L175.495 458.522H176.103V455.69C176.103 454.794 175.423 454.266 174.271 454.266C173.167 454.266 172.415 454.866 172.327 455.818H172.983C173.079 455.186 173.575 454.826 174.263 454.826C175.183 454.826 175.463 455.314 175.463 455.674C175.463 456.234 175.039 456.314 174.295 456.314H173.807C172.847 456.314 172.311 456.738 172.311 457.506C172.311 458.21 172.887 458.65 173.735 458.65ZM172.991 457.418C172.991 456.986 173.279 456.746 173.791 456.746H174.295C175.031 456.746 175.375 456.586 175.431 456.226H175.463V456.69C175.463 457.354 174.855 458.106 173.879 458.106C173.255 458.106 172.991 457.842 172.991 457.418ZM176.967 456.466C176.967 457.786 177.711 458.666 178.831 458.666C179.543 458.666 180.087 458.25 180.351 457.498H180.383L180.415 458.522H181.023V452.922H180.383V455.434H180.351C180.087 454.682 179.543 454.266 178.831 454.266C177.711 454.266 176.967 455.146 176.967 456.466ZM177.615 456.466C177.615 455.49 178.167 454.842 178.999 454.842C179.831 454.842 180.383 455.49 180.383 456.258V456.674C180.383 457.442 179.831 458.09 178.999 458.09C178.167 458.09 177.615 457.442 177.615 456.466ZM184.078 458.65C185.206 458.65 186.23 457.802 186.23 456.442C186.23 455.114 185.206 454.266 184.078 454.266C182.95 454.266 181.926 455.114 181.926 456.442C181.926 457.802 182.95 458.65 184.078 458.65ZM182.582 456.442C182.582 455.45 183.198 454.842 184.078 454.842C184.958 454.842 185.574 455.45 185.574 456.442C185.574 457.458 184.958 458.074 184.078 458.074C183.198 458.074 182.582 457.458 182.582 456.442ZM187.468 455.498C187.748 455.498 187.948 455.306 187.948 455.026C187.948 454.77 187.748 454.578 187.468 454.578C187.212 454.578 187.012 454.77 187.012 455.026C187.012 455.306 187.212 455.498 187.468 455.498ZM187.012 458.17C187.012 458.45 187.212 458.642 187.468 458.642C187.748 458.642 187.948 458.45 187.948 458.17C187.948 457.914 187.748 457.722 187.468 457.722C187.212 457.722 187.012 457.914 187.012 458.17Z" fill="white"/>
<path opacity="0.8" d="M208.384 452.922V458.522H209.056V452.922H208.384ZM210.209 458.522H210.857V456.354C210.857 455.386 211.377 454.858 212.033 454.858C212.649 454.858 213.057 455.306 213.057 455.986V458.522H213.697V456.394C213.697 455.474 214.169 454.858 214.881 454.858C215.497 454.858 215.905 455.306 215.905 455.986V458.522H216.545V455.778C216.545 454.874 215.985 454.266 215.137 454.266C214.449 454.266 213.921 454.666 213.713 455.394H213.657C213.521 454.706 213.009 454.266 212.289 454.266C211.601 454.266 211.105 454.666 210.897 455.394H210.857L210.809 454.394H210.201L210.209 458.522ZM219.501 458.65C220.525 458.65 221.285 458.018 221.405 457.074H220.749C220.629 457.642 220.189 458.09 219.501 458.09C218.701 458.09 218.109 457.562 218.093 456.562H221.421C221.429 456.458 221.437 456.362 221.437 456.266C221.437 455.098 220.605 454.266 219.485 454.266C218.285 454.266 217.453 455.058 217.453 456.442C217.453 457.93 218.309 458.65 219.501 458.65ZM218.093 456.114C218.149 455.266 218.717 454.826 219.461 454.826C220.253 454.826 220.733 455.338 220.781 456.114H218.093ZM222.138 456.466C222.138 457.786 222.882 458.666 224.002 458.666C224.714 458.666 225.258 458.25 225.522 457.498H225.554L225.586 458.522H226.194V452.922H225.554V455.434H225.522C225.258 454.682 224.714 454.266 224.002 454.266C222.882 454.266 222.138 455.146 222.138 456.466ZM222.786 456.466C222.786 455.49 223.338 454.842 224.17 454.842C225.002 454.842 225.554 455.49 225.554 456.258V456.674C225.554 457.442 225.002 458.09 224.17 458.09C223.338 458.09 222.786 457.442 222.786 456.466ZM227.393 454.394V458.522H228.033V454.394H227.393ZM227.281 453.282C227.281 453.522 227.473 453.714 227.713 453.714C227.953 453.714 228.145 453.522 228.145 453.282C228.145 453.042 227.953 452.85 227.713 452.85C227.473 452.85 227.281 453.042 227.281 453.282ZM230.425 458.65C231.305 458.65 231.961 458.162 232.121 457.386H232.153L232.185 458.522H232.793V455.69C232.793 454.794 232.113 454.266 230.961 454.266C229.857 454.266 229.105 454.866 229.017 455.818H229.673C229.769 455.186 230.265 454.826 230.953 454.826C231.873 454.826 232.153 455.314 232.153 455.674C232.153 456.234 231.729 456.314 230.985 456.314H230.497C229.537 456.314 229.001 456.738 229.001 457.506C229.001 458.21 229.577 458.65 230.425 458.65ZM229.681 457.418C229.681 456.986 229.969 456.746 230.481 456.746H230.985C231.721 456.746 232.065 456.586 232.121 456.226H232.153V456.69C232.153 457.354 231.545 458.106 230.569 458.106C229.945 458.106 229.681 457.842 229.681 457.418ZM233.379 454.874H234.115V457.474C234.115 458.282 234.451 458.562 235.291 458.562C235.491 458.562 235.699 458.53 235.891 458.482V457.97C235.683 458.018 235.507 458.042 235.347 458.042C234.923 458.042 234.755 457.866 234.755 457.418V454.874H235.891V454.394H234.755V453.314H234.115V454.394H233.379V454.874ZM237.741 458.65C238.621 458.65 239.277 458.162 239.437 457.386H239.469L239.501 458.522H240.109V455.69C240.109 454.794 239.429 454.266 238.277 454.266C237.173 454.266 236.421 454.866 236.333 455.818H236.989C237.085 455.186 237.581 454.826 238.269 454.826C239.189 454.826 239.469 455.314 239.469 455.674C239.469 456.234 239.045 456.314 238.301 456.314H237.813C236.853 456.314 236.317 456.738 236.317 457.506C236.317 458.21 236.893 458.65 237.741 458.65ZM236.997 457.418C236.997 456.986 237.285 456.746 237.797 456.746H238.301C239.037 456.746 239.381 456.586 239.437 456.226H239.469V456.69C239.469 457.354 238.861 458.106 237.885 458.106C237.261 458.106 236.997 457.842 236.997 457.418ZM241.22 458.522H241.868V456.354C241.868 455.386 242.388 454.858 243.044 454.858C243.66 454.858 244.068 455.306 244.068 455.986V458.522H244.708V456.394C244.708 455.474 245.18 454.858 245.892 454.858C246.508 454.858 246.916 455.306 246.916 455.986V458.522H247.556V455.778C247.556 454.874 246.996 454.266 246.148 454.266C245.46 454.266 244.932 454.666 244.724 455.394H244.668C244.532 454.706 244.02 454.266 243.3 454.266C242.612 454.266 242.116 454.666 241.908 455.394H241.868L241.82 454.394H241.212L241.22 458.522ZM250.511 458.65C251.535 458.65 252.295 458.018 252.415 457.074H251.759C251.639 457.642 251.199 458.09 250.511 458.09C249.711 458.09 249.119 457.562 249.103 456.562H252.431C252.439 456.458 252.447 456.362 252.447 456.266C252.447 455.098 251.615 454.266 250.495 454.266C249.295 454.266 248.463 455.058 248.463 456.442C248.463 457.93 249.319 458.65 250.511 458.65ZM249.103 456.114C249.159 455.266 249.727 454.826 250.471 454.826C251.263 454.826 251.743 455.338 251.791 456.114H249.103ZM253.349 458.522H253.997V456.394C253.997 455.474 254.517 454.858 255.269 454.858C256.005 454.858 256.357 455.234 256.357 455.93V458.522H256.997V455.778C256.997 454.874 256.405 454.266 255.509 454.266C254.789 454.266 254.269 454.674 254.045 455.41H253.997L253.957 454.394H253.349V458.522ZM257.581 454.874H258.317V457.474C258.317 458.282 258.653 458.562 259.493 458.562C259.693 458.562 259.901 458.53 260.093 458.482V457.97C259.885 458.018 259.709 458.042 259.549 458.042C259.125 458.042 258.957 457.866 258.957 457.418V454.874H260.093V454.394H258.957V453.314H258.317V454.394H257.581V454.874ZM262.521 458.65C263.545 458.65 264.305 458.018 264.425 457.074H263.769C263.649 457.642 263.209 458.09 262.521 458.09C261.721 458.09 261.129 457.562 261.113 456.562H264.441C264.449 456.458 264.457 456.362 264.457 456.266C264.457 455.098 263.625 454.266 262.505 454.266C261.305 454.266 260.473 455.058 260.473 456.442C260.473 457.93 261.329 458.65 262.521 458.65ZM261.113 456.114C261.169 455.266 261.737 454.826 262.481 454.826C263.273 454.826 263.753 455.338 263.801 456.114H261.113ZM268.283 458.65C269.163 458.65 269.819 458.162 269.979 457.386H270.011L270.043 458.522H270.651V455.69C270.651 454.794 269.971 454.266 268.819 454.266C267.715 454.266 266.963 454.866 266.875 455.818H267.531C267.627 455.186 268.123 454.826 268.811 454.826C269.731 454.826 270.011 455.314 270.011 455.674C270.011 456.234 269.587 456.314 268.843 456.314H268.355C267.395 456.314 266.859 456.738 266.859 457.506C266.859 458.21 267.435 458.65 268.283 458.65ZM267.539 457.418C267.539 456.986 267.827 456.746 268.339 456.746H268.843C269.579 456.746 269.923 456.586 269.979 456.226H270.011V456.69C270.011 457.354 269.403 458.106 268.427 458.106C267.803 458.106 267.539 457.842 267.539 457.418ZM271.753 459.994H272.393V457.498H272.425C272.689 458.25 273.233 458.666 273.945 458.666C275.065 458.666 275.809 457.786 275.809 456.466C275.809 455.146 275.065 454.266 273.945 454.266C273.233 454.266 272.689 454.682 272.425 455.434H272.393L272.361 454.394H271.753V459.994ZM272.393 456.674V456.258C272.393 455.49 272.945 454.842 273.777 454.842C274.609 454.842 275.161 455.49 275.161 456.466C275.161 457.442 274.609 458.09 273.777 458.09C272.945 458.09 272.393 457.442 272.393 456.674ZM278.688 458.65C279.816 458.65 280.84 457.802 280.84 456.442C280.84 455.114 279.816 454.266 278.688 454.266C277.56 454.266 276.536 455.114 276.536 456.442C276.536 457.802 277.56 458.65 278.688 458.65ZM277.192 456.442C277.192 455.45 277.808 454.842 278.688 454.842C279.568 454.842 280.184 455.45 280.184 456.442C280.184 457.458 279.568 458.074 278.688 458.074C277.808 458.074 277.192 457.458 277.192 456.442ZM277.656 453.434L277.84 453.914L280.088 453.106L279.896 452.594L277.656 453.434ZM283.272 458.65C284.32 458.65 284.984 458.162 284.984 457.394C284.984 456.546 284.256 456.33 283.528 456.194L283.064 456.106C282.536 456.01 282.112 455.882 282.112 455.474C282.112 455.074 282.48 454.826 283.12 454.826C283.776 454.826 284.208 455.162 284.208 455.706H284.864C284.864 454.818 284.176 454.266 283.12 454.266C282.08 454.266 281.472 454.738 281.472 455.498C281.472 456.338 282.2 456.546 282.92 456.674L283.424 456.762C283.928 456.85 284.328 457.002 284.328 457.418C284.328 457.834 283.92 458.09 283.272 458.09C282.52 458.09 282.08 457.778 282.024 457.21H281.368C281.424 458.122 282.112 458.65 283.272 458.65ZM288.695 458.65C289.575 458.65 290.231 458.162 290.391 457.386H290.423L290.455 458.522H291.063V455.69C291.063 454.794 290.383 454.266 289.231 454.266C288.127 454.266 287.375 454.866 287.287 455.818H287.943C288.039 455.186 288.535 454.826 289.223 454.826C290.143 454.826 290.423 455.314 290.423 455.674C290.423 456.234 289.999 456.314 289.255 456.314H288.767C287.807 456.314 287.271 456.738 287.271 457.506C287.271 458.21 287.847 458.65 288.695 458.65ZM287.951 457.418C287.951 456.986 288.239 456.746 288.751 456.746H289.255C289.991 456.746 290.335 456.586 290.391 456.226H290.423V456.69C290.423 457.354 289.815 458.106 288.839 458.106C288.215 458.106 287.951 457.842 287.951 457.418ZM295.722 458.65C296.786 458.65 297.546 458.002 297.642 457.018H296.978C296.898 457.634 296.426 458.074 295.722 458.074C294.898 458.074 294.362 457.378 294.362 456.41C294.362 455.466 294.898 454.842 295.722 454.842C296.41 454.842 296.874 455.226 296.97 455.818H297.634C297.498 454.882 296.754 454.266 295.722 454.266C294.514 454.266 293.706 455.13 293.706 456.426C293.706 457.762 294.514 458.65 295.722 458.65ZM300.419 458.65C301.547 458.65 302.571 457.802 302.571 456.442C302.571 455.114 301.547 454.266 300.419 454.266C299.291 454.266 298.267 455.114 298.267 456.442C298.267 457.802 299.291 458.65 300.419 458.65ZM298.923 456.442C298.923 455.45 299.539 454.842 300.419 454.842C301.299 454.842 301.915 455.45 301.915 456.442C301.915 457.458 301.299 458.074 300.419 458.074C299.539 458.074 298.923 457.458 298.923 456.442ZM303.481 458.522H304.129V456.354C304.129 455.386 304.649 454.858 305.305 454.858C305.921 454.858 306.329 455.306 306.329 455.986V458.522H306.969V456.394C306.969 455.474 307.441 454.858 308.153 454.858C308.769 454.858 309.177 455.306 309.177 455.986V458.522H309.817V455.778C309.817 454.874 309.257 454.266 308.409 454.266C307.721 454.266 307.193 454.666 306.985 455.394H306.929C306.793 454.706 306.281 454.266 305.561 454.266C304.873 454.266 304.377 454.666 304.169 455.394H304.129L304.081 454.394H303.473L303.481 458.522ZM310.924 459.994H311.564V457.498H311.596C311.86 458.25 312.404 458.666 313.116 458.666C314.236 458.666 314.98 457.786 314.98 456.466C314.98 455.146 314.236 454.266 313.116 454.266C312.404 454.266 311.86 454.682 311.596 455.434H311.564L311.532 454.394H310.924V459.994ZM311.564 456.674V456.258C311.564 455.49 312.116 454.842 312.948 454.842C313.78 454.842 314.332 455.49 314.332 456.466C314.332 457.442 313.78 458.09 312.948 458.09C312.116 458.09 311.564 457.442 311.564 456.674ZM315.883 458.522H316.523V457.05C316.523 456.274 316.659 455.706 317.011 455.354C317.291 455.074 317.699 454.93 318.275 454.906V454.33C317.251 454.33 316.739 454.786 316.555 455.666H316.523L316.499 454.394H315.883V458.522ZM320.089 458.65C320.969 458.65 321.625 458.162 321.785 457.386H321.817L321.849 458.522H322.457V455.69C322.457 454.794 321.777 454.266 320.625 454.266C319.521 454.266 318.769 454.866 318.681 455.818H319.337C319.433 455.186 319.929 454.826 320.617 454.826C321.537 454.826 321.817 455.314 321.817 455.674C321.817 456.234 321.393 456.314 320.649 456.314H320.161C319.201 456.314 318.665 456.738 318.665 457.506C318.665 458.21 319.241 458.65 320.089 458.65ZM319.345 457.418C319.345 456.986 319.633 456.746 320.145 456.746H320.649C321.385 456.746 321.729 456.586 321.785 456.226H321.817V456.69C321.817 457.354 321.209 458.106 320.233 458.106C319.609 458.106 319.345 457.842 319.345 457.418Z" fill="white"/>
<g opacity="0.2">
<path fill-rule="evenodd" clip-rule="evenodd" d="M437.883 436.646C438.23 436.646 438.539 436.863 438.657 437.189L439.074 438.352C439.14 438.535 439.269 438.688 439.437 438.786L440.675 439.501C440.843 439.598 441.041 439.632 441.232 439.598L442.448 439.378C442.789 439.316 443.133 439.475 443.306 439.776L443.963 440.91C444.137 441.209 444.105 441.586 443.881 441.851L443.084 442.795C442.958 442.943 442.889 443.131 442.889 443.325V444.755C442.889 444.949 442.958 445.137 443.084 445.286L443.881 446.229C444.105 446.494 444.137 446.871 443.963 447.17L443.306 448.304C443.133 448.605 442.79 448.764 442.448 448.702L441.232 448.483C441.041 448.448 440.844 448.483 440.676 448.58L439.438 449.294C439.27 449.392 439.141 449.545 439.075 449.728L438.657 450.891C438.54 451.217 438.23 451.435 437.883 451.435H436.569C436.222 451.435 435.913 451.217 435.796 450.891L435.378 449.728C435.312 449.546 435.184 449.392 435.016 449.294L433.777 448.58C433.609 448.483 433.412 448.448 433.221 448.483L432.005 448.702C431.663 448.764 431.32 448.605 431.146 448.304L430.489 447.17C430.315 446.871 430.348 446.494 430.571 446.229L431.369 445.286C431.495 445.137 431.564 444.949 431.564 444.755V443.325C431.564 443.131 431.495 442.943 431.369 442.795L430.579 441.851C430.356 441.586 430.323 441.209 430.497 440.91L431.154 439.776C431.328 439.476 431.671 439.317 432.012 439.378L433.228 439.598C433.419 439.632 433.616 439.598 433.784 439.501L435.023 438.786C435.191 438.688 435.32 438.535 435.386 438.352L435.803 437.189C435.919 436.866 436.225 436.649 436.569 436.646H437.883Z" stroke="white" stroke-width="1.5" stroke-linecap="round" stroke-linejoin="round"/>
<path fill-rule="evenodd" clip-rule="evenodd" d="M437.226 446.3C438.474 446.3 439.486 445.288 439.486 444.04C439.486 442.792 438.474 441.781 437.226 441.781C435.978 441.781 434.967 442.792 434.967 444.04C434.967 445.288 435.978 446.3 437.226 446.3Z" stroke="white" stroke-width="1.5" stroke-linecap="round" stroke-linejoin="round"/>
</g>
<g opacity="0.2">
<path d="M482.39 444.679L484.306 442.763C485.717 441.352 485.717 439.064 484.306 437.652V437.652C482.895 436.241 480.607 436.241 479.195 437.652L477.279 439.568" stroke="white" stroke-width="1.5" stroke-linecap="round" stroke-linejoin="round"/>
<path d="M475.363 446.594L480.472 441.486" stroke="white" stroke-width="1.5" stroke-linecap="round" stroke-linejoin="round"/>
<path d="M473.446 443.401L471.53 445.317C470.119 446.728 470.119 449.016 471.53 450.428V450.428C472.941 451.839 475.229 451.839 476.641 450.428L478.557 448.512" stroke="white" stroke-width="1.5" stroke-linecap="round" stroke-linejoin="round"/>
</g>
<g opacity="0.23">
<path d="M40.6206 437.144V449.955" stroke="white" stroke-width="1.5" stroke-linecap="round" stroke-linejoin="round"/>
<path d="M36.958 440.804L40.6184 437.144L44.2788 440.804" stroke="white" stroke-width="1.5" stroke-linecap="round" stroke-linejoin="round"/>
<path d="M34.2133 449.954V437.143" stroke="white" stroke-width="1.5" stroke-linecap="round" stroke-linejoin="round"/>
<path d="M37.874 446.294L34.2136 449.954L30.5532 446.294" stroke="white" stroke-width="1.5" stroke-linecap="round" stroke-linejoin="round"/>
</g>
<path opacity="0.8" d="M217.334 145.203L218.306 142.779H222.35L223.346 145.203H224.402L220.898 136.803H219.71L216.278 145.203H217.334ZM218.678 141.867L219.326 140.247C219.65 139.431 219.974 138.627 220.274 137.811H220.346C220.658 138.603 220.97 139.407 221.294 140.199L221.978 141.867H218.678ZM225.046 142.119C225.046 144.099 226.162 145.419 227.842 145.419C228.91 145.419 229.726 144.795 230.122 143.667H230.17L230.218 145.203H231.13V136.803H230.17V140.571H230.122C229.726 139.443 228.91 138.819 227.842 138.819C226.162 138.819 225.046 140.139 225.046 142.119ZM226.018 142.119C226.018 140.655 226.846 139.683 228.094 139.683C229.342 139.683 230.17 140.655 230.17 141.807V142.431C230.17 143.583 229.342 144.555 228.094 144.555C226.846 144.555 226.018 143.583 226.018 142.119ZM232.929 139.011V145.203H233.889V139.011H232.929ZM232.761 137.343C232.761 137.703 233.049 137.991 233.409 137.991C233.769 137.991 234.057 137.703 234.057 137.343C234.057 136.983 233.769 136.695 233.409 136.695C233.049 136.695 232.761 136.983 232.761 137.343ZM238.189 145.395C239.785 145.395 240.925 144.423 241.069 142.947H240.073C239.953 143.871 239.245 144.531 238.189 144.531C236.953 144.531 236.149 143.487 236.149 142.035C236.149 140.619 236.953 139.683 238.189 139.683C239.221 139.683 239.917 140.259 240.061 141.147H241.057C240.853 139.743 239.737 138.819 238.189 138.819C236.377 138.819 235.165 140.115 235.165 142.059C235.165 144.063 236.377 145.395 238.189 145.395ZM242.45 139.011V145.203H243.41V139.011H242.45ZM242.282 137.343C242.282 137.703 242.57 137.991 242.93 137.991C243.29 137.991 243.578 137.703 243.578 137.343C243.578 136.983 243.29 136.695 242.93 136.695C242.57 136.695 242.282 136.983 242.282 137.343ZM247.915 145.395C249.607 145.395 251.143 144.123 251.143 142.083C251.143 140.091 249.607 138.819 247.915 138.819C246.223 138.819 244.687 140.091 244.687 142.083C244.687 144.123 246.223 145.395 247.915 145.395ZM245.671 142.083C245.671 140.595 246.595 139.683 247.915 139.683C249.235 139.683 250.159 140.595 250.159 142.083C250.159 143.607 249.235 144.531 247.915 144.531C246.595 144.531 245.671 143.607 245.671 142.083ZM252.496 145.203H253.468V142.011C253.468 140.631 254.248 139.707 255.376 139.707C256.48 139.707 257.008 140.271 257.008 141.315V145.203H257.968V141.087C257.968 139.731 257.08 138.819 255.736 138.819C254.656 138.819 253.876 139.431 253.54 140.535H253.468L253.408 139.011H252.496V145.203ZM261.394 145.395C262.714 145.395 263.698 144.663 263.938 143.499H263.986L264.034 145.203H264.946V140.955C264.946 139.611 263.926 138.819 262.198 138.819C260.542 138.819 259.414 139.719 259.282 141.147H260.266C260.41 140.199 261.154 139.659 262.186 139.659C263.566 139.659 263.986 140.391 263.986 140.931C263.986 141.771 263.35 141.891 262.234 141.891H261.502C260.062 141.891 259.258 142.527 259.258 143.679C259.258 144.735 260.122 145.395 261.394 145.395ZM260.278 143.547C260.278 142.899 260.71 142.539 261.478 142.539H262.234C263.338 142.539 263.854 142.299 263.938 141.759H263.986V142.455C263.986 143.451 263.074 144.579 261.61 144.579C260.674 144.579 260.278 144.183 260.278 143.547ZM266.6 145.203H267.56V142.995C267.56 141.831 267.764 140.979 268.292 140.451C268.712 140.031 269.324 139.815 270.188 139.779V138.915C268.652 138.915 267.884 139.599 267.608 140.919H267.56L267.524 139.011H266.6V145.203ZM276.846 145.395C278.538 145.395 280.074 144.123 280.074 142.083C280.074 140.091 278.538 138.819 276.846 138.819C275.154 138.819 273.618 140.091 273.618 142.083C273.618 144.123 275.154 145.395 276.846 145.395ZM274.602 142.083C274.602 140.595 275.526 139.683 276.846 139.683C278.166 139.683 279.09 140.595 279.09 142.083C279.09 143.607 278.166 144.531 276.846 144.531C275.526 144.531 274.602 143.607 274.602 142.083ZM283.542 145.395C284.622 145.395 285.402 144.783 285.738 143.679H285.81L285.87 145.203H286.782V139.011H285.81V142.203C285.81 143.583 285.054 144.507 283.926 144.507C282.93 144.507 282.27 143.835 282.27 142.815V139.011H281.31V143.127C281.31 144.483 282.198 145.395 283.542 145.395ZM291.043 145.203H292.003V142.995C292.003 141.831 292.207 140.979 292.735 140.451C293.155 140.031 293.767 139.815 294.631 139.779V138.915C293.095 138.915 292.327 139.599 292.051 140.919H292.003L291.967 139.011H291.043V145.203ZM298.042 145.395C299.578 145.395 300.718 144.447 300.898 143.031H299.914C299.734 143.883 299.074 144.555 298.042 144.555C296.842 144.555 295.954 143.763 295.93 142.263H300.922C300.934 142.107 300.946 141.963 300.946 141.819C300.946 140.067 299.698 138.819 298.018 138.819C296.218 138.819 294.97 140.007 294.97 142.083C294.97 144.315 296.254 145.395 298.042 145.395ZM295.93 141.591C296.014 140.319 296.866 139.659 297.982 139.659C299.17 139.659 299.89 140.427 299.962 141.591H295.93ZM302.311 145.203H303.283V141.951C303.283 140.499 304.063 139.707 305.047 139.707C305.971 139.707 306.583 140.379 306.583 141.399V145.203H307.543V142.011C307.543 140.631 308.251 139.707 309.319 139.707C310.243 139.707 310.855 140.379 310.855 141.399V145.203H311.815V141.087C311.815 139.731 310.975 138.819 309.703 138.819C308.671 138.819 307.879 139.419 307.567 140.511H307.483C307.279 139.479 306.511 138.819 305.431 138.819C304.399 138.819 303.655 139.419 303.343 140.511H303.283L303.211 139.011H302.299L302.311 145.203ZM316.404 145.395C318.096 145.395 319.632 144.123 319.632 142.083C319.632 140.091 318.096 138.819 316.404 138.819C314.712 138.819 313.176 140.091 313.176 142.083C313.176 144.123 314.712 145.395 316.404 145.395ZM314.16 142.083C314.16 140.595 315.084 139.683 316.404 139.683C317.724 139.683 318.648 140.595 318.648 142.083C318.648 143.607 317.724 144.531 316.404 144.531C315.084 144.531 314.16 143.607 314.16 142.083ZM322.493 145.203H323.525L326.057 139.011H325.037L324.173 141.219C323.765 142.251 323.429 143.079 323.033 144.051H322.985C322.589 143.079 322.253 142.251 321.845 141.219L320.981 139.011H319.961L322.493 145.203ZM329.461 145.395C330.997 145.395 332.137 144.447 332.317 143.031H331.333C331.153 143.883 330.493 144.555 329.461 144.555C328.261 144.555 327.373 143.763 327.349 142.263H332.341C332.353 142.107 332.365 141.963 332.365 141.819C332.365 140.067 331.117 138.819 329.437 138.819C327.637 138.819 326.389 140.007 326.389 142.083C326.389 144.315 327.673 145.395 329.461 145.395ZM327.349 141.591C327.433 140.319 328.285 139.659 329.401 139.659C330.589 139.659 331.309 140.427 331.381 141.591H327.349ZM333.717 145.203H334.677V142.995C334.677 141.831 334.881 140.979 335.409 140.451C335.829 140.031 336.441 139.815 337.305 139.779V138.915C335.769 138.915 335.001 139.599 334.725 140.919H334.677L334.641 139.011H333.717V145.203ZM343.76 145.395C345.356 145.395 346.496 144.423 346.64 142.947H345.644C345.524 143.871 344.816 144.531 343.76 144.531C342.524 144.531 341.72 143.487 341.72 142.035C341.72 140.619 342.524 139.683 343.76 139.683C344.792 139.683 345.488 140.259 345.632 141.147H346.628C346.424 139.743 345.308 138.819 343.76 138.819C341.948 138.819 340.736 140.115 340.736 142.059C340.736 144.063 341.948 145.395 343.76 145.395ZM350.805 145.395C352.497 145.395 354.033 144.123 354.033 142.083C354.033 140.091 352.497 138.819 350.805 138.819C349.113 138.819 347.577 140.091 347.577 142.083C347.577 144.123 349.113 145.395 350.805 145.395ZM348.561 142.083C348.561 140.595 349.485 139.683 350.805 139.683C352.125 139.683 353.049 140.595 353.049 142.083C353.049 143.607 352.125 144.531 350.805 144.531C349.485 144.531 348.561 143.607 348.561 142.083ZM355.386 145.203H356.358V142.011C356.358 140.631 357.138 139.707 358.266 139.707C359.37 139.707 359.898 140.271 359.898 141.315V145.203H360.858V141.087C360.858 139.731 359.97 138.819 358.626 138.819C357.546 138.819 356.766 139.431 356.43 140.535H356.358L356.298 139.011H355.386V145.203ZM361.734 139.731H362.838V143.631C362.838 144.843 363.342 145.263 364.602 145.263C364.902 145.263 365.214 145.215 365.502 145.143V144.375C365.19 144.447 364.926 144.483 364.686 144.483C364.05 144.483 363.798 144.219 363.798 143.547V139.731H365.502V139.011H363.798V137.391H362.838V139.011H361.734V139.731ZM369.144 145.395C370.68 145.395 371.82 144.447 372 143.031H371.016C370.836 143.883 370.176 144.555 369.144 144.555C367.944 144.555 367.056 143.763 367.032 142.263H372.024C372.036 142.107 372.048 141.963 372.048 141.819C372.048 140.067 370.8 138.819 369.12 138.819C367.32 138.819 366.072 140.007 366.072 142.083C366.072 144.315 367.356 145.395 369.144 145.395ZM367.032 141.591C367.116 140.319 367.968 139.659 369.084 139.659C370.272 139.659 370.992 140.427 371.064 141.591H367.032ZM375.574 145.395C376.654 145.395 377.434 144.783 377.77 143.679H377.842L377.902 145.203H378.814V139.011H377.842V142.203C377.842 143.583 377.086 144.507 375.958 144.507C374.962 144.507 374.302 143.835 374.302 142.815V139.011H373.342V143.127C373.342 144.483 374.23 145.395 375.574 145.395ZM374.554 137.571L374.83 138.291L378.202 137.079L377.914 136.311L374.554 137.571ZM379.93 142.119C379.93 144.099 381.046 145.419 382.726 145.419C383.794 145.419 384.61 144.795 385.006 143.667H385.054L385.102 145.203H386.014V136.803H385.054V140.571H385.006C384.61 139.443 383.794 138.819 382.726 138.819C381.046 138.819 379.93 140.139 379.93 142.119ZM380.902 142.119C380.902 140.655 381.73 139.683 382.978 139.683C384.226 139.683 385.054 140.655 385.054 141.807V142.431C385.054 143.583 384.226 144.555 382.978 144.555C381.73 144.555 380.902 143.583 380.902 142.119ZM390.597 145.395C392.289 145.395 393.825 144.123 393.825 142.083C393.825 140.091 392.289 138.819 390.597 138.819C388.905 138.819 387.369 140.091 387.369 142.083C387.369 144.123 388.905 145.395 390.597 145.395ZM388.353 142.083C388.353 140.595 389.277 139.683 390.597 139.683C391.917 139.683 392.841 140.595 392.841 142.083C392.841 143.607 391.917 144.531 390.597 144.531C389.277 144.531 388.353 143.607 388.353 142.083ZM397.472 145.395C399.044 145.395 400.04 144.663 400.04 143.511C400.04 142.239 398.948 141.915 397.856 141.711L397.16 141.579C396.368 141.435 395.732 141.243 395.732 140.631C395.732 140.031 396.284 139.659 397.244 139.659C398.228 139.659 398.876 140.163 398.876 140.979H399.86C399.86 139.647 398.828 138.819 397.244 138.819C395.684 138.819 394.772 139.527 394.772 140.667C394.772 141.927 395.864 142.239 396.944 142.431L397.7 142.563C398.456 142.695 399.056 142.923 399.056 143.547C399.056 144.171 398.444 144.555 397.472 144.555C396.344 144.555 395.684 144.087 395.6 143.235H394.616C394.7 144.603 395.732 145.395 397.472 145.395Z" fill="white"/>
<rect opacity="0.25" x="98.0684" y="116.612" width="418.837" height="48.2767" rx="7.5" stroke="white" stroke-dasharray="3 3"/>
<path d="M159.108 64.4119H160.602V58.5619V54.1699H160.656C161.196 55.5919 161.808 57.0319 162.384 58.4539L164.832 64.4119H166.092L168.522 58.4899C169.116 57.0499 169.71 55.6099 170.268 54.1699H170.322V58.5439V64.4119H171.816V51.8119H169.836L167.01 58.5259L165.498 62.1619H165.426C164.922 60.9019 164.382 59.6419 163.86 58.3819L161.088 51.8119H159.108V64.4119ZM178.552 64.6999C180.856 64.6999 182.566 63.2779 182.836 61.1539H181.36C181.09 62.4319 180.1 63.4399 178.552 63.4399C176.752 63.4399 175.42 62.2519 175.384 60.0019H182.872C182.89 59.7679 182.908 59.5519 182.908 59.3359C182.908 56.7079 181.036 54.8359 178.516 54.8359C175.816 54.8359 173.944 56.6179 173.944 59.7319C173.944 63.0799 175.87 64.6999 178.552 64.6999ZM175.384 58.9939C175.51 57.0859 176.788 56.0959 178.462 56.0959C180.244 56.0959 181.324 57.2479 181.432 58.9939H175.384ZM188.197 64.6999C189.817 64.6999 190.987 63.7819 191.491 62.1259H191.599L191.689 64.4119H193.057V55.1239H191.599V59.9119C191.599 61.9819 190.465 63.3679 188.773 63.3679C187.279 63.3679 186.289 62.3599 186.289 60.8299V55.1239H184.849V61.2979C184.849 63.3319 186.181 64.6999 188.197 64.6999ZM199.238 64.6999C201.596 64.6999 203.09 63.6019 203.09 61.8739C203.09 59.9659 201.452 59.4799 199.814 59.1739L198.77 58.9759C197.582 58.7599 196.628 58.4719 196.628 57.5539C196.628 56.6539 197.456 56.0959 198.896 56.0959C200.372 56.0959 201.344 56.8519 201.344 58.0759H202.82C202.82 56.0779 201.272 54.8359 198.896 54.8359C196.556 54.8359 195.188 55.8979 195.188 57.6079C195.188 59.4979 196.826 59.9659 198.446 60.2539L199.58 60.4519C200.714 60.6499 201.614 60.9919 201.614 61.9279C201.614 62.8639 200.696 63.4399 199.238 63.4399C197.546 63.4399 196.556 62.7379 196.43 61.4599H194.954C195.08 63.5119 196.628 64.6999 199.238 64.6999ZM208.778 67.7239H210.218V62.1079H210.29C210.884 63.7999 212.108 64.7359 213.71 64.7359C216.23 64.7359 217.904 62.7559 217.904 59.7859C217.904 56.8159 216.23 54.8359 213.71 54.8359C212.108 54.8359 210.884 55.7719 210.29 57.4639H210.218L210.146 55.1239H208.778V67.7239ZM210.218 60.2539V59.3179C210.218 57.5899 211.46 56.1319 213.332 56.1319C215.204 56.1319 216.446 57.5899 216.446 59.7859C216.446 61.9819 215.204 63.4399 213.332 63.4399C211.46 63.4399 210.218 61.9819 210.218 60.2539ZM224.38 64.6999C226.918 64.6999 229.222 62.7919 229.222 59.7319C229.222 56.7439 226.918 54.8359 224.38 54.8359C221.842 54.8359 219.538 56.7439 219.538 59.7319C219.538 62.7919 221.842 64.6999 224.38 64.6999ZM221.014 59.7319C221.014 57.4999 222.4 56.1319 224.38 56.1319C226.36 56.1319 227.746 57.4999 227.746 59.7319C227.746 62.0179 226.36 63.4039 224.38 63.4039C222.4 63.4039 221.014 62.0179 221.014 59.7319ZM231.252 64.4119H232.692V61.0999C232.692 59.3539 232.998 58.0759 233.79 57.2839C234.42 56.6539 235.338 56.3299 236.634 56.2759V54.9799C234.33 54.9799 233.178 56.0059 232.764 57.9859H232.692L232.638 55.1239H231.252V64.4119ZM237.416 56.2039H239.072V62.0539C239.072 63.8719 239.828 64.5019 241.718 64.5019C242.168 64.5019 242.636 64.4299 243.068 64.3219V63.1699C242.6 63.2779 242.204 63.3319 241.844 63.3319C240.89 63.3319 240.512 62.9359 240.512 61.9279V56.2039H243.068V55.1239H240.512V52.6939H239.072V55.1239H237.416V56.2039ZM247.231 64.6999C249.211 64.6999 250.687 63.6019 251.047 61.8559H251.119L251.191 64.4119H252.559V58.0399C252.559 56.0239 251.029 54.8359 248.437 54.8359C245.953 54.8359 244.261 56.1859 244.063 58.3279H245.539C245.755 56.9059 246.871 56.0959 248.419 56.0959C250.489 56.0959 251.119 57.1939 251.119 58.0039C251.119 59.2639 250.165 59.4439 248.491 59.4439H247.393C245.233 59.4439 244.027 60.3979 244.027 62.1259C244.027 63.7099 245.323 64.6999 247.231 64.6999ZM245.557 61.9279C245.557 60.9559 246.205 60.4159 247.357 60.4159H248.491C250.147 60.4159 250.921 60.0559 251.047 59.2459H251.119V60.2899C251.119 61.7839 249.751 63.4759 247.555 63.4759C246.151 63.4759 245.557 62.8819 245.557 61.9279ZM255.168 55.1239V64.4119H256.608V55.1239H255.168ZM254.916 52.6219C254.916 53.1619 255.348 53.5939 255.888 53.5939C256.428 53.5939 256.86 53.1619 256.86 52.6219C256.86 52.0819 256.428 51.6499 255.888 51.6499C255.348 51.6499 254.916 52.0819 254.916 52.6219ZM263.031 64.6999C265.389 64.6999 266.883 63.6019 266.883 61.8739C266.883 59.9659 265.245 59.4799 263.607 59.1739L262.563 58.9759C261.375 58.7599 260.421 58.4719 260.421 57.5539C260.421 56.6539 261.249 56.0959 262.689 56.0959C264.165 56.0959 265.137 56.8519 265.137 58.0759H266.613C266.613 56.0779 265.065 54.8359 262.689 54.8359C260.349 54.8359 258.981 55.8979 258.981 57.6079C258.981 59.4979 260.619 59.9659 262.239 60.2539L263.373 60.4519C264.507 60.6499 265.407 60.9919 265.407 61.9279C265.407 62.8639 264.489 63.4399 263.031 63.4399C261.339 63.4399 260.349 62.7379 260.223 61.4599H258.747C258.873 63.5119 260.421 64.6999 263.031 64.6999Z" fill="white"/>
<path d="M129.851 41.2109H100.479C98.8877 41.2109 97.5977 42.501 97.5977 44.0924V73.4647C97.5977 75.0561 98.8877 76.3461 100.479 76.3461H129.851C131.443 76.3461 132.733 75.0561 132.733 73.4647V44.0924C132.733 42.501 131.443 41.2109 129.851 41.2109Z" fill="white"/>
<path d="M125.414 49.3291V53.7214H118.094V55.1847H118.093V69.8248H112.238V65.1053L112.239 65.1032V59.4491C112.239 59.0623 112.393 58.6913 112.666 58.4178L116.478 54.6046C116.575 54.5076 116.63 54.376 116.63 54.2388C116.63 53.953 116.398 53.7213 116.112 53.7213H104.918V49.3291H125.414V49.3291Z" fill="black"/>
<line x1="500.586" y1="51.5789" x2="517.187" y2="51.5789" stroke="white" stroke-width="2" stroke-linecap="round"/>
<line x1="500.586" y1="57.7791" x2="517.187" y2="57.7791" stroke="white" stroke-width="2" stroke-linecap="round"/>
<line x1="500.586" y1="63.9792" x2="517.187" y2="63.9792" stroke="white" stroke-width="2" stroke-linecap="round"/>
<defs>
<filter id="filter0_b_1280_5120" x="-74.459" y="-144.195" width="764.459" height="824.371" filterUnits="userSpaceOnUse" color-interpolation-filters="sRGB">
<feFlood flood-opacity="0" result="BackgroundImageFix"/>
<feGaussianBlur in="BackgroundImageFix" stdDeviation="72.5"/>
<feComposite in2="SourceAlpha" operator="in" result="effect1_backgroundBlur_1280_5120"/>
<feBlend mode="normal" in="SourceGraphic" in2="effect1_backgroundBlur_1280_5120" result="shape"/>
</filter>
<filter id="filter1_b_1280_5120" x="13.5684" y="103.139" width="588.589" height="249.638" filterUnits="userSpaceOnUse" color-interpolation-filters="sRGB">
<feFlood flood-opacity="0" result="BackgroundImageFix"/>
<feGaussianBlur in="BackgroundImageFix" stdDeviation="42"/>
<feComposite in2="SourceAlpha" operator="in" result="effect1_backgroundBlur_1280_5120"/>
<feBlend mode="normal" in="SourceGraphic" in2="effect1_backgroundBlur_1280_5120" result="shape"/>
</filter>
<filter id="filter2_b_1280_5120" x="13.5684" y="206.459" width="588.589" height="249.638" filterUnits="userSpaceOnUse" color-interpolation-filters="sRGB">
<feFlood flood-opacity="0" result="BackgroundImageFix"/>
<feGaussianBlur in="BackgroundImageFix" stdDeviation="42"/>
<feComposite in2="SourceAlpha" operator="in" result="effect1_backgroundBlur_1280_5120"/>
<feBlend mode="normal" in="SourceGraphic" in2="effect1_backgroundBlur_1280_5120" result="shape"/>
</filter>
<filter id="filter3_b_1280_5120" x="-84" y="309.778" width="685.528" height="268.454" filterUnits="userSpaceOnUse" color-interpolation-filters="sRGB">
<feFlood flood-opacity="0" result="BackgroundImageFix"/>
<feGaussianBlur in="BackgroundImageFix" stdDeviation="42"/>
<feComposite in2="SourceAlpha" operator="in" result="effect1_backgroundBlur_1280_5120"/>
<feBlend mode="normal" in="SourceGraphic" in2="effect1_backgroundBlur_1280_5120" result="shape"/>
</filter>
<linearGradient id="paint0_linear_1280_5120" x1="787.678" y1="-203.019" x2="-85.4002" y2="175.249" gradientUnits="userSpaceOnUse">
<stop/>
<stop offset="1" stop-opacity="0"/>
</linearGradient>
</defs>
</svg>
