<svg width="48" height="48" viewBox="0 0 48 48" fill="none" xmlns="http://www.w3.org/2000/svg">
<path fill-rule="evenodd" clip-rule="evenodd" d="M33.7176 4.99255C32.0603 4.99255 30.7168 6.33607 30.7168 7.99339V10.4325L27.2516 7.46227L27.2508 7.46159C25.379 5.86062 22.6204 5.86062 20.7486 7.46159L20.7478 7.46227L5.34141 20.6678C4.92209 21.0272 4.87353 21.6585 5.23295 22.0778C5.59237 22.4971 6.22367 22.5457 6.643 22.1863L7.5652 21.3958V38.0059C7.5652 40.7682 9.80453 43.0075 12.5669 43.0075H21.9988C22.5511 43.0075 22.9988 42.5598 22.9988 42.0075C22.9988 41.4553 22.5511 41.0075 21.9988 41.0075H12.5669C10.9091 41.0075 9.5652 39.6636 9.5652 38.0059V19.6815L22.0486 8.98146L22.0491 8.98108C23.1722 8.02079 24.8272 8.02079 25.9503 8.98108L25.9508 8.98146L31.0429 13.3462C31.0583 13.3602 31.0742 13.3738 31.0904 13.3869L38.7602 19.9609C38.7756 19.975 38.7914 19.9885 38.8076 20.0016L41.3564 22.1863C41.7757 22.5457 42.407 22.4971 42.7665 22.0778C43.1259 21.6585 43.0773 21.0272 42.658 20.6678L40.434 18.7615V7.99339C40.434 6.33607 39.0905 4.99255 37.4332 4.99255H33.7176ZM38.434 17.0472L32.7168 12.1468V7.99339C32.7168 7.44064 33.1649 6.99255 33.7176 6.99255H37.4332C37.9859 6.99255 38.434 7.44064 38.434 7.99339V17.0472ZM35.0043 27.0018H39.1301H39.1307C40.3315 27.0025 41.4163 27.719 41.8883 28.8232L41.8884 28.8233L42.4443 30.1211L42.445 30.1226C42.8159 30.9924 43.0071 31.9281 43.0073 32.8737V32.8739V36.0049V40.0068C43.0073 41.6641 41.6638 43.0077 40.0065 43.0077H30.0023C28.345 43.0077 27.0015 41.6641 27.0015 40.0068V36.0049V32.8719V32.8717C27.0017 31.9261 27.1929 30.9904 27.5638 30.1206L27.5642 30.1198L28.1184 28.8233L28.1184 28.8233C28.5907 27.7182 29.6769 27.0015 30.8787 27.0018H30.879H30.8791H35.0043ZM29.0015 36.0049V40.0068C29.0015 40.5596 29.4496 41.0077 30.0023 41.0077H40.0065C40.5592 41.0077 41.0073 40.5596 41.0073 40.0068V36.0049C41.0073 35.6975 40.7581 35.4483 40.4507 35.4483H35.026L35.0043 35.4485L34.9827 35.4483H29.5581C29.2507 35.4483 29.0015 35.6975 29.0015 36.0049ZM41.0073 33.5091V32.874V32.8739C41.0072 32.1982 40.8705 31.5295 40.6056 30.9079L40.6053 30.9071L40.0497 29.6101L40.0493 29.6093C39.892 29.2411 39.5302 29.0021 39.1298 29.0018H39.1296H36.0043V33.4483H40.4507C40.6418 33.4483 40.8281 33.4693 41.0073 33.5091ZM34.0043 29.0018V33.4483H29.5581C29.367 33.4483 29.1807 33.4693 29.0015 33.5091V32.872V32.8719C29.0016 32.196 29.1383 31.5272 29.4034 30.9055L29.4035 30.9051L29.9574 29.6094L29.9575 29.6093C30.115 29.2407 30.4773 29.0016 30.8782 29.0018H30.8787H34.0043Z" fill="url(#paint0_linear_1280_4196)"/>
<defs>
<linearGradient id="paint0_linear_1280_4196" x1="37.9999" y1="38.9065" x2="6.95009" y2="14.534" gradientUnits="userSpaceOnUse">
<stop stop-color="#FF9C2B"/>
<stop offset="0.588542" stop-color="#FF2689"/>
<stop offset="1" stop-color="#9747FF"/>
</linearGradient>
</defs>
</svg>
