<svg width="48" height="48" viewBox="0 0 48 48" fill="none" xmlns="http://www.w3.org/2000/svg">
<path fill-rule="evenodd" clip-rule="evenodd" d="M39.0142 34.0125H32.0813C31.413 34.0125 30.7867 34.3467 30.4166 34.9029L29.6042 36.1214C29.2341 36.6776 28.6078 37.0118 27.9396 37.0118H18.0754C17.4072 37.0118 16.7809 36.6776 16.4108 36.1214L15.5984 34.9029C15.2263 34.3467 14.602 34.0125 13.9317 34.0125H7.00083C5.89637 34.0125 5 34.9089 5 36.0133V38.0142C5 40.2251 6.79075 42.0158 9.00167 42.0158H37.0133C39.2243 42.0158 41.015 40.2251 41.015 38.0142V36.0133C41.015 34.9089 40.1186 34.0125 39.0142 34.0125Z" stroke="url(#paint0_linear_1332_3007)" stroke-width="2" stroke-linecap="round" stroke-linejoin="round"/>
<path fill-rule="evenodd" clip-rule="evenodd" d="M24.0084 7.6015C24.0084 5.06039 26.0688 3 28.6099 3H39.4144C41.9555 3 44.0159 5.06039 44.0159 7.6015V10.0026V14.8045C44.0159 17.3456 41.9555 19.406 39.4144 19.406H28.6099C26.0688 19.406 24.0084 17.3456 24.0084 14.8045V10.0026V7.6015ZM42.0159 7.6015V9.00261H26.0084V7.6015C26.0084 6.16496 27.1734 5 28.6099 5H39.4144C40.851 5 42.0159 6.16496 42.0159 7.6015ZM42.0159 11.0026H26.0084V14.8045C26.0084 16.241 27.1734 17.406 28.6099 17.406H39.4144C40.851 17.406 42.0159 16.241 42.0159 14.8045V11.0026ZM11.0026 11.0024C9.34401 11.0024 8.00098 12.3455 8.00098 14.0041V34.0124C8.00098 34.5647 7.55326 35.0124 7.00098 35.0124C6.44869 35.0124 6.00098 34.5647 6.00098 34.0124V14.0041C6.00098 11.2409 8.23944 9.00244 11.0026 9.00244H19.006C19.5583 9.00244 20.006 9.45016 20.006 10.0024C20.006 10.5547 19.5583 11.0024 19.006 11.0024H11.0026ZM39.0143 23.0083C39.5666 23.0083 40.0143 23.456 40.0143 24.0083V34.0125C40.0143 34.5648 39.5666 35.0125 39.0143 35.0125C38.462 35.0125 38.0143 34.5648 38.0143 34.0125V24.0083C38.0143 23.456 38.462 23.0083 39.0143 23.0083Z" fill="url(#paint1_linear_1332_3007)"/>
<defs>
<linearGradient id="paint0_linear_1332_3007" x1="3.283" y1="34.0125" x2="41.168" y2="34.8178" gradientUnits="userSpaceOnUse">
<stop stop-color="#FF9C2B"/>
<stop offset="0.588542" stop-color="#FF2689"/>
<stop offset="1" stop-color="#9747FF"/>
</linearGradient>
<linearGradient id="paint1_linear_1332_3007" x1="4.18862" y1="3" x2="44.1942" y2="3.22441" gradientUnits="userSpaceOnUse">
<stop stop-color="#FF9C2B"/>
<stop offset="0.588542" stop-color="#FF2689"/>
<stop offset="1" stop-color="#9747FF"/>
</linearGradient>
</defs>
</svg>
