<svg width="142" height="54" viewBox="0 0 142 54" fill="none" xmlns="http://www.w3.org/2000/svg">
<rect x="1" y="1" width="140" height="52" rx="4" stroke="url(#paint0_linear_1360_2702)" stroke-width="1.5"/>
<path d="M60.602 32H62.394L58.726 22.662H56.682L53.014 32H54.806L55.492 30.208H59.916L60.602 32ZM57.704 24.048L59.454 28.766H55.954L57.704 24.048ZM64.8419 34.576V31.062C65.3879 31.79 66.1579 32.168 67.0119 32.168C68.7619 32.168 70.0079 30.838 70.0079 28.612C70.0079 26.386 68.7619 25.07 67.0119 25.07C66.1299 25.07 65.3459 25.49 64.8419 26.162V25.238H63.3719V34.576H64.8419ZM68.4819 28.612C68.4819 29.928 67.7399 30.866 66.5779 30.866C65.8919 30.866 65.1639 30.446 64.8419 29.956V27.282C65.1639 26.778 65.8919 26.372 66.5779 26.372C67.7399 26.372 68.4819 27.31 68.4819 28.612ZM72.963 34.576V31.062C73.509 31.79 74.279 32.168 75.133 32.168C76.883 32.168 78.129 30.838 78.129 28.612C78.129 26.386 76.883 25.07 75.133 25.07C74.251 25.07 73.467 25.49 72.963 26.162V25.238H71.493V34.576H72.963ZM76.603 28.612C76.603 29.928 75.861 30.866 74.699 30.866C74.013 30.866 73.285 30.446 72.963 29.956V27.282C73.285 26.778 74.013 26.372 74.699 26.372C75.861 26.372 76.603 27.31 76.603 28.612ZM82.6498 30.684C83.4758 31.566 84.7218 32.168 86.4438 32.168C88.9638 32.168 90.0558 30.838 90.0558 29.284C90.0558 27.254 88.2218 26.778 86.6818 26.386C85.5758 26.106 84.6238 25.868 84.6238 25.14C84.6238 24.44 85.2398 23.978 86.2058 23.978C87.1858 23.978 88.1798 24.314 88.9078 25.042L89.8458 23.824C88.9778 22.984 87.8018 22.522 86.3458 22.522C84.3018 22.522 82.9438 23.712 82.9438 25.252C82.9438 27.226 84.7358 27.674 86.2618 28.052C87.3958 28.346 88.3898 28.598 88.3898 29.438C88.3898 30.054 87.8578 30.712 86.5138 30.712C85.2118 30.712 84.2038 30.11 83.5598 29.424L82.6498 30.684ZM93.3472 32.168C94.0332 32.168 94.4672 31.986 94.7332 31.734L94.3832 30.628C94.2712 30.754 94.0052 30.866 93.7252 30.866C93.3052 30.866 93.0812 30.53 93.0812 30.068V26.526H94.4532V25.238H93.0812V23.39H91.6112V25.238H90.4912V26.526H91.6112V30.432C91.6112 31.552 92.2132 32.168 93.3472 32.168ZM98.8399 32.168C101.01 32.168 102.326 30.558 102.326 28.612C102.326 26.68 101.01 25.07 98.8399 25.07C96.6979 25.07 95.3679 26.68 95.3679 28.612C95.3679 30.558 96.6979 32.168 98.8399 32.168ZM98.8399 30.866C97.5939 30.866 96.8939 29.816 96.8939 28.612C96.8939 27.422 97.5939 26.372 98.8399 26.372C100.1 26.372 100.8 27.422 100.8 28.612C100.8 29.816 100.1 30.866 98.8399 30.866ZM103.813 32H105.283V27.394C105.577 26.918 106.403 26.498 107.019 26.498C107.201 26.498 107.355 26.512 107.481 26.54V25.084C106.599 25.084 105.787 25.588 105.283 26.232V25.238H103.813V32ZM108.247 28.612C108.247 30.754 109.759 32.168 111.789 32.168C112.867 32.168 113.861 31.832 114.533 31.188L113.861 30.222C113.385 30.698 112.601 30.964 111.943 30.964C110.669 30.964 109.899 30.124 109.787 29.102H115.009V28.752C115.009 26.624 113.707 25.07 111.677 25.07C109.675 25.07 108.247 26.652 108.247 28.612ZM111.677 26.274C113.007 26.274 113.553 27.268 113.581 28.066H109.773C109.843 27.24 110.417 26.274 111.677 26.274Z" fill="black"/>
<path d="M40.3768 27.6612C40.3677 26.0076 41.075 24.7613 42.5033 23.8424C41.7044 22.63 40.4959 21.9633 38.9027 21.8348C37.3943 21.7087 35.7439 22.7658 35.1396 22.7658C34.501 22.7658 33.0406 21.8784 31.8916 21.8784C29.5202 21.9172 27 23.8812 27 27.877C27 29.0578 27.2037 30.2774 27.6112 31.5334C28.1559 33.187 30.1199 37.2386 32.1685 37.1731C33.2398 37.1465 33.9974 36.3681 35.3914 36.3681C36.7442 36.3681 37.4446 37.1731 38.6395 37.1731C40.7064 37.1416 42.4827 33.4586 43 31.8001C40.228 30.4156 40.3768 27.7461 40.3768 27.6612ZM37.9711 20.266C39.1316 18.8064 39.0263 17.4777 38.992 17C37.9665 17.063 36.7808 17.7395 36.1056 18.5712C35.3617 19.4634 34.9245 20.5667 35.0183 21.8105C36.1262 21.9002 37.1379 21.2965 37.9711 20.266Z" fill="black"/>
<defs>
<linearGradient id="paint0_linear_1360_2702" x1="-20.399" y1="1.00001" x2="154.254" y2="19.0609" gradientUnits="userSpaceOnUse">
<stop stop-color="#E53BC9"/>
<stop offset="0.515625" stop-color="#FF9C2B"/>
<stop offset="1" stop-color="#9747FF"/>
</linearGradient>
</defs>
</svg>
