<svg width="136" height="45" viewBox="0 0 136 45" fill="none" xmlns="http://www.w3.org/2000/svg">
<g filter="url(#filter0_d_1360_2704)">
<path d="M71.5273 12.2539H75.0103V30.0464H71.5273V12.2539Z" fill="white"/>
<path d="M91.7575 23.8223C91.5722 24.8453 91.1409 25.6961 90.4625 26.3745C89.577 27.2599 88.3872 27.702 86.8938 27.702C85.2845 27.702 83.997 27.0875 83.0315 25.8575C82.0659 24.6275 81.5836 22.99 81.5836 20.944C81.5836 19.0128 82.0659 17.4729 83.0315 16.3231C83.997 15.1733 85.2845 14.5989 86.8938 14.5989C88.3872 14.5989 89.5825 15.0248 90.4787 15.8744C91.1896 16.5485 91.6253 17.4155 91.7868 18.4786H95.2958C95.1365 17.3179 94.767 16.271 94.1861 15.3401C93.4622 14.1795 92.4674 13.2833 91.2037 12.6504C89.9391 12.0186 88.502 11.7021 86.8938 11.7021C85.1458 11.7021 83.6059 12.0815 82.2729 12.8401C80.9399 13.5986 79.8996 14.6856 79.1518 16.0988C78.4051 17.513 78.0312 19.1505 78.0312 21.0123C78.0312 22.9901 78.4106 24.6969 79.1692 26.1328C79.9277 27.5698 80.9735 28.673 82.3076 29.4436C83.6405 30.213 85.1697 30.5988 86.8938 30.5988C88.502 30.5988 89.9391 30.2878 91.2037 29.6679C92.4674 29.0469 93.4676 28.1507 94.2034 26.9781C94.7832 26.0548 95.1484 25.0025 95.2991 23.8224H91.7575V23.8223Z" fill="white"/>
<path d="M68.0649 14.6341V12.2549H63.1342V8.45508H61.9056L60.204 11.3239C59.8476 11.9247 59.2883 12.3785 58.627 12.6035L56.6172 13.2872V14.6341H59.6517V25.4613C59.6517 26.7716 59.8471 27.7716 60.2379 28.4612C60.6286 29.1508 61.2434 29.6164 62.0825 29.8577C62.9217 30.0991 64.0997 30.2198 65.617 30.2198C66.3527 30.2198 67.1685 30.1853 68.0649 30.1164V27.2199C67.1685 27.2888 66.3985 27.3233 65.7547 27.3233C64.7663 27.3233 64.0825 27.1739 63.7032 26.8751C63.3239 26.5762 63.1342 25.9671 63.1342 25.0476V14.6341H68.0649H68.0649Z" fill="white"/>
<path d="M110.612 26.082C109.761 24.6337 109.336 22.9671 109.336 21.0821C109.336 19.2201 109.761 17.5822 110.612 16.1685C111.463 14.7548 112.612 13.6571 114.06 12.8755C115.508 12.0939 117.071 11.7031 118.75 11.7031C120.428 11.7031 121.991 12.0939 123.439 12.8755C124.888 13.6571 126.037 14.7548 126.887 16.1685C127.738 17.5822 128.163 19.2201 128.163 21.0821C128.163 22.9671 127.738 24.6337 126.887 26.082C126.037 27.5302 124.893 28.6451 123.457 29.4266C122.02 30.2083 120.451 30.599 118.75 30.599C117.049 30.599 115.48 30.2083 114.043 29.4266C112.606 28.6451 111.463 27.5302 110.612 26.082ZM124.646 21.0821C124.646 19.0592 124.111 17.4731 123.042 16.3237C121.974 15.1743 120.543 14.5996 118.75 14.5996C116.98 14.5996 115.56 15.1743 114.491 16.3237C113.422 17.4731 112.888 19.0592 112.888 21.0821C112.888 23.151 113.422 24.7716 114.491 25.944C115.56 27.1164 116.98 27.7026 118.75 27.7026C120.543 27.7026 121.974 27.1164 123.042 25.944C124.111 24.7716 124.646 23.151 124.646 21.0821Z" fill="white"/>
<path d="M73.2696 10.4708C74.3828 10.4708 75.2853 9.56838 75.2853 8.45514C75.2853 7.34191 74.3828 6.43945 73.2696 6.43945C72.1564 6.43945 71.2539 7.34191 71.2539 8.45514C71.2539 9.56838 72.1564 10.4708 73.2696 10.4708Z" fill="white"/>
<path d="M130.427 13.5872C130.377 13.5425 130.296 13.5184 130.184 13.5155V13.5001C130.3 13.4928 130.394 13.4534 130.465 13.3821C130.537 13.3108 130.572 13.2207 130.572 13.112C130.572 12.9912 130.528 12.8964 130.439 12.8272C130.35 12.7584 130.227 12.7236 130.071 12.7236H129.328V14.2678H129.615V13.6898H129.985C130.052 13.6898 130.102 13.6954 130.138 13.7064C130.173 13.7174 130.2 13.7372 130.218 13.7659C130.236 13.7947 130.25 13.8376 130.259 13.8949L130.321 14.2678H130.612L130.528 13.8112C130.51 13.7066 130.477 13.6321 130.427 13.5872H130.427ZM130.003 13.4758H129.615V12.9574H130.003C130.09 12.9574 130.159 12.9803 130.211 13.0258C130.264 13.0714 130.29 13.1318 130.29 13.2068C130.29 13.2876 130.263 13.3526 130.211 13.402C130.158 13.4512 130.089 13.4758 130.003 13.4758V13.4758Z" fill="white"/>
<path d="M129.971 11.6973C128.979 11.6973 128.172 12.5039 128.172 13.4955C128.172 14.4872 128.979 15.2943 129.971 15.2943C130.962 15.2943 131.769 14.4872 131.769 13.4955C131.769 12.5038 130.962 11.6973 129.971 11.6973ZM129.971 14.9863C129.149 14.9863 128.48 14.3177 128.48 13.4956C128.48 12.6739 129.149 12.0053 129.971 12.0053C130.792 12.0053 131.461 12.6739 131.461 13.4956C131.461 14.3177 130.792 14.9863 129.971 14.9863Z" fill="white"/>
<path d="M107.827 14.6341V12.2549H102.896V8.45508H101.667L99.9657 11.3239C99.6093 11.9247 99.0501 12.3785 98.3887 12.6035L96.3789 13.2872V14.6341H99.4135V25.4613C99.4135 26.7716 99.6089 27.7716 99.9996 28.4612C100.39 29.1508 101.005 29.6164 101.844 29.8577C102.683 30.0991 103.861 30.2198 105.379 30.2198C106.114 30.2198 106.93 30.1853 107.827 30.1164V27.2199C106.93 27.2888 106.16 27.3233 105.516 27.3233C104.528 27.3233 103.844 27.1739 103.465 26.8751C103.086 26.5762 102.896 25.9671 102.896 25.0476V14.6341H107.827H107.827Z" fill="white"/>
<path d="M37.9656 0H7.03443C5.35856 0 4 1.35856 4 3.03443V33.9656C4 35.6414 5.35856 37 7.03443 37H37.9656C39.6414 37 41 35.6414 41 33.9656V3.03443C41 1.35856 39.6414 0 37.9656 0Z" fill="white"/>
<path d="M33.2905 8.54885V13.1742H25.582V14.7152H25.5809V30.1323H19.4156V25.1624L19.4166 25.1602V19.2059C19.4166 18.7986 19.5784 18.4079 19.8664 18.1199L23.8809 14.1043C23.983 14.0021 24.0404 13.8636 24.0404 13.7191C24.0404 13.4181 23.7965 13.1742 23.4955 13.1742H11.707V8.54883H33.2905V8.54885Z" fill="black"/>
</g>
<defs>
<filter id="filter0_d_1360_2704" x="0" y="0" width="135.77" height="45" filterUnits="userSpaceOnUse" color-interpolation-filters="sRGB">
<feFlood flood-opacity="0" result="BackgroundImageFix"/>
<feColorMatrix in="SourceAlpha" type="matrix" values="0 0 0 0 0 0 0 0 0 0 0 0 0 0 0 0 0 0 127 0" result="hardAlpha"/>
<feOffset dy="4"/>
<feGaussianBlur stdDeviation="2"/>
<feComposite in2="hardAlpha" operator="out"/>
<feColorMatrix type="matrix" values="0 0 0 0 0 0 0 0 0 0 0 0 0 0 0 0 0 0 0.25 0"/>
<feBlend mode="normal" in2="BackgroundImageFix" result="effect1_dropShadow_1360_2704"/>
<feBlend mode="normal" in="SourceGraphic" in2="effect1_dropShadow_1360_2704" result="shape"/>
</filter>
</defs>
</svg>
