<svg width="140" height="54" viewBox="0 0 140 54" fill="none" xmlns="http://www.w3.org/2000/svg">
<rect x="1" y="1" width="138" height="52" rx="4" stroke="url(#paint0_linear_1360_2703)" stroke-width="1.5"/>
<path d="M44.574 27.338C44.574 30.264 46.772 32.182 49.474 32.182C51.098 32.182 52.4 31.51 53.324 30.488V26.988H48.9V28.43H51.686V29.886C51.266 30.278 50.426 30.726 49.474 30.726C47.626 30.726 46.254 29.298 46.254 27.338C46.254 25.378 47.626 23.964 49.474 23.964C50.524 23.964 51.406 24.51 51.896 25.21L53.24 24.454C52.484 23.376 51.294 22.508 49.474 22.508C46.772 22.508 44.574 24.412 44.574 27.338ZM58.0392 32.168C60.2092 32.168 61.5252 30.558 61.5252 28.612C61.5252 26.68 60.2092 25.07 58.0392 25.07C55.8972 25.07 54.5672 26.68 54.5672 28.612C54.5672 30.558 55.8972 32.168 58.0392 32.168ZM58.0392 30.866C56.7932 30.866 56.0932 29.816 56.0932 28.612C56.0932 27.422 56.7932 26.372 58.0392 26.372C59.2992 26.372 59.9992 27.422 59.9992 28.612C59.9992 29.816 59.2992 30.866 58.0392 30.866ZM66.0645 32.168C68.2345 32.168 69.5505 30.558 69.5505 28.612C69.5505 26.68 68.2345 25.07 66.0645 25.07C63.9225 25.07 62.5925 26.68 62.5925 28.612C62.5925 30.558 63.9225 32.168 66.0645 32.168ZM66.0645 30.866C64.8185 30.866 64.1185 29.816 64.1185 28.612C64.1185 27.422 64.8185 26.372 66.0645 26.372C67.3245 26.372 68.0245 27.422 68.0245 28.612C68.0245 29.816 67.3245 30.866 66.0645 30.866ZM70.9539 33.736C71.7799 34.492 72.6339 34.744 73.7819 34.744C75.4479 34.744 77.2539 34.086 77.2539 31.65V25.238H75.7839V26.176C75.2379 25.462 74.4679 25.07 73.6139 25.07C71.8779 25.07 70.6179 26.358 70.6179 28.542C70.6179 30.768 71.8919 32.014 73.6139 32.014C74.4959 32.014 75.2659 31.566 75.7839 30.894V31.706C75.7839 33.092 74.7479 33.54 73.7819 33.54C72.8859 33.54 72.1859 33.302 71.6399 32.672L70.9539 33.736ZM75.7839 29.802C75.4619 30.306 74.7339 30.712 74.0479 30.712C72.8859 30.712 72.1439 29.844 72.1439 28.542C72.1439 27.24 72.8859 26.372 74.0479 26.372C74.7339 26.372 75.4619 26.778 75.7839 27.282V29.802ZM79.159 32H80.629V22.662H79.159V32ZM82.116 28.612C82.116 30.754 83.628 32.168 85.658 32.168C86.736 32.168 87.73 31.832 88.402 31.188L87.73 30.222C87.254 30.698 86.47 30.964 85.812 30.964C84.538 30.964 83.768 30.124 83.656 29.102H88.878V28.752C88.878 26.624 87.576 25.07 85.546 25.07C83.544 25.07 82.116 26.652 82.116 28.612ZM85.546 26.274C86.876 26.274 87.422 27.268 87.45 28.066H83.642C83.712 27.24 84.286 26.274 85.546 26.274ZM93.9667 32H95.6047V28.514H98.0687C100.015 28.514 101.121 27.17 101.121 25.588C101.121 24.006 100.029 22.662 98.0687 22.662H93.9667V32ZM99.4407 25.588C99.4407 26.484 98.7687 27.072 97.8447 27.072H95.6047V24.104H97.8447C98.7687 24.104 99.4407 24.692 99.4407 25.588ZM102.442 32H103.912V22.662H102.442V32ZM109.949 32H111.419V27.52C111.419 25.7 110.103 25.07 108.605 25.07C107.527 25.07 106.547 25.42 105.763 26.162L106.365 27.184C106.953 26.61 107.611 26.33 108.367 26.33C109.305 26.33 109.949 26.806 109.949 27.59V28.598C109.459 28.024 108.675 27.73 107.765 27.73C106.659 27.73 105.413 28.374 105.413 29.928C105.413 31.426 106.659 32.168 107.765 32.168C108.661 32.168 109.445 31.846 109.949 31.272V32ZM109.949 30.46C109.613 30.922 108.983 31.16 108.339 31.16C107.513 31.16 106.897 30.684 106.897 29.956C106.897 29.214 107.513 28.738 108.339 28.738C108.983 28.738 109.613 28.976 109.949 29.438V30.46ZM113.255 33.33L113.031 34.646C113.241 34.702 113.647 34.744 113.857 34.744C114.907 34.73 115.719 34.366 116.181 33.218L119.443 25.238H117.861L115.887 30.306L113.913 25.238H112.345L115.117 32.084L114.781 32.854C114.585 33.302 114.277 33.442 113.815 33.442C113.647 33.442 113.409 33.4 113.255 33.33Z" fill="black"/>
<path d="M34.7143 26.6137L31.6775 24.6617L29.1796 27.3517L31.4628 29.8093L34.7143 27.7179C34.8014 27.6624 34.8738 27.5821 34.924 27.4853C34.9742 27.3884 35.0004 27.2785 35 27.1667C35.0007 27.0546 34.9746 26.9444 34.9244 26.8472C34.8742 26.75 34.8017 26.6694 34.7143 26.6137ZM31.1621 24.3299L27.8204 22.1809L20.4971 18L28.7686 26.9083L31.1621 24.3299ZM20.6182 36.5714L27.8329 32.1442L30.9474 30.1411L28.7686 27.7951L20.6182 36.5714ZM20.0084 18.3606L20 36.3511L28.3567 27.3517L20.0084 18.3606Z" fill="black"/>
<defs>
<linearGradient id="paint0_linear_1360_2703" x1="-20.0933" y1="1.00001" x2="152.117" y2="18.5538" gradientUnits="userSpaceOnUse">
<stop stop-color="#E53BC9"/>
<stop offset="0.515625" stop-color="#FF9C2B"/>
<stop offset="1" stop-color="#9747FF"/>
</linearGradient>
</defs>
</svg>
