<svg width="165" height="164" viewBox="0 0 165 164" fill="none" xmlns="http://www.w3.org/2000/svg">
<g filter="url(#filter0_d_1198_3049)">
<path d="M113.218 21.7825H52.0051C48.6886 21.7825 46 24.4711 46 27.7876V89.0003C46 92.3169 48.6886 95.0055 52.0051 95.0055H113.218C116.534 95.0055 119.223 92.3169 119.223 89.0003V27.7876C119.223 24.4711 116.534 21.7825 113.218 21.7825Z" fill="white"/>
</g>
<path d="M97.9763 45.5105V52.2904H87.0805V54.5493H87.079V77.148H78.3645V69.8629L78.366 69.8597V61.1318C78.366 60.5347 78.5947 59.9621 79.0018 59.5399L84.6761 53.6538C84.8205 53.5041 84.9016 53.3009 84.9016 53.0891C84.9016 52.648 84.5568 52.2904 84.1314 52.2904H67.4688V45.5105H97.9763V45.5105Z" fill="black"/>
<defs>
<filter id="filter0_d_1198_3049" x="0.803627" y="0.314192" width="163.615" height="163.616" filterUnits="userSpaceOnUse" color-interpolation-filters="sRGB">
<feFlood flood-opacity="0" result="BackgroundImageFix"/>
<feColorMatrix in="SourceAlpha" type="matrix" values="0 0 0 0 0 0 0 0 0 0 0 0 0 0 0 0 0 0 127 0" result="hardAlpha"/>
<feOffset dy="23.7281"/>
<feGaussianBlur stdDeviation="22.5982"/>
<feComposite in2="hardAlpha" operator="out"/>
<feColorMatrix type="matrix" values="0 0 0 0 0.351562 0 0 0 0 0.0234375 0 0 0 0 0.162736 0 0 0 0.4 0"/>
<feBlend mode="normal" in2="BackgroundImageFix" result="effect1_dropShadow_1198_3049"/>
<feBlend mode="normal" in="SourceGraphic" in2="effect1_dropShadow_1198_3049" result="shape"/>
</filter>
</defs>
</svg>
